%TF.GenerationSoftware,KiCad,Pcbnew,7.0.9-7.0.9~ubuntu22.04.1*%
%TF.CreationDate,2023-12-12T12:02:25+02:00*%
%TF.ProjectId,Haply_EE,4861706c-795f-4454-952e-6b696361645f,rev?*%
%TF.SameCoordinates,Original*%
%TF.FileFunction,Copper,L3,Inr*%
%TF.FilePolarity,Positive*%
%FSLAX46Y46*%
G04 Gerber Fmt 4.6, Leading zero omitted, Abs format (unit mm)*
G04 Created by KiCad (PCBNEW 7.0.9-7.0.9~ubuntu22.04.1) date 2023-12-12 12:02:25*
%MOMM*%
%LPD*%
G01*
G04 APERTURE LIST*
%TA.AperFunction,ViaPad*%
%ADD10C,0.800000*%
%TD*%
G04 APERTURE END LIST*
D10*
%TO.N,/SCL*%
X137108600Y-98614200D03*
%TO.N,GND*%
X138060000Y-115534500D03*
X131195200Y-115711400D03*
X130400800Y-111462900D03*
X134687700Y-107328600D03*
X138805700Y-95822100D03*
X126688400Y-111451000D03*
X122744500Y-95145000D03*
X131500000Y-107000000D03*
X134145700Y-98902900D03*
X129104100Y-99677200D03*
X122616100Y-118423000D03*
X129522400Y-103801300D03*
X136042100Y-102250000D03*
X139512200Y-119159000D03*
X133952500Y-115534500D03*
X127058400Y-120258100D03*
X125380200Y-98234900D03*
X137061600Y-120258100D03*
X124741800Y-122018400D03*
%TO.N,VCC*%
X130000000Y-107000000D03*
X129000000Y-119500000D03*
%TO.N,/3V3*%
X138500000Y-101900000D03*
X138712500Y-97534200D03*
%TO.N,/EN*%
X138630000Y-98804200D03*
%TO.N,/GPIO_0*%
X137539500Y-110753800D03*
%TO.N,/CH_TX*%
X125834500Y-100836800D03*
X132948900Y-111988800D03*
%TO.N,/CH_RX*%
X133042000Y-111086800D03*
%TO.N,/SDA*%
X128694300Y-98792500D03*
%TO.N,Net-(Q1-D)*%
X139448400Y-121485600D03*
%TO.N,Net-(C5-Pad1)*%
X128635500Y-101936800D03*
X136042100Y-100242800D03*
%TD*%
%TA.AperFunction,Conductor*%
%TO.N,GND*%
G36*
X141723066Y-94517813D02*
G01*
X141748376Y-94561650D01*
X141749500Y-94574500D01*
X141749500Y-123175500D01*
X141732187Y-123223066D01*
X141688350Y-123248376D01*
X141675500Y-123249500D01*
X122074500Y-123249500D01*
X122026934Y-123232187D01*
X122001624Y-123188350D01*
X122000500Y-123175500D01*
X122000500Y-121485600D01*
X138893150Y-121485600D01*
X138912069Y-121629308D01*
X138967538Y-121763223D01*
X138967539Y-121763225D01*
X139055779Y-121878221D01*
X139170775Y-121966461D01*
X139304691Y-122021930D01*
X139448400Y-122040850D01*
X139592109Y-122021930D01*
X139726025Y-121966461D01*
X139841021Y-121878221D01*
X139929261Y-121763225D01*
X139984730Y-121629309D01*
X140003650Y-121485600D01*
X139984730Y-121341891D01*
X139929261Y-121207975D01*
X139841021Y-121092979D01*
X139726025Y-121004739D01*
X139726023Y-121004738D01*
X139592108Y-120949269D01*
X139448400Y-120930350D01*
X139304691Y-120949269D01*
X139170776Y-121004738D01*
X139055779Y-121092979D01*
X138967538Y-121207976D01*
X138912069Y-121341891D01*
X138893150Y-121485600D01*
X122000500Y-121485600D01*
X122000500Y-119500000D01*
X128444750Y-119500000D01*
X128463669Y-119643708D01*
X128519138Y-119777623D01*
X128519139Y-119777625D01*
X128607379Y-119892621D01*
X128722375Y-119980861D01*
X128856291Y-120036330D01*
X129000000Y-120055250D01*
X129143709Y-120036330D01*
X129277625Y-119980861D01*
X129392621Y-119892621D01*
X129480861Y-119777625D01*
X129536330Y-119643709D01*
X129555250Y-119500000D01*
X129536330Y-119356291D01*
X129480861Y-119222375D01*
X129392621Y-119107379D01*
X129277625Y-119019139D01*
X129277623Y-119019138D01*
X129143708Y-118963669D01*
X129018919Y-118947240D01*
X129000000Y-118944750D01*
X128999999Y-118944750D01*
X128880743Y-118960450D01*
X128867534Y-118957521D01*
X128865976Y-118959264D01*
X128859346Y-118962404D01*
X128722375Y-119019139D01*
X128607379Y-119107379D01*
X128519138Y-119222376D01*
X128463669Y-119356291D01*
X128444750Y-119500000D01*
X122000500Y-119500000D01*
X122000500Y-118424369D01*
X128236500Y-118424369D01*
X128275021Y-118555560D01*
X128275022Y-118555561D01*
X128348945Y-118670589D01*
X128452282Y-118760130D01*
X128576658Y-118816931D01*
X128677989Y-118831500D01*
X128677995Y-118831500D01*
X128746005Y-118831500D01*
X128746011Y-118831500D01*
X128820497Y-118820790D01*
X128834776Y-118823778D01*
X128836915Y-118821444D01*
X128842549Y-118819175D01*
X128842528Y-118819129D01*
X128847340Y-118816931D01*
X128847342Y-118816931D01*
X128971718Y-118760130D01*
X129075055Y-118670589D01*
X129148978Y-118555561D01*
X129161818Y-118511829D01*
X129187500Y-118424369D01*
X134016500Y-118424369D01*
X134055021Y-118555560D01*
X134055022Y-118555561D01*
X134128945Y-118670589D01*
X134232282Y-118760130D01*
X134356658Y-118816931D01*
X134457989Y-118831500D01*
X134457995Y-118831500D01*
X134526005Y-118831500D01*
X134526011Y-118831500D01*
X134627342Y-118816931D01*
X134751718Y-118760130D01*
X134855055Y-118670589D01*
X134928978Y-118555561D01*
X134941818Y-118511829D01*
X134967500Y-118424369D01*
X134967500Y-118287630D01*
X134928978Y-118156439D01*
X134855055Y-118041411D01*
X134751718Y-117951870D01*
X134627342Y-117895069D01*
X134627340Y-117895068D01*
X134627339Y-117895068D01*
X134526015Y-117880500D01*
X134526011Y-117880500D01*
X134457989Y-117880500D01*
X134457984Y-117880500D01*
X134356660Y-117895068D01*
X134232280Y-117951871D01*
X134128942Y-118041414D01*
X134055023Y-118156437D01*
X134055021Y-118156439D01*
X134016500Y-118287630D01*
X134016500Y-118424369D01*
X129187500Y-118424369D01*
X129187500Y-118287630D01*
X129148978Y-118156439D01*
X129075055Y-118041411D01*
X128971718Y-117951870D01*
X128847342Y-117895069D01*
X128847340Y-117895068D01*
X128847339Y-117895068D01*
X128746015Y-117880500D01*
X128746011Y-117880500D01*
X128677989Y-117880500D01*
X128677984Y-117880500D01*
X128576660Y-117895068D01*
X128452280Y-117951871D01*
X128348942Y-118041414D01*
X128275023Y-118156437D01*
X128275021Y-118156439D01*
X128236500Y-118287630D01*
X128236500Y-118424369D01*
X122000500Y-118424369D01*
X122000500Y-111988800D01*
X132393650Y-111988800D01*
X132412569Y-112132508D01*
X132468038Y-112266423D01*
X132468039Y-112266425D01*
X132556279Y-112381421D01*
X132671275Y-112469661D01*
X132805191Y-112525130D01*
X132948900Y-112544050D01*
X133092609Y-112525130D01*
X133226525Y-112469661D01*
X133341521Y-112381421D01*
X133429761Y-112266425D01*
X133485230Y-112132509D01*
X133504150Y-111988800D01*
X133485230Y-111845091D01*
X133429761Y-111711175D01*
X133364680Y-111626360D01*
X133349459Y-111578087D01*
X133368830Y-111531321D01*
X133378338Y-111522608D01*
X133434621Y-111479421D01*
X133522861Y-111364425D01*
X133578330Y-111230509D01*
X133597250Y-111086800D01*
X133578330Y-110943091D01*
X133522861Y-110809175D01*
X133480370Y-110753800D01*
X136984250Y-110753800D01*
X137003169Y-110897508D01*
X137022050Y-110943091D01*
X137058639Y-111031425D01*
X137146879Y-111146421D01*
X137261875Y-111234661D01*
X137395791Y-111290130D01*
X137539500Y-111309050D01*
X137683209Y-111290130D01*
X137817125Y-111234661D01*
X137932121Y-111146421D01*
X138020361Y-111031425D01*
X138075830Y-110897509D01*
X138094750Y-110753800D01*
X138075830Y-110610091D01*
X138020361Y-110476175D01*
X137932121Y-110361179D01*
X137817125Y-110272939D01*
X137817123Y-110272938D01*
X137683208Y-110217469D01*
X137539500Y-110198550D01*
X137395791Y-110217469D01*
X137261876Y-110272938D01*
X137146879Y-110361179D01*
X137058638Y-110476176D01*
X137003169Y-110610091D01*
X136984250Y-110753800D01*
X133480370Y-110753800D01*
X133434621Y-110694179D01*
X133319625Y-110605939D01*
X133319623Y-110605938D01*
X133185708Y-110550469D01*
X133042000Y-110531550D01*
X132898291Y-110550469D01*
X132764376Y-110605938D01*
X132649379Y-110694179D01*
X132561138Y-110809176D01*
X132505669Y-110943091D01*
X132486750Y-111086800D01*
X132505669Y-111230508D01*
X132530365Y-111290130D01*
X132561139Y-111364425D01*
X132626218Y-111449237D01*
X132641440Y-111497512D01*
X132622069Y-111544278D01*
X132612560Y-111552992D01*
X132556280Y-111596178D01*
X132468038Y-111711176D01*
X132412569Y-111845091D01*
X132393650Y-111988800D01*
X122000500Y-111988800D01*
X122000500Y-107000000D01*
X129444750Y-107000000D01*
X129463669Y-107143708D01*
X129519138Y-107277623D01*
X129519139Y-107277625D01*
X129607379Y-107392621D01*
X129722375Y-107480861D01*
X129856291Y-107536330D01*
X130000000Y-107555250D01*
X130143709Y-107536330D01*
X130277625Y-107480861D01*
X130392621Y-107392621D01*
X130480861Y-107277625D01*
X130536330Y-107143709D01*
X130555250Y-107000000D01*
X130536330Y-106856291D01*
X130480861Y-106722375D01*
X130392621Y-106607379D01*
X130277625Y-106519139D01*
X130277623Y-106519138D01*
X130143708Y-106463669D01*
X130000000Y-106444750D01*
X129856291Y-106463669D01*
X129722376Y-106519138D01*
X129607379Y-106607379D01*
X129519138Y-106722376D01*
X129463669Y-106856291D01*
X129444750Y-107000000D01*
X122000500Y-107000000D01*
X122000500Y-101936800D01*
X128080250Y-101936800D01*
X128099169Y-102080508D01*
X128139395Y-102177623D01*
X128154639Y-102214425D01*
X128242879Y-102329421D01*
X128357875Y-102417661D01*
X128491791Y-102473130D01*
X128635500Y-102492050D01*
X128779209Y-102473130D01*
X128913125Y-102417661D01*
X129028121Y-102329421D01*
X129116361Y-102214425D01*
X129171830Y-102080509D01*
X129190750Y-101936800D01*
X129185905Y-101900000D01*
X137944750Y-101900000D01*
X137963669Y-102043708D01*
X138019138Y-102177623D01*
X138019139Y-102177625D01*
X138107379Y-102292621D01*
X138222375Y-102380861D01*
X138356291Y-102436330D01*
X138500000Y-102455250D01*
X138643709Y-102436330D01*
X138777625Y-102380861D01*
X138892621Y-102292621D01*
X138980861Y-102177625D01*
X139036330Y-102043709D01*
X139055250Y-101900000D01*
X139036330Y-101756291D01*
X138980861Y-101622375D01*
X138892621Y-101507379D01*
X138777625Y-101419139D01*
X138777623Y-101419138D01*
X138643708Y-101363669D01*
X138500000Y-101344750D01*
X138356291Y-101363669D01*
X138222376Y-101419138D01*
X138107379Y-101507379D01*
X138019138Y-101622376D01*
X137963669Y-101756291D01*
X137944750Y-101900000D01*
X129185905Y-101900000D01*
X129171830Y-101793091D01*
X129116361Y-101659175D01*
X129028121Y-101544179D01*
X128913125Y-101455939D01*
X128913123Y-101455938D01*
X128779208Y-101400469D01*
X128635500Y-101381550D01*
X128491791Y-101400469D01*
X128357876Y-101455938D01*
X128242879Y-101544179D01*
X128154638Y-101659176D01*
X128099169Y-101793091D01*
X128080250Y-101936800D01*
X122000500Y-101936800D01*
X122000500Y-100836800D01*
X125279250Y-100836800D01*
X125298169Y-100980508D01*
X125353638Y-101114423D01*
X125353639Y-101114425D01*
X125441879Y-101229421D01*
X125556875Y-101317661D01*
X125690791Y-101373130D01*
X125834500Y-101392050D01*
X125978209Y-101373130D01*
X126112125Y-101317661D01*
X126227121Y-101229421D01*
X126315361Y-101114425D01*
X126370830Y-100980509D01*
X126389750Y-100836800D01*
X126370830Y-100693091D01*
X126315361Y-100559175D01*
X126227121Y-100444179D01*
X126112125Y-100355939D01*
X126112123Y-100355938D01*
X125978208Y-100300469D01*
X125834500Y-100281550D01*
X125690791Y-100300469D01*
X125556876Y-100355938D01*
X125441879Y-100444179D01*
X125353638Y-100559176D01*
X125298169Y-100693091D01*
X125279250Y-100836800D01*
X122000500Y-100836800D01*
X122000500Y-100242800D01*
X135486850Y-100242800D01*
X135505769Y-100386508D01*
X135529657Y-100444179D01*
X135561239Y-100520425D01*
X135649479Y-100635421D01*
X135764475Y-100723661D01*
X135898391Y-100779130D01*
X136042100Y-100798050D01*
X136185809Y-100779130D01*
X136319725Y-100723661D01*
X136434721Y-100635421D01*
X136522961Y-100520425D01*
X136578430Y-100386509D01*
X136597350Y-100242800D01*
X136578430Y-100099091D01*
X136522961Y-99965175D01*
X136434721Y-99850179D01*
X136319725Y-99761939D01*
X136319723Y-99761938D01*
X136185808Y-99706469D01*
X136042100Y-99687550D01*
X135898391Y-99706469D01*
X135764476Y-99761938D01*
X135649479Y-99850179D01*
X135561238Y-99965176D01*
X135505769Y-100099091D01*
X135486850Y-100242800D01*
X122000500Y-100242800D01*
X122000500Y-98792500D01*
X128139050Y-98792500D01*
X128157969Y-98936208D01*
X128187218Y-99006821D01*
X128213439Y-99070125D01*
X128301679Y-99185121D01*
X128416675Y-99273361D01*
X128550591Y-99328830D01*
X128694300Y-99347750D01*
X128838009Y-99328830D01*
X128971925Y-99273361D01*
X129086921Y-99185121D01*
X129175161Y-99070125D01*
X129230630Y-98936209D01*
X129249550Y-98792500D01*
X129230630Y-98648791D01*
X129216302Y-98614200D01*
X136553350Y-98614200D01*
X136572269Y-98757908D01*
X136591444Y-98804200D01*
X136627739Y-98891825D01*
X136715979Y-99006821D01*
X136830975Y-99095061D01*
X136964891Y-99150530D01*
X137108600Y-99169450D01*
X137252309Y-99150530D01*
X137386225Y-99095061D01*
X137501221Y-99006821D01*
X137589461Y-98891825D01*
X137625756Y-98804200D01*
X138074750Y-98804200D01*
X138093669Y-98947908D01*
X138144292Y-99070123D01*
X138149139Y-99081825D01*
X138237379Y-99196821D01*
X138352375Y-99285061D01*
X138486291Y-99340530D01*
X138630000Y-99359450D01*
X138773709Y-99340530D01*
X138907625Y-99285061D01*
X139022621Y-99196821D01*
X139110861Y-99081825D01*
X139166330Y-98947909D01*
X139185250Y-98804200D01*
X139166330Y-98660491D01*
X139110861Y-98526575D01*
X139022621Y-98411579D01*
X138907625Y-98323339D01*
X138907623Y-98323338D01*
X138773708Y-98267869D01*
X138630000Y-98248950D01*
X138486291Y-98267869D01*
X138352376Y-98323338D01*
X138237379Y-98411579D01*
X138149138Y-98526576D01*
X138093669Y-98660491D01*
X138074750Y-98804200D01*
X137625756Y-98804200D01*
X137644930Y-98757909D01*
X137663850Y-98614200D01*
X137644930Y-98470491D01*
X137589461Y-98336575D01*
X137501221Y-98221579D01*
X137386225Y-98133339D01*
X137386223Y-98133338D01*
X137252308Y-98077869D01*
X137108600Y-98058950D01*
X136964891Y-98077869D01*
X136830976Y-98133338D01*
X136715979Y-98221579D01*
X136627738Y-98336576D01*
X136572269Y-98470491D01*
X136553350Y-98614200D01*
X129216302Y-98614200D01*
X129175161Y-98514875D01*
X129086921Y-98399879D01*
X128971925Y-98311639D01*
X128971923Y-98311638D01*
X128838008Y-98256169D01*
X128694300Y-98237250D01*
X128550591Y-98256169D01*
X128416676Y-98311638D01*
X128301679Y-98399879D01*
X128213438Y-98514876D01*
X128157969Y-98648791D01*
X128139050Y-98792500D01*
X122000500Y-98792500D01*
X122000500Y-97534200D01*
X138157250Y-97534200D01*
X138176169Y-97677908D01*
X138231638Y-97811823D01*
X138231639Y-97811825D01*
X138319879Y-97926821D01*
X138434875Y-98015061D01*
X138568791Y-98070530D01*
X138712500Y-98089450D01*
X138856209Y-98070530D01*
X138990125Y-98015061D01*
X139105121Y-97926821D01*
X139193361Y-97811825D01*
X139248830Y-97677909D01*
X139267750Y-97534200D01*
X139248830Y-97390491D01*
X139193361Y-97256575D01*
X139105121Y-97141579D01*
X138990125Y-97053339D01*
X138990123Y-97053338D01*
X138856208Y-96997869D01*
X138712500Y-96978950D01*
X138568791Y-96997869D01*
X138434876Y-97053338D01*
X138319879Y-97141579D01*
X138231638Y-97256576D01*
X138176169Y-97390491D01*
X138157250Y-97534200D01*
X122000500Y-97534200D01*
X122000500Y-96415000D01*
X131769318Y-96415000D01*
X131789955Y-96571760D01*
X131789955Y-96571761D01*
X131850464Y-96717841D01*
X131946715Y-96843279D01*
X131946720Y-96843284D01*
X132030345Y-96907451D01*
X132072159Y-96939536D01*
X132218238Y-97000044D01*
X132335639Y-97015500D01*
X132335641Y-97015500D01*
X132414359Y-97015500D01*
X132414361Y-97015500D01*
X132531762Y-97000044D01*
X132677841Y-96939536D01*
X132803282Y-96843282D01*
X132899536Y-96717841D01*
X132960044Y-96571762D01*
X132980682Y-96415000D01*
X134769318Y-96415000D01*
X134789955Y-96571760D01*
X134789955Y-96571761D01*
X134850464Y-96717841D01*
X134946715Y-96843279D01*
X134946720Y-96843284D01*
X135030345Y-96907451D01*
X135072159Y-96939536D01*
X135218238Y-97000044D01*
X135335639Y-97015500D01*
X135335641Y-97015500D01*
X135414359Y-97015500D01*
X135414361Y-97015500D01*
X135531762Y-97000044D01*
X135677841Y-96939536D01*
X135803282Y-96843282D01*
X135899536Y-96717841D01*
X135960044Y-96571762D01*
X135980682Y-96415000D01*
X135960044Y-96258238D01*
X135899536Y-96112159D01*
X135803282Y-95986718D01*
X135803279Y-95986715D01*
X135677841Y-95890464D01*
X135531761Y-95829955D01*
X135441675Y-95818095D01*
X135414361Y-95814500D01*
X135335639Y-95814500D01*
X135311171Y-95817721D01*
X135218238Y-95829955D01*
X135072158Y-95890464D01*
X134946720Y-95986715D01*
X134946715Y-95986720D01*
X134850464Y-96112158D01*
X134789955Y-96258238D01*
X134789955Y-96258239D01*
X134769318Y-96415000D01*
X132980682Y-96415000D01*
X132960044Y-96258238D01*
X132899536Y-96112159D01*
X132803282Y-95986718D01*
X132803279Y-95986715D01*
X132677841Y-95890464D01*
X132531761Y-95829955D01*
X132441675Y-95818095D01*
X132414361Y-95814500D01*
X132335639Y-95814500D01*
X132311171Y-95817721D01*
X132218238Y-95829955D01*
X132072158Y-95890464D01*
X131946720Y-95986715D01*
X131946715Y-95986720D01*
X131850464Y-96112158D01*
X131789955Y-96258238D01*
X131789955Y-96258239D01*
X131769318Y-96415000D01*
X122000500Y-96415000D01*
X122000500Y-94574500D01*
X122017813Y-94526934D01*
X122061650Y-94501624D01*
X122074500Y-94500500D01*
X122249901Y-94500500D01*
X141675500Y-94500500D01*
X141723066Y-94517813D01*
G37*
%TD.AperFunction*%
%TD*%
M02*
