M48
; DRILL file {KiCad 7.0.9-7.0.9~ubuntu22.04.1} date Tue 12 Dec 2023 12:02:22 PM EET
; FORMAT={-:-/ absolute / inch / decimal}
; #@! TF.CreationDate,2023-12-12T12:02:22+02:00
; #@! TF.GenerationSoftware,Kicad,Pcbnew,7.0.9-7.0.9~ubuntu22.04.1
; #@! TF.FileFunction,Plated,1,4,PTH
FMAT,2
INCH
; #@! TA.AperFunction,Plated,PTH,ViaDrill
T1C0.0157
%
G90
G05
T1
X4.8274Y-4.6623
X4.8325Y-3.7459
X4.9111Y-4.8039
X4.9362Y-3.8675
X4.9541Y-3.97
X4.9877Y-4.3878
X5.0023Y-4.7346
X5.0644Y-4.0133
X5.0667Y-3.8895
X5.0787Y-4.7047
X5.0828Y-3.9243
X5.0993Y-4.0867
X5.1181Y-4.2126
X5.1339Y-4.3883
X5.1652Y-4.5556
X5.1772Y-4.2126
X5.2342Y-4.409
X5.2379Y-4.3735
X5.2737Y-4.5486
X5.2813Y-3.8938
X5.3027Y-4.2255
X5.356Y-3.9466
X5.356Y-4.0256
X5.3961Y-4.7346
X5.398Y-3.8824
X5.4149Y-4.3604
X5.4354Y-4.5486
X5.4528Y-4.0118
X5.4579Y-3.8899
X5.4611Y-3.8399
X5.4648Y-3.7725
X5.4901Y-4.7829
X5.4926Y-4.6913
T0
M30
