%TF.GenerationSoftware,KiCad,Pcbnew,7.0.9-7.0.9~ubuntu22.04.1*%
%TF.CreationDate,2023-12-12T12:02:19+02:00*%
%TF.ProjectId,Haply_EE,4861706c-795f-4454-952e-6b696361645f,rev?*%
%TF.SameCoordinates,Original*%
%TF.FileFunction,Drillmap*%
%TF.FilePolarity,Positive*%
%FSLAX45Y45*%
G04 Gerber Fmt 4.5, Leading zero omitted, Abs format (unit mm)*
G04 Created by KiCad (PCBNEW 7.0.9-7.0.9~ubuntu22.04.1) date 2023-12-12 12:02:19*
%MOMM*%
%LPD*%
G01*
G04 APERTURE LIST*
%ADD10C,0.100000*%
%ADD11C,0.200000*%
G04 APERTURE END LIST*
D10*
X12200000Y-12325000D02*
X14175000Y-12325000D01*
X12225000Y-9450000D02*
X12200000Y-9450000D01*
X14175000Y-12325000D02*
X14175000Y-9450000D01*
X14175000Y-9450000D02*
X12225000Y-9450000D01*
X12200000Y-12325000D02*
X12200000Y-9450000D01*
D11*
D10*
X12241610Y-11822300D02*
X12281610Y-11862300D01*
X12281610Y-11822300D02*
X12241610Y-11862300D01*
X12254450Y-9494500D02*
X12294450Y-9534500D01*
X12294450Y-9494500D02*
X12254450Y-9534500D01*
X12454180Y-12181840D02*
X12494180Y-12221840D01*
X12494180Y-12181840D02*
X12454180Y-12221840D01*
X12518020Y-9803490D02*
X12558020Y-9843490D01*
X12558020Y-9803490D02*
X12518020Y-9843490D01*
X12563450Y-10063680D02*
X12603450Y-10103680D01*
X12603450Y-10063680D02*
X12563450Y-10103680D01*
X12648840Y-11125100D02*
X12688840Y-11165100D01*
X12688840Y-11125100D02*
X12648840Y-11165100D01*
X12685840Y-12005810D02*
X12725840Y-12045810D01*
X12725840Y-12005810D02*
X12685840Y-12045810D01*
X12843550Y-10173680D02*
X12883550Y-10213680D01*
X12883550Y-10173680D02*
X12843550Y-10213680D01*
X12849430Y-9859250D02*
X12889430Y-9899250D01*
X12889430Y-9859250D02*
X12849430Y-9899250D01*
X12880000Y-11930000D02*
X12920000Y-11970000D01*
X12920000Y-11930000D02*
X12880000Y-11970000D01*
X12890410Y-9947720D02*
X12930410Y-9987720D01*
X12930410Y-9947720D02*
X12890410Y-9987720D01*
X12932240Y-10360130D02*
X12972240Y-10400130D01*
X12972240Y-10360130D02*
X12932240Y-10400130D01*
X12980000Y-10680000D02*
X13020000Y-10720000D01*
X13020000Y-10680000D02*
X12980000Y-10720000D01*
X13020080Y-11126290D02*
X13060080Y-11166290D01*
X13060080Y-11126290D02*
X13020080Y-11166290D01*
X13099520Y-11551140D02*
X13139520Y-11591140D01*
X13139520Y-11551140D02*
X13099520Y-11591140D01*
X13130000Y-10680000D02*
X13170000Y-10720000D01*
X13170000Y-10680000D02*
X13130000Y-10720000D01*
X13274890Y-11178880D02*
X13314890Y-11218880D01*
X13314890Y-11178880D02*
X13274890Y-11218880D01*
X13284200Y-11088680D02*
X13324200Y-11128680D01*
X13324200Y-11088680D02*
X13284200Y-11128680D01*
X13375250Y-11533450D02*
X13415250Y-11573450D01*
X13415250Y-11533450D02*
X13375250Y-11573450D01*
X13394570Y-9870290D02*
X13434570Y-9910290D01*
X13434570Y-9870290D02*
X13394570Y-9910290D01*
X13448770Y-10712860D02*
X13488770Y-10752860D01*
X13488770Y-10712860D02*
X13448770Y-10752860D01*
X13584210Y-10004280D02*
X13624210Y-10044280D01*
X13624210Y-10004280D02*
X13584210Y-10044280D01*
X13584210Y-10205000D02*
X13624210Y-10245000D01*
X13624210Y-10205000D02*
X13584210Y-10245000D01*
X13686160Y-12005810D02*
X13726160Y-12045810D01*
X13726160Y-12005810D02*
X13686160Y-12045810D01*
X13690860Y-9841420D02*
X13730860Y-9881420D01*
X13730860Y-9841420D02*
X13690860Y-9881420D01*
X13733950Y-11055380D02*
X13773950Y-11095380D01*
X13773950Y-11055380D02*
X13733950Y-11095380D01*
X13786000Y-11533450D02*
X13826000Y-11573450D01*
X13826000Y-11533450D02*
X13786000Y-11573450D01*
X13830000Y-10170000D02*
X13870000Y-10210000D01*
X13870000Y-10170000D02*
X13830000Y-10210000D01*
X13843000Y-9860420D02*
X13883000Y-9900420D01*
X13883000Y-9860420D02*
X13843000Y-9900420D01*
X13851250Y-9733420D02*
X13891250Y-9773420D01*
X13891250Y-9733420D02*
X13851250Y-9773420D01*
X13860570Y-9562210D02*
X13900570Y-9602210D01*
X13900570Y-9562210D02*
X13860570Y-9602210D01*
X13924840Y-12128560D02*
X13964840Y-12168560D01*
X13964840Y-12128560D02*
X13924840Y-12168560D01*
X13931220Y-11895900D02*
X13971220Y-11935900D01*
X13971220Y-11895900D02*
X13931220Y-11935900D01*
D11*
X12455777Y-12641484D02*
X12455777Y-12441484D01*
X12455777Y-12441484D02*
X12503396Y-12441484D01*
X12503396Y-12441484D02*
X12531967Y-12451008D01*
X12531967Y-12451008D02*
X12551015Y-12470055D01*
X12551015Y-12470055D02*
X12560539Y-12489103D01*
X12560539Y-12489103D02*
X12570062Y-12527198D01*
X12570062Y-12527198D02*
X12570062Y-12555769D01*
X12570062Y-12555769D02*
X12560539Y-12593865D01*
X12560539Y-12593865D02*
X12551015Y-12612912D01*
X12551015Y-12612912D02*
X12531967Y-12631960D01*
X12531967Y-12631960D02*
X12503396Y-12641484D01*
X12503396Y-12641484D02*
X12455777Y-12641484D01*
X12655777Y-12641484D02*
X12655777Y-12508150D01*
X12655777Y-12546246D02*
X12665301Y-12527198D01*
X12665301Y-12527198D02*
X12674824Y-12517674D01*
X12674824Y-12517674D02*
X12693872Y-12508150D01*
X12693872Y-12508150D02*
X12712920Y-12508150D01*
X12779586Y-12641484D02*
X12779586Y-12508150D01*
X12779586Y-12441484D02*
X12770062Y-12451008D01*
X12770062Y-12451008D02*
X12779586Y-12460531D01*
X12779586Y-12460531D02*
X12789110Y-12451008D01*
X12789110Y-12451008D02*
X12779586Y-12441484D01*
X12779586Y-12441484D02*
X12779586Y-12460531D01*
X12903396Y-12641484D02*
X12884348Y-12631960D01*
X12884348Y-12631960D02*
X12874824Y-12612912D01*
X12874824Y-12612912D02*
X12874824Y-12441484D01*
X13008158Y-12641484D02*
X12989110Y-12631960D01*
X12989110Y-12631960D02*
X12979586Y-12612912D01*
X12979586Y-12612912D02*
X12979586Y-12441484D01*
X13236729Y-12641484D02*
X13236729Y-12441484D01*
X13236729Y-12441484D02*
X13303396Y-12584341D01*
X13303396Y-12584341D02*
X13370062Y-12441484D01*
X13370062Y-12441484D02*
X13370062Y-12641484D01*
X13551015Y-12641484D02*
X13551015Y-12536722D01*
X13551015Y-12536722D02*
X13541491Y-12517674D01*
X13541491Y-12517674D02*
X13522443Y-12508150D01*
X13522443Y-12508150D02*
X13484348Y-12508150D01*
X13484348Y-12508150D02*
X13465301Y-12517674D01*
X13551015Y-12631960D02*
X13531967Y-12641484D01*
X13531967Y-12641484D02*
X13484348Y-12641484D01*
X13484348Y-12641484D02*
X13465301Y-12631960D01*
X13465301Y-12631960D02*
X13455777Y-12612912D01*
X13455777Y-12612912D02*
X13455777Y-12593865D01*
X13455777Y-12593865D02*
X13465301Y-12574817D01*
X13465301Y-12574817D02*
X13484348Y-12565293D01*
X13484348Y-12565293D02*
X13531967Y-12565293D01*
X13531967Y-12565293D02*
X13551015Y-12555769D01*
X13646253Y-12508150D02*
X13646253Y-12708150D01*
X13646253Y-12517674D02*
X13665301Y-12508150D01*
X13665301Y-12508150D02*
X13703396Y-12508150D01*
X13703396Y-12508150D02*
X13722443Y-12517674D01*
X13722443Y-12517674D02*
X13731967Y-12527198D01*
X13731967Y-12527198D02*
X13741491Y-12546246D01*
X13741491Y-12546246D02*
X13741491Y-12603388D01*
X13741491Y-12603388D02*
X13731967Y-12622436D01*
X13731967Y-12622436D02*
X13722443Y-12631960D01*
X13722443Y-12631960D02*
X13703396Y-12641484D01*
X13703396Y-12641484D02*
X13665301Y-12641484D01*
X13665301Y-12641484D02*
X13646253Y-12631960D01*
X13827205Y-12622436D02*
X13836729Y-12631960D01*
X13836729Y-12631960D02*
X13827205Y-12641484D01*
X13827205Y-12641484D02*
X13817682Y-12631960D01*
X13817682Y-12631960D02*
X13827205Y-12622436D01*
X13827205Y-12622436D02*
X13827205Y-12641484D01*
X13827205Y-12517674D02*
X13836729Y-12527198D01*
X13836729Y-12527198D02*
X13827205Y-12536722D01*
X13827205Y-12536722D02*
X13817682Y-12527198D01*
X13817682Y-12527198D02*
X13827205Y-12517674D01*
X13827205Y-12517674D02*
X13827205Y-12536722D01*
D10*
X12155000Y-12950000D02*
X12195000Y-12990000D01*
X12195000Y-12950000D02*
X12155000Y-12990000D01*
D11*
X12493872Y-12861484D02*
X12512920Y-12861484D01*
X12512920Y-12861484D02*
X12531967Y-12871008D01*
X12531967Y-12871008D02*
X12541491Y-12880531D01*
X12541491Y-12880531D02*
X12551015Y-12899579D01*
X12551015Y-12899579D02*
X12560539Y-12937674D01*
X12560539Y-12937674D02*
X12560539Y-12985293D01*
X12560539Y-12985293D02*
X12551015Y-13023388D01*
X12551015Y-13023388D02*
X12541491Y-13042436D01*
X12541491Y-13042436D02*
X12531967Y-13051960D01*
X12531967Y-13051960D02*
X12512920Y-13061484D01*
X12512920Y-13061484D02*
X12493872Y-13061484D01*
X12493872Y-13061484D02*
X12474824Y-13051960D01*
X12474824Y-13051960D02*
X12465301Y-13042436D01*
X12465301Y-13042436D02*
X12455777Y-13023388D01*
X12455777Y-13023388D02*
X12446253Y-12985293D01*
X12446253Y-12985293D02*
X12446253Y-12937674D01*
X12446253Y-12937674D02*
X12455777Y-12899579D01*
X12455777Y-12899579D02*
X12465301Y-12880531D01*
X12465301Y-12880531D02*
X12474824Y-12871008D01*
X12474824Y-12871008D02*
X12493872Y-12861484D01*
X12646253Y-13042436D02*
X12655777Y-13051960D01*
X12655777Y-13051960D02*
X12646253Y-13061484D01*
X12646253Y-13061484D02*
X12636729Y-13051960D01*
X12636729Y-13051960D02*
X12646253Y-13042436D01*
X12646253Y-13042436D02*
X12646253Y-13061484D01*
X12827205Y-12928150D02*
X12827205Y-13061484D01*
X12779586Y-12851960D02*
X12731967Y-12994817D01*
X12731967Y-12994817D02*
X12855777Y-12994817D01*
X12970062Y-12861484D02*
X12989110Y-12861484D01*
X12989110Y-12861484D02*
X13008158Y-12871008D01*
X13008158Y-12871008D02*
X13017682Y-12880531D01*
X13017682Y-12880531D02*
X13027205Y-12899579D01*
X13027205Y-12899579D02*
X13036729Y-12937674D01*
X13036729Y-12937674D02*
X13036729Y-12985293D01*
X13036729Y-12985293D02*
X13027205Y-13023388D01*
X13027205Y-13023388D02*
X13017682Y-13042436D01*
X13017682Y-13042436D02*
X13008158Y-13051960D01*
X13008158Y-13051960D02*
X12989110Y-13061484D01*
X12989110Y-13061484D02*
X12970062Y-13061484D01*
X12970062Y-13061484D02*
X12951015Y-13051960D01*
X12951015Y-13051960D02*
X12941491Y-13042436D01*
X12941491Y-13042436D02*
X12931967Y-13023388D01*
X12931967Y-13023388D02*
X12922443Y-12985293D01*
X12922443Y-12985293D02*
X12922443Y-12937674D01*
X12922443Y-12937674D02*
X12931967Y-12899579D01*
X12931967Y-12899579D02*
X12941491Y-12880531D01*
X12941491Y-12880531D02*
X12951015Y-12871008D01*
X12951015Y-12871008D02*
X12970062Y-12861484D01*
X13160539Y-12861484D02*
X13179586Y-12861484D01*
X13179586Y-12861484D02*
X13198634Y-12871008D01*
X13198634Y-12871008D02*
X13208158Y-12880531D01*
X13208158Y-12880531D02*
X13217682Y-12899579D01*
X13217682Y-12899579D02*
X13227205Y-12937674D01*
X13227205Y-12937674D02*
X13227205Y-12985293D01*
X13227205Y-12985293D02*
X13217682Y-13023388D01*
X13217682Y-13023388D02*
X13208158Y-13042436D01*
X13208158Y-13042436D02*
X13198634Y-13051960D01*
X13198634Y-13051960D02*
X13179586Y-13061484D01*
X13179586Y-13061484D02*
X13160539Y-13061484D01*
X13160539Y-13061484D02*
X13141491Y-13051960D01*
X13141491Y-13051960D02*
X13131967Y-13042436D01*
X13131967Y-13042436D02*
X13122443Y-13023388D01*
X13122443Y-13023388D02*
X13112920Y-12985293D01*
X13112920Y-12985293D02*
X13112920Y-12937674D01*
X13112920Y-12937674D02*
X13122443Y-12899579D01*
X13122443Y-12899579D02*
X13131967Y-12880531D01*
X13131967Y-12880531D02*
X13141491Y-12871008D01*
X13141491Y-12871008D02*
X13160539Y-12861484D01*
X13312920Y-13061484D02*
X13312920Y-12928150D01*
X13312920Y-12947198D02*
X13322443Y-12937674D01*
X13322443Y-12937674D02*
X13341491Y-12928150D01*
X13341491Y-12928150D02*
X13370063Y-12928150D01*
X13370063Y-12928150D02*
X13389110Y-12937674D01*
X13389110Y-12937674D02*
X13398634Y-12956722D01*
X13398634Y-12956722D02*
X13398634Y-13061484D01*
X13398634Y-12956722D02*
X13408158Y-12937674D01*
X13408158Y-12937674D02*
X13427205Y-12928150D01*
X13427205Y-12928150D02*
X13455777Y-12928150D01*
X13455777Y-12928150D02*
X13474824Y-12937674D01*
X13474824Y-12937674D02*
X13484348Y-12956722D01*
X13484348Y-12956722D02*
X13484348Y-13061484D01*
X13579586Y-13061484D02*
X13579586Y-12928150D01*
X13579586Y-12947198D02*
X13589110Y-12937674D01*
X13589110Y-12937674D02*
X13608158Y-12928150D01*
X13608158Y-12928150D02*
X13636729Y-12928150D01*
X13636729Y-12928150D02*
X13655777Y-12937674D01*
X13655777Y-12937674D02*
X13665301Y-12956722D01*
X13665301Y-12956722D02*
X13665301Y-13061484D01*
X13665301Y-12956722D02*
X13674824Y-12937674D01*
X13674824Y-12937674D02*
X13693872Y-12928150D01*
X13693872Y-12928150D02*
X13722443Y-12928150D01*
X13722443Y-12928150D02*
X13741491Y-12937674D01*
X13741491Y-12937674D02*
X13751015Y-12956722D01*
X13751015Y-12956722D02*
X13751015Y-13061484D01*
X14141491Y-12851960D02*
X13970063Y-13109103D01*
X14398634Y-12861484D02*
X14417682Y-12861484D01*
X14417682Y-12861484D02*
X14436729Y-12871008D01*
X14436729Y-12871008D02*
X14446253Y-12880531D01*
X14446253Y-12880531D02*
X14455777Y-12899579D01*
X14455777Y-12899579D02*
X14465301Y-12937674D01*
X14465301Y-12937674D02*
X14465301Y-12985293D01*
X14465301Y-12985293D02*
X14455777Y-13023388D01*
X14455777Y-13023388D02*
X14446253Y-13042436D01*
X14446253Y-13042436D02*
X14436729Y-13051960D01*
X14436729Y-13051960D02*
X14417682Y-13061484D01*
X14417682Y-13061484D02*
X14398634Y-13061484D01*
X14398634Y-13061484D02*
X14379586Y-13051960D01*
X14379586Y-13051960D02*
X14370063Y-13042436D01*
X14370063Y-13042436D02*
X14360539Y-13023388D01*
X14360539Y-13023388D02*
X14351015Y-12985293D01*
X14351015Y-12985293D02*
X14351015Y-12937674D01*
X14351015Y-12937674D02*
X14360539Y-12899579D01*
X14360539Y-12899579D02*
X14370063Y-12880531D01*
X14370063Y-12880531D02*
X14379586Y-12871008D01*
X14379586Y-12871008D02*
X14398634Y-12861484D01*
X14551015Y-13042436D02*
X14560539Y-13051960D01*
X14560539Y-13051960D02*
X14551015Y-13061484D01*
X14551015Y-13061484D02*
X14541491Y-13051960D01*
X14541491Y-13051960D02*
X14551015Y-13042436D01*
X14551015Y-13042436D02*
X14551015Y-13061484D01*
X14684348Y-12861484D02*
X14703396Y-12861484D01*
X14703396Y-12861484D02*
X14722444Y-12871008D01*
X14722444Y-12871008D02*
X14731967Y-12880531D01*
X14731967Y-12880531D02*
X14741491Y-12899579D01*
X14741491Y-12899579D02*
X14751015Y-12937674D01*
X14751015Y-12937674D02*
X14751015Y-12985293D01*
X14751015Y-12985293D02*
X14741491Y-13023388D01*
X14741491Y-13023388D02*
X14731967Y-13042436D01*
X14731967Y-13042436D02*
X14722444Y-13051960D01*
X14722444Y-13051960D02*
X14703396Y-13061484D01*
X14703396Y-13061484D02*
X14684348Y-13061484D01*
X14684348Y-13061484D02*
X14665301Y-13051960D01*
X14665301Y-13051960D02*
X14655777Y-13042436D01*
X14655777Y-13042436D02*
X14646253Y-13023388D01*
X14646253Y-13023388D02*
X14636729Y-12985293D01*
X14636729Y-12985293D02*
X14636729Y-12937674D01*
X14636729Y-12937674D02*
X14646253Y-12899579D01*
X14646253Y-12899579D02*
X14655777Y-12880531D01*
X14655777Y-12880531D02*
X14665301Y-12871008D01*
X14665301Y-12871008D02*
X14684348Y-12861484D01*
X14941491Y-13061484D02*
X14827206Y-13061484D01*
X14884348Y-13061484D02*
X14884348Y-12861484D01*
X14884348Y-12861484D02*
X14865301Y-12890055D01*
X14865301Y-12890055D02*
X14846253Y-12909103D01*
X14846253Y-12909103D02*
X14827206Y-12918627D01*
X15122444Y-12861484D02*
X15027206Y-12861484D01*
X15027206Y-12861484D02*
X15017682Y-12956722D01*
X15017682Y-12956722D02*
X15027206Y-12947198D01*
X15027206Y-12947198D02*
X15046253Y-12937674D01*
X15046253Y-12937674D02*
X15093872Y-12937674D01*
X15093872Y-12937674D02*
X15112920Y-12947198D01*
X15112920Y-12947198D02*
X15122444Y-12956722D01*
X15122444Y-12956722D02*
X15131967Y-12975769D01*
X15131967Y-12975769D02*
X15131967Y-13023388D01*
X15131967Y-13023388D02*
X15122444Y-13042436D01*
X15122444Y-13042436D02*
X15112920Y-13051960D01*
X15112920Y-13051960D02*
X15093872Y-13061484D01*
X15093872Y-13061484D02*
X15046253Y-13061484D01*
X15046253Y-13061484D02*
X15027206Y-13051960D01*
X15027206Y-13051960D02*
X15017682Y-13042436D01*
X15198634Y-12861484D02*
X15331967Y-12861484D01*
X15331967Y-12861484D02*
X15246253Y-13061484D01*
X15398634Y-12861484D02*
X15398634Y-12899579D01*
X15474825Y-12861484D02*
X15474825Y-12899579D01*
X15770063Y-13137674D02*
X15760539Y-13128150D01*
X15760539Y-13128150D02*
X15741491Y-13099579D01*
X15741491Y-13099579D02*
X15731968Y-13080531D01*
X15731968Y-13080531D02*
X15722444Y-13051960D01*
X15722444Y-13051960D02*
X15712920Y-13004341D01*
X15712920Y-13004341D02*
X15712920Y-12966246D01*
X15712920Y-12966246D02*
X15722444Y-12918627D01*
X15722444Y-12918627D02*
X15731968Y-12890055D01*
X15731968Y-12890055D02*
X15741491Y-12871008D01*
X15741491Y-12871008D02*
X15760539Y-12842436D01*
X15760539Y-12842436D02*
X15770063Y-12832912D01*
X15827206Y-12861484D02*
X15951015Y-12861484D01*
X15951015Y-12861484D02*
X15884348Y-12937674D01*
X15884348Y-12937674D02*
X15912920Y-12937674D01*
X15912920Y-12937674D02*
X15931968Y-12947198D01*
X15931968Y-12947198D02*
X15941491Y-12956722D01*
X15941491Y-12956722D02*
X15951015Y-12975769D01*
X15951015Y-12975769D02*
X15951015Y-13023388D01*
X15951015Y-13023388D02*
X15941491Y-13042436D01*
X15941491Y-13042436D02*
X15931968Y-13051960D01*
X15931968Y-13051960D02*
X15912920Y-13061484D01*
X15912920Y-13061484D02*
X15855777Y-13061484D01*
X15855777Y-13061484D02*
X15836729Y-13051960D01*
X15836729Y-13051960D02*
X15827206Y-13042436D01*
X16017682Y-12861484D02*
X16141491Y-12861484D01*
X16141491Y-12861484D02*
X16074825Y-12937674D01*
X16074825Y-12937674D02*
X16103396Y-12937674D01*
X16103396Y-12937674D02*
X16122444Y-12947198D01*
X16122444Y-12947198D02*
X16131968Y-12956722D01*
X16131968Y-12956722D02*
X16141491Y-12975769D01*
X16141491Y-12975769D02*
X16141491Y-13023388D01*
X16141491Y-13023388D02*
X16131968Y-13042436D01*
X16131968Y-13042436D02*
X16122444Y-13051960D01*
X16122444Y-13051960D02*
X16103396Y-13061484D01*
X16103396Y-13061484D02*
X16046253Y-13061484D01*
X16046253Y-13061484D02*
X16027206Y-13051960D01*
X16027206Y-13051960D02*
X16017682Y-13042436D01*
X16379587Y-13061484D02*
X16379587Y-12861484D01*
X16465301Y-13061484D02*
X16465301Y-12956722D01*
X16465301Y-12956722D02*
X16455777Y-12937674D01*
X16455777Y-12937674D02*
X16436730Y-12928150D01*
X16436730Y-12928150D02*
X16408158Y-12928150D01*
X16408158Y-12928150D02*
X16389110Y-12937674D01*
X16389110Y-12937674D02*
X16379587Y-12947198D01*
X16589110Y-13061484D02*
X16570063Y-13051960D01*
X16570063Y-13051960D02*
X16560539Y-13042436D01*
X16560539Y-13042436D02*
X16551015Y-13023388D01*
X16551015Y-13023388D02*
X16551015Y-12966246D01*
X16551015Y-12966246D02*
X16560539Y-12947198D01*
X16560539Y-12947198D02*
X16570063Y-12937674D01*
X16570063Y-12937674D02*
X16589110Y-12928150D01*
X16589110Y-12928150D02*
X16617682Y-12928150D01*
X16617682Y-12928150D02*
X16636730Y-12937674D01*
X16636730Y-12937674D02*
X16646253Y-12947198D01*
X16646253Y-12947198D02*
X16655777Y-12966246D01*
X16655777Y-12966246D02*
X16655777Y-13023388D01*
X16655777Y-13023388D02*
X16646253Y-13042436D01*
X16646253Y-13042436D02*
X16636730Y-13051960D01*
X16636730Y-13051960D02*
X16617682Y-13061484D01*
X16617682Y-13061484D02*
X16589110Y-13061484D01*
X16770063Y-13061484D02*
X16751015Y-13051960D01*
X16751015Y-13051960D02*
X16741491Y-13032912D01*
X16741491Y-13032912D02*
X16741491Y-12861484D01*
X16922444Y-13051960D02*
X16903396Y-13061484D01*
X16903396Y-13061484D02*
X16865301Y-13061484D01*
X16865301Y-13061484D02*
X16846253Y-13051960D01*
X16846253Y-13051960D02*
X16836730Y-13032912D01*
X16836730Y-13032912D02*
X16836730Y-12956722D01*
X16836730Y-12956722D02*
X16846253Y-12937674D01*
X16846253Y-12937674D02*
X16865301Y-12928150D01*
X16865301Y-12928150D02*
X16903396Y-12928150D01*
X16903396Y-12928150D02*
X16922444Y-12937674D01*
X16922444Y-12937674D02*
X16931968Y-12956722D01*
X16931968Y-12956722D02*
X16931968Y-12975769D01*
X16931968Y-12975769D02*
X16836730Y-12994817D01*
X17008158Y-13051960D02*
X17027206Y-13061484D01*
X17027206Y-13061484D02*
X17065301Y-13061484D01*
X17065301Y-13061484D02*
X17084349Y-13051960D01*
X17084349Y-13051960D02*
X17093873Y-13032912D01*
X17093873Y-13032912D02*
X17093873Y-13023388D01*
X17093873Y-13023388D02*
X17084349Y-13004341D01*
X17084349Y-13004341D02*
X17065301Y-12994817D01*
X17065301Y-12994817D02*
X17036730Y-12994817D01*
X17036730Y-12994817D02*
X17017682Y-12985293D01*
X17017682Y-12985293D02*
X17008158Y-12966246D01*
X17008158Y-12966246D02*
X17008158Y-12956722D01*
X17008158Y-12956722D02*
X17017682Y-12937674D01*
X17017682Y-12937674D02*
X17036730Y-12928150D01*
X17036730Y-12928150D02*
X17065301Y-12928150D01*
X17065301Y-12928150D02*
X17084349Y-12937674D01*
X17160539Y-13137674D02*
X17170063Y-13128150D01*
X17170063Y-13128150D02*
X17189111Y-13099579D01*
X17189111Y-13099579D02*
X17198634Y-13080531D01*
X17198634Y-13080531D02*
X17208158Y-13051960D01*
X17208158Y-13051960D02*
X17217682Y-13004341D01*
X17217682Y-13004341D02*
X17217682Y-12966246D01*
X17217682Y-12966246D02*
X17208158Y-12918627D01*
X17208158Y-12918627D02*
X17198634Y-12890055D01*
X17198634Y-12890055D02*
X17189111Y-12871008D01*
X17189111Y-12871008D02*
X17170063Y-12842436D01*
X17170063Y-12842436D02*
X17160539Y-12832912D01*
M02*
