%TF.GenerationSoftware,KiCad,Pcbnew,7.0.9-7.0.9~ubuntu22.04.1*%
%TF.CreationDate,2023-12-12T12:02:25+02:00*%
%TF.ProjectId,Haply_EE,4861706c-795f-4454-952e-6b696361645f,rev?*%
%TF.SameCoordinates,Original*%
%TF.FileFunction,Soldermask,Bot*%
%TF.FilePolarity,Negative*%
%FSLAX46Y46*%
G04 Gerber Fmt 4.6, Leading zero omitted, Abs format (unit mm)*
G04 Created by KiCad (PCBNEW 7.0.9-7.0.9~ubuntu22.04.1) date 2023-12-12 12:02:25*
%MOMM*%
%LPD*%
G01*
G04 APERTURE LIST*
G04 Aperture macros list*
%AMRoundRect*
0 Rectangle with rounded corners*
0 $1 Rounding radius*
0 $2 $3 $4 $5 $6 $7 $8 $9 X,Y pos of 4 corners*
0 Add a 4 corners polygon primitive as box body*
4,1,4,$2,$3,$4,$5,$6,$7,$8,$9,$2,$3,0*
0 Add four circle primitives for the rounded corners*
1,1,$1+$1,$2,$3*
1,1,$1+$1,$4,$5*
1,1,$1+$1,$6,$7*
1,1,$1+$1,$8,$9*
0 Add four rect primitives between the rounded corners*
20,1,$1+$1,$2,$3,$4,$5,0*
20,1,$1+$1,$4,$5,$6,$7,0*
20,1,$1+$1,$6,$7,$8,$9,0*
20,1,$1+$1,$8,$9,$2,$3,0*%
G04 Aperture macros list end*
%ADD10C,0.650000*%
%ADD11C,0.900000*%
%ADD12R,2.000000X0.900000*%
%ADD13R,0.900000X2.000000*%
%ADD14R,5.000000X5.000000*%
%ADD15RoundRect,0.381000X0.381000X-0.762000X0.381000X0.762000X-0.381000X0.762000X-0.381000X-0.762000X0*%
%ADD16RoundRect,0.050000X0.450000X0.950000X-0.450000X0.950000X-0.450000X-0.950000X0.450000X-0.950000X0*%
G04 APERTURE END LIST*
D10*
%TO.C,J2*%
X128712000Y-118356000D03*
X134492000Y-118356000D03*
%TD*%
D11*
%TO.C,SW1*%
X135375000Y-96415000D03*
X132375000Y-96415000D03*
%TD*%
D12*
%TO.C,MOD1*%
X140400000Y-96230000D03*
X140400000Y-97500000D03*
X140400000Y-98770000D03*
X140400000Y-100040000D03*
X140400000Y-101310000D03*
X140400000Y-102580000D03*
X140400000Y-103850000D03*
X140400000Y-105120000D03*
X140400000Y-106390000D03*
X140400000Y-107660000D03*
X140400000Y-108930000D03*
X140400000Y-110200000D03*
X140400000Y-111470000D03*
X140400000Y-112740000D03*
D13*
X137615000Y-113740000D03*
X136345000Y-113740000D03*
X135075000Y-113740000D03*
X133805000Y-113740000D03*
X132535000Y-113740000D03*
X131265000Y-113740000D03*
X129995000Y-113740000D03*
X128725000Y-113740000D03*
X127455000Y-113740000D03*
X126185000Y-113740000D03*
D12*
X123400000Y-112740000D03*
X123400000Y-111470000D03*
X123400000Y-110200000D03*
X123400000Y-108930000D03*
X123400000Y-107660000D03*
X123400000Y-106390000D03*
X123400000Y-105120000D03*
X123400000Y-103850000D03*
X123400000Y-102580000D03*
X123400000Y-101310000D03*
X123400000Y-100040000D03*
X123400000Y-98770000D03*
X123400000Y-97500000D03*
X123400000Y-96230000D03*
D14*
X132900000Y-102730000D03*
%TD*%
D15*
%TO.C,BAT1*%
X122850000Y-121875000D03*
X140850000Y-121875000D03*
%TD*%
D16*
%TO.C,j3*%
X138310000Y-121412000D03*
X135810000Y-121412000D03*
X133310000Y-121412000D03*
X130810000Y-121412000D03*
X128310000Y-121412000D03*
X125810000Y-121412000D03*
%TD*%
M02*
