%TF.GenerationSoftware,KiCad,Pcbnew,7.0.9-7.0.9~ubuntu22.04.1*%
%TF.CreationDate,2023-12-12T12:02:25+02:00*%
%TF.ProjectId,Haply_EE,4861706c-795f-4454-952e-6b696361645f,rev?*%
%TF.SameCoordinates,Original*%
%TF.FileFunction,Copper,L1,Top*%
%TF.FilePolarity,Positive*%
%FSLAX46Y46*%
G04 Gerber Fmt 4.6, Leading zero omitted, Abs format (unit mm)*
G04 Created by KiCad (PCBNEW 7.0.9-7.0.9~ubuntu22.04.1) date 2023-12-12 12:02:25*
%MOMM*%
%LPD*%
G01*
G04 APERTURE LIST*
G04 Aperture macros list*
%AMRoundRect*
0 Rectangle with rounded corners*
0 $1 Rounding radius*
0 $2 $3 $4 $5 $6 $7 $8 $9 X,Y pos of 4 corners*
0 Add a 4 corners polygon primitive as box body*
4,1,4,$2,$3,$4,$5,$6,$7,$8,$9,$2,$3,0*
0 Add four circle primitives for the rounded corners*
1,1,$1+$1,$2,$3*
1,1,$1+$1,$4,$5*
1,1,$1+$1,$6,$7*
1,1,$1+$1,$8,$9*
0 Add four rect primitives between the rounded corners*
20,1,$1+$1,$2,$3,$4,$5,0*
20,1,$1+$1,$4,$5,$6,$7,0*
20,1,$1+$1,$6,$7,$8,$9,0*
20,1,$1+$1,$8,$9,$2,$3,0*%
G04 Aperture macros list end*
%TA.AperFunction,SMDPad,CuDef*%
%ADD10RoundRect,0.200000X0.275000X-0.200000X0.275000X0.200000X-0.275000X0.200000X-0.275000X-0.200000X0*%
%TD*%
%TA.AperFunction,SMDPad,CuDef*%
%ADD11RoundRect,0.200000X-0.200000X-0.275000X0.200000X-0.275000X0.200000X0.275000X-0.200000X0.275000X0*%
%TD*%
%TA.AperFunction,SMDPad,CuDef*%
%ADD12RoundRect,0.225000X0.225000X0.250000X-0.225000X0.250000X-0.225000X-0.250000X0.225000X-0.250000X0*%
%TD*%
%TA.AperFunction,SMDPad,CuDef*%
%ADD13RoundRect,0.150000X-0.150000X-0.425000X0.150000X-0.425000X0.150000X0.425000X-0.150000X0.425000X0*%
%TD*%
%TA.AperFunction,SMDPad,CuDef*%
%ADD14RoundRect,0.075000X-0.075000X-0.500000X0.075000X-0.500000X0.075000X0.500000X-0.075000X0.500000X0*%
%TD*%
%TA.AperFunction,SMDPad,CuDef*%
%ADD15RoundRect,0.250000X-0.840000X-0.750000X0.840000X-0.750000X0.840000X0.750000X-0.840000X0.750000X0*%
%TD*%
%TA.AperFunction,SMDPad,CuDef*%
%ADD16RoundRect,0.218750X0.218750X0.256250X-0.218750X0.256250X-0.218750X-0.256250X0.218750X-0.256250X0*%
%TD*%
%TA.AperFunction,SMDPad,CuDef*%
%ADD17RoundRect,0.225000X0.250000X-0.225000X0.250000X0.225000X-0.250000X0.225000X-0.250000X-0.225000X0*%
%TD*%
%TA.AperFunction,SMDPad,CuDef*%
%ADD18RoundRect,0.200000X0.200000X0.275000X-0.200000X0.275000X-0.200000X-0.275000X0.200000X-0.275000X0*%
%TD*%
%TA.AperFunction,SMDPad,CuDef*%
%ADD19RoundRect,0.200000X-0.275000X0.200000X-0.275000X-0.200000X0.275000X-0.200000X0.275000X0.200000X0*%
%TD*%
%TA.AperFunction,SMDPad,CuDef*%
%ADD20R,1.500000X2.200000*%
%TD*%
%TA.AperFunction,SMDPad,CuDef*%
%ADD21R,3.800000X2.200000*%
%TD*%
%TA.AperFunction,SMDPad,CuDef*%
%ADD22RoundRect,0.225000X-0.225000X-0.250000X0.225000X-0.250000X0.225000X0.250000X-0.225000X0.250000X0*%
%TD*%
%TA.AperFunction,SMDPad,CuDef*%
%ADD23R,0.650000X0.400000*%
%TD*%
%TA.AperFunction,SMDPad,CuDef*%
%ADD24RoundRect,0.150000X0.512500X0.150000X-0.512500X0.150000X-0.512500X-0.150000X0.512500X-0.150000X0*%
%TD*%
%TA.AperFunction,SMDPad,CuDef*%
%ADD25RoundRect,0.150000X0.150000X-0.825000X0.150000X0.825000X-0.150000X0.825000X-0.150000X-0.825000X0*%
%TD*%
%TA.AperFunction,SMDPad,CuDef*%
%ADD26R,1.000000X0.800000*%
%TD*%
%TA.AperFunction,SMDPad,CuDef*%
%ADD27R,0.700000X1.500000*%
%TD*%
%TA.AperFunction,SMDPad,CuDef*%
%ADD28R,0.300000X0.500000*%
%TD*%
%TA.AperFunction,SMDPad,CuDef*%
%ADD29R,0.500000X0.300000*%
%TD*%
%TA.AperFunction,SMDPad,CuDef*%
%ADD30RoundRect,0.250000X0.650000X-1.000000X0.650000X1.000000X-0.650000X1.000000X-0.650000X-1.000000X0*%
%TD*%
%TA.AperFunction,ViaPad*%
%ADD31C,0.800000*%
%TD*%
%TA.AperFunction,Conductor*%
%ADD32C,0.100000*%
%TD*%
G04 APERTURE END LIST*
D10*
%TO.P,R6,1*%
%TO.N,GND*%
X123698000Y-122046000D03*
%TO.P,R6,2*%
%TO.N,Net-(J2-CC1)*%
X123698000Y-120396000D03*
%TD*%
D11*
%TO.P,R4,1*%
%TO.N,Net-(U3-PROG)*%
X123952000Y-111506000D03*
%TO.P,R4,2*%
%TO.N,GND*%
X125602000Y-111506000D03*
%TD*%
D12*
%TO.P,C8,1*%
%TO.N,GND*%
X138300000Y-103500000D03*
%TO.P,C8,2*%
%TO.N,/3V3*%
X136750000Y-103500000D03*
%TD*%
D13*
%TO.P,J2,A1,GND*%
%TO.N,GND*%
X128402000Y-117281000D03*
%TO.P,J2,A4,VBUS*%
%TO.N,VCC*%
X129202000Y-117281000D03*
D14*
%TO.P,J2,A5,CC1*%
%TO.N,Net-(J2-CC1)*%
X130352000Y-117281000D03*
%TO.P,J2,A6,D+*%
%TO.N,Net-(U5-UD+)*%
X131352000Y-117281000D03*
%TO.P,J2,A7,D-*%
%TO.N,Net-(U5-UD-)*%
X131852000Y-117281000D03*
%TO.P,J2,A8,SBU1*%
%TO.N,unconnected-(J2-SBU1-PadA8)*%
X132852000Y-117281000D03*
D13*
%TO.P,J2,A9,VBUS*%
%TO.N,VCC*%
X134002000Y-117281000D03*
%TO.P,J2,A12,GND*%
%TO.N,GND*%
X134802000Y-117281000D03*
%TO.P,J2,B1,GND*%
X134802000Y-117281000D03*
%TO.P,J2,B4,VBUS*%
%TO.N,VCC*%
X134002000Y-117281000D03*
D14*
%TO.P,J2,B5,CC2*%
%TO.N,Net-(J2-CC2)*%
X133352000Y-117281000D03*
%TO.P,J2,B6,D+*%
%TO.N,Net-(U5-UD+)*%
X132352000Y-117281000D03*
%TO.P,J2,B7,D-*%
%TO.N,Net-(U5-UD-)*%
X130852000Y-117281000D03*
%TO.P,J2,B8,SBU2*%
%TO.N,unconnected-(J2-SBU2-PadB8)*%
X129852000Y-117281000D03*
D13*
%TO.P,J2,B9,VBUS*%
%TO.N,VCC*%
X129202000Y-117281000D03*
%TO.P,J2,B12,GND*%
%TO.N,GND*%
X128402000Y-117281000D03*
D15*
%TO.P,J2,S1,SHIELD*%
X126492000Y-117856000D03*
X126492000Y-121786000D03*
X136712000Y-117856000D03*
X136712000Y-121786000D03*
%TD*%
D16*
%TO.P,D2,1,K*%
%TO.N,Net-(D2-K)*%
X129365000Y-114960000D03*
%TO.P,D2,2,A*%
%TO.N,Net-(D2-A)*%
X127790000Y-114960000D03*
%TD*%
D17*
%TO.P,C5,1*%
%TO.N,Net-(C5-Pad1)*%
X129900000Y-109950000D03*
%TO.P,C5,2*%
%TO.N,GND*%
X129900000Y-108400000D03*
%TD*%
D18*
%TO.P,R5,1*%
%TO.N,Net-(D2-K)*%
X129430000Y-113080000D03*
%TO.P,R5,2*%
%TO.N,VCC*%
X127780000Y-113080000D03*
%TD*%
D10*
%TO.P,R7,1*%
%TO.N,GND*%
X123698000Y-118364000D03*
%TO.P,R7,2*%
%TO.N,Net-(J2-CC2)*%
X123698000Y-116714000D03*
%TD*%
%TO.P,R2,1*%
%TO.N,/3V3*%
X128600000Y-97025000D03*
%TO.P,R2,2*%
%TO.N,/SDA*%
X128600000Y-95375000D03*
%TD*%
D19*
%TO.P,R1,1*%
%TO.N,VCC*%
X135636000Y-104902000D03*
%TO.P,R1,2*%
%TO.N,GND*%
X135636000Y-106552000D03*
%TD*%
%TO.P,R3,1*%
%TO.N,/SCL*%
X137160000Y-100267000D03*
%TO.P,R3,2*%
%TO.N,/3V3*%
X137160000Y-101917000D03*
%TD*%
D20*
%TO.P,U2,1,GND*%
%TO.N,GND*%
X123300000Y-109250000D03*
%TO.P,U2,2,VOUT*%
%TO.N,Net-(C5-Pad1)*%
X125600000Y-109250000D03*
%TO.P,U2,3,VIN*%
%TO.N,Net-(D1-K)*%
X127900000Y-109250000D03*
D21*
%TO.P,U2,4,VOUT*%
%TO.N,Net-(C5-Pad1)*%
X125600000Y-102950000D03*
%TD*%
D17*
%TO.P,C3,1*%
%TO.N,Net-(D1-K)*%
X127254000Y-100356000D03*
%TO.P,C3,2*%
%TO.N,GND*%
X127254000Y-98806000D03*
%TD*%
D22*
%TO.P,C2,1*%
%TO.N,Net-(Q1-D)*%
X127870000Y-111490000D03*
%TO.P,C2,2*%
%TO.N,GND*%
X129420000Y-111490000D03*
%TD*%
D17*
%TO.P,C1,1*%
%TO.N,GND*%
X139446000Y-118136000D03*
%TO.P,C1,2*%
%TO.N,Net-(U5-V3)*%
X139446000Y-116586000D03*
%TD*%
D23*
%TO.P,Q2,1,E1*%
%TO.N,/RTS*%
X137668000Y-105156000D03*
%TO.P,Q2,2,B1*%
%TO.N,/DTR*%
X137668000Y-105806000D03*
%TO.P,Q2,3,C2*%
%TO.N,/GPIO_0*%
X137668000Y-106456000D03*
%TO.P,Q2,4,E2*%
%TO.N,/DTR*%
X139568000Y-106456000D03*
%TO.P,Q2,5,B2*%
%TO.N,/RTS*%
X139568000Y-105806000D03*
%TO.P,Q2,6,C1*%
%TO.N,/EN*%
X139568000Y-105156000D03*
%TD*%
D24*
%TO.P,U3,1,STAT*%
%TO.N,Net-(D2-A)*%
X125730000Y-115062000D03*
%TO.P,U3,2,V_{SS}*%
%TO.N,GND*%
X125730000Y-114112000D03*
%TO.P,U3,3,V_{BAT}*%
%TO.N,Net-(Q1-D)*%
X125730000Y-113162000D03*
%TO.P,U3,4,V_{DD}*%
%TO.N,VCC*%
X123455000Y-113162000D03*
%TO.P,U3,5,PROG*%
%TO.N,Net-(U3-PROG)*%
X123455000Y-115062000D03*
%TD*%
D25*
%TO.P,U5,1,GND*%
%TO.N,GND*%
X131445000Y-113981000D03*
%TO.P,U5,2,TXD*%
%TO.N,/CH_TX*%
X132715000Y-113981000D03*
%TO.P,U5,3,RXD*%
%TO.N,/CH_RX*%
X133985000Y-113981000D03*
%TO.P,U5,4,V3*%
%TO.N,Net-(U5-V3)*%
X135255000Y-113981000D03*
%TO.P,U5,5,UD+*%
%TO.N,Net-(U5-UD+)*%
X136525000Y-113981000D03*
%TO.P,U5,6,UD-*%
%TO.N,Net-(U5-UD-)*%
X137795000Y-113981000D03*
%TO.P,U5,7,NC*%
%TO.N,unconnected-(U5-NC-Pad7)*%
X139065000Y-113981000D03*
%TO.P,U5,8,NC*%
%TO.N,unconnected-(U5-NC-Pad8)*%
X140335000Y-113981000D03*
%TO.P,U5,9,~{CTS}*%
%TO.N,unconnected-(U5-~{CTS}-Pad9)*%
X140335000Y-109031000D03*
%TO.P,U5,10,~{DSR}*%
%TO.N,unconnected-(U5-~{DSR}-Pad10)*%
X139065000Y-109031000D03*
%TO.P,U5,11,~{RI}*%
%TO.N,unconnected-(U5-~{RI}-Pad11)*%
X137795000Y-109031000D03*
%TO.P,U5,12,~{DCD}*%
%TO.N,unconnected-(U5-~{DCD}-Pad12)*%
X136525000Y-109031000D03*
%TO.P,U5,13,~{DTR}*%
%TO.N,/DTR*%
X135255000Y-109031000D03*
%TO.P,U5,14,~{RTS}*%
%TO.N,/RTS*%
X133985000Y-109031000D03*
%TO.P,U5,15,R232*%
%TO.N,unconnected-(U5-R232-Pad15)*%
X132715000Y-109031000D03*
%TO.P,U5,16,VCC*%
%TO.N,VCC*%
X131445000Y-109031000D03*
%TD*%
D26*
%TO.P,SW1,*%
%TO.N,*%
X137525000Y-97525000D03*
X137525000Y-95315000D03*
X130225000Y-97525000D03*
X130225000Y-95315000D03*
D27*
%TO.P,SW1,1*%
%TO.N,Net-(C5-Pad1)*%
X136125000Y-98175000D03*
%TO.P,SW1,2*%
%TO.N,/3V3*%
X133125000Y-98175000D03*
%TO.P,SW1,3*%
%TO.N,N/C*%
X131625000Y-98175000D03*
%TD*%
D28*
%TO.P,U1,1,PIN1*%
%TO.N,unconnected-(U1-PIN1-Pad1)*%
X130592000Y-100037500D03*
D29*
%TO.P,U1,2,GND*%
%TO.N,GND*%
X130579500Y-100850000D03*
%TO.P,U1,3,VDD*%
%TO.N,/3V3*%
X130579500Y-101350000D03*
%TO.P,U1,4,BOOT_LOAD*%
X130579500Y-101850000D03*
%TO.P,U1,5,PS1*%
%TO.N,GND*%
X130579500Y-102350000D03*
D28*
%TO.P,U1,6,PS0*%
X130592000Y-103162500D03*
%TO.P,U1,7,PIN7*%
%TO.N,unconnected-(U1-PIN7-Pad7)*%
X131092000Y-103162500D03*
%TO.P,U1,8,PIN8*%
%TO.N,unconnected-(U1-PIN8-Pad8)*%
X131592000Y-103162500D03*
%TO.P,U1,9,CAP*%
%TO.N,Net-(U1-CAP)*%
X132092000Y-103162500D03*
%TO.P,U1,10,BL_IND*%
%TO.N,GND*%
X132592000Y-103162500D03*
%TO.P,U1,11,RESET*%
%TO.N,/3V3*%
X133092000Y-103162500D03*
%TO.P,U1,12,PIN12*%
%TO.N,unconnected-(U1-PIN12-Pad12)*%
X133592000Y-103162500D03*
%TO.P,U1,13,PIN13*%
%TO.N,unconnected-(U1-PIN13-Pad13)*%
X134092000Y-103162500D03*
%TO.P,U1,14,INT*%
%TO.N,unconnected-(U1-INT-Pad14)*%
X134592000Y-103162500D03*
%TO.P,U1,15,PIN15*%
%TO.N,GND*%
X135092000Y-103162500D03*
D29*
%TO.P,U1,16,PIN16*%
X135104500Y-102350000D03*
%TO.P,U1,17,COM3*%
X135104500Y-101850000D03*
%TO.P,U1,18,COM2*%
X135104500Y-101350000D03*
%TO.P,U1,19,COM1*%
%TO.N,/SDA*%
X135104500Y-100850000D03*
D28*
%TO.P,U1,20,COM0*%
%TO.N,/SCL*%
X135092000Y-100037500D03*
%TO.P,U1,21,PIN21*%
%TO.N,unconnected-(U1-PIN21-Pad21)*%
X134592000Y-100037500D03*
%TO.P,U1,22,PIN22*%
%TO.N,unconnected-(U1-PIN22-Pad22)*%
X134092000Y-100037500D03*
%TO.P,U1,23,PIN23*%
%TO.N,unconnected-(U1-PIN23-Pad23)*%
X133592000Y-100037500D03*
%TO.P,U1,24,PIN24*%
%TO.N,unconnected-(U1-PIN24-Pad24)*%
X133092000Y-100037500D03*
%TO.P,U1,25,GNDIO*%
%TO.N,GND*%
X132592000Y-100037500D03*
%TO.P,U1,26,XOUT32*%
%TO.N,unconnected-(U1-XOUT32-Pad26)*%
X132092000Y-100037500D03*
%TO.P,U1,27,XIN32*%
%TO.N,unconnected-(U1-XIN32-Pad27)*%
X131592000Y-100037500D03*
%TO.P,U1,28,VDDIO*%
%TO.N,/3V3*%
X131092000Y-100037500D03*
%TD*%
D17*
%TO.P,C4,1*%
%TO.N,Net-(U1-CAP)*%
X127000000Y-96975000D03*
%TO.P,C4,2*%
%TO.N,GND*%
X127000000Y-95425000D03*
%TD*%
D30*
%TO.P,D1,1,K*%
%TO.N,Net-(D1-K)*%
X124380000Y-100097500D03*
%TO.P,D1,2,A*%
%TO.N,VCC*%
X124380000Y-96097500D03*
%TD*%
D24*
%TO.P,Q1,1,D*%
%TO.N,Net-(Q1-D)*%
X133085000Y-106868000D03*
%TO.P,Q1,2,G*%
%TO.N,VCC*%
X133085000Y-104968000D03*
%TO.P,Q1,3,S*%
%TO.N,Net-(D1-K)*%
X130810000Y-105918000D03*
%TD*%
D31*
%TO.N,/SCL*%
X137108600Y-98614200D03*
%TO.N,GND*%
X138060000Y-115534500D03*
X131195200Y-115711400D03*
X130400800Y-111462900D03*
X134687700Y-107328600D03*
X138805700Y-95822100D03*
X126688400Y-111451000D03*
X122744500Y-95145000D03*
X131500000Y-107000000D03*
X134145700Y-98902900D03*
X129104100Y-99677200D03*
X122616100Y-118423000D03*
X129522400Y-103801300D03*
X136042100Y-102250000D03*
X139512200Y-119159000D03*
X133952500Y-115534500D03*
X127058400Y-120258100D03*
X125380200Y-98234900D03*
X137061600Y-120258100D03*
X124741800Y-122018400D03*
%TO.N,VCC*%
X130000000Y-107000000D03*
X129000000Y-119500000D03*
%TO.N,/3V3*%
X138500000Y-101900000D03*
X138712500Y-97534200D03*
%TO.N,/EN*%
X138630000Y-98804200D03*
%TO.N,/GPIO_0*%
X137539500Y-110753800D03*
%TO.N,/CH_TX*%
X125834500Y-100836800D03*
X132948900Y-111988800D03*
%TO.N,/CH_RX*%
X133042000Y-111086800D03*
%TO.N,/SDA*%
X128694300Y-98792500D03*
%TO.N,Net-(Q1-D)*%
X139448400Y-121485600D03*
%TO.N,Net-(C5-Pad1)*%
X128635500Y-101936800D03*
X136042100Y-100242800D03*
%TD*%
D32*
%TO.N,Net-(D1-K)*%
X128970500Y-105773800D02*
X128970500Y-102382300D01*
X129187400Y-102165400D02*
X129187400Y-101708200D01*
X129114700Y-105918000D02*
X128970500Y-105773800D01*
X127835200Y-100356000D02*
X127254000Y-100356000D01*
X128030000Y-109322000D02*
X128030000Y-108070100D01*
X129187400Y-101708200D02*
X127835200Y-100356000D01*
X126995500Y-100097500D02*
X124380000Y-100097500D01*
X127254000Y-100356000D02*
X126995500Y-100097500D01*
X129114700Y-105918000D02*
X130810000Y-105918000D01*
X128030000Y-108070100D02*
X129114700Y-106985400D01*
X129114700Y-106985400D02*
X129114700Y-105918000D01*
X128970500Y-102382300D02*
X129187400Y-102165400D01*
%TO.N,/SCL*%
X135092000Y-100439400D02*
X135389600Y-100439400D01*
X137108600Y-100215600D02*
X137160000Y-100267000D01*
X136610500Y-100816500D02*
X137160000Y-100267000D01*
X135766700Y-100816500D02*
X136610500Y-100816500D01*
X135092000Y-100037500D02*
X135092000Y-100439400D01*
X135389600Y-100439400D02*
X135766700Y-100816500D01*
X137108600Y-98614200D02*
X137108600Y-100215600D01*
%TO.N,GND*%
X129960200Y-100850000D02*
X129960200Y-101971600D01*
X122616100Y-118423000D02*
X123639000Y-118423000D01*
X135092000Y-102760600D02*
X134811300Y-102760600D01*
X125730000Y-114112000D02*
X125578200Y-114112000D01*
X134859400Y-107328600D02*
X135636000Y-106552000D01*
X130579500Y-100850000D02*
X130177600Y-100850000D01*
X137448000Y-104352000D02*
X131531500Y-104352000D01*
X130592000Y-103412500D02*
X130592000Y-103162500D01*
X129960200Y-101971600D02*
X130338600Y-102350000D01*
X134702600Y-102350000D02*
X134702600Y-101850000D01*
X139446000Y-119092800D02*
X139446000Y-118136000D01*
X126492000Y-117856000D02*
X127067000Y-117281000D01*
X130000000Y-108000000D02*
X130500000Y-108000000D01*
X130400800Y-111462900D02*
X129447100Y-111462900D01*
X127058400Y-118422400D02*
X126492000Y-117856000D01*
X132181400Y-102350000D02*
X132592000Y-102760600D01*
X130579500Y-102350000D02*
X130981400Y-102350000D01*
X127058400Y-120258100D02*
X127058400Y-118422400D01*
X127067000Y-117281000D02*
X128402000Y-117281000D01*
X123430000Y-109322000D02*
X124331900Y-109322000D01*
X131445000Y-115461600D02*
X131195200Y-115711400D01*
X135092000Y-103162500D02*
X135092000Y-102760600D01*
X129522400Y-103801300D02*
X130355100Y-103801300D01*
X124873200Y-110765200D02*
X124331900Y-110223900D01*
X133952500Y-115534500D02*
X134802000Y-116384000D01*
X126492000Y-121786000D02*
X126492000Y-120824500D01*
X130981400Y-102350000D02*
X132181400Y-102350000D01*
X132592000Y-103162500D02*
X132592000Y-102760600D01*
X134145700Y-98902900D02*
X133413000Y-99635600D01*
X126688400Y-111451000D02*
X125657000Y-111451000D01*
X131445000Y-113981000D02*
X131445000Y-115461600D01*
X136712000Y-120606100D02*
X136712000Y-121786000D01*
X126492000Y-120824500D02*
X127058400Y-120258100D01*
X130355100Y-103801300D02*
X130592000Y-103564400D01*
X129960200Y-100850000D02*
X130177600Y-100850000D01*
X125578200Y-114112000D02*
X124873200Y-113407000D01*
X137060000Y-120258100D02*
X136712000Y-119910100D01*
X123639000Y-118423000D02*
X123698000Y-118364000D01*
X129960200Y-100533300D02*
X129104100Y-99677200D01*
X136042100Y-102250000D02*
X135606400Y-102250000D01*
X125692600Y-97922500D02*
X126370500Y-97922500D01*
X129960200Y-100850000D02*
X129960200Y-100533300D01*
X126370500Y-97922500D02*
X126370500Y-96054500D01*
X130592000Y-103162500D02*
X130592000Y-103564400D01*
X123725600Y-122018400D02*
X123698000Y-122046000D01*
X124331900Y-110223900D02*
X124331900Y-109322000D01*
X134802000Y-116384000D02*
X134802000Y-117281000D01*
X134702600Y-102651900D02*
X134702600Y-102350000D01*
X125602000Y-111506000D02*
X124873200Y-111506000D01*
X126370500Y-97922500D02*
X127254000Y-98806000D01*
X130338600Y-102350000D02*
X130579500Y-102350000D01*
X137060000Y-120258100D02*
X136712000Y-120606100D01*
X126370500Y-96054500D02*
X127000000Y-95425000D01*
X134687700Y-107328600D02*
X134859400Y-107328600D01*
X136712000Y-119910100D02*
X136712000Y-117856000D01*
X131531500Y-104352000D02*
X130592000Y-103412500D01*
X135104500Y-101850000D02*
X134702600Y-101850000D01*
X139512200Y-119159000D02*
X139446000Y-119092800D01*
X125657000Y-111451000D02*
X125602000Y-111506000D01*
X135104500Y-102350000D02*
X135506400Y-102350000D01*
X125380200Y-98234900D02*
X125692600Y-97922500D01*
X124873200Y-111506000D02*
X124873200Y-110765200D01*
X132592000Y-100037500D02*
X132592000Y-99635600D01*
X130500000Y-108000000D02*
X131500000Y-107000000D01*
X134811300Y-102760600D02*
X134702600Y-102651900D01*
X124741800Y-122018400D02*
X123725600Y-122018400D01*
X134702600Y-101850000D02*
X134702600Y-101350000D01*
X135104500Y-101350000D02*
X134702600Y-101350000D01*
X135606400Y-102250000D02*
X135506400Y-102350000D01*
X135104500Y-102350000D02*
X134702600Y-102350000D01*
X138300000Y-103500000D02*
X137448000Y-104352000D01*
X129447100Y-111462900D02*
X129420000Y-111490000D01*
X124873200Y-113407000D02*
X124873200Y-111506000D01*
X133413000Y-99635600D02*
X132592000Y-99635600D01*
X137060000Y-120258100D02*
X137061600Y-120258100D01*
%TO.N,VCC*%
X130000000Y-119300000D02*
X130000000Y-119400000D01*
X129202000Y-117856000D02*
X130000000Y-118654000D01*
X130000000Y-118654000D02*
X130000000Y-119300000D01*
X134002000Y-116702000D02*
X133650000Y-116350000D01*
X130000000Y-119300000D02*
X129800000Y-119500000D01*
X129202000Y-117281000D02*
X129202000Y-117856000D01*
X129800000Y-119500000D02*
X129000000Y-119500000D01*
X134002000Y-117281000D02*
X134002000Y-116702000D01*
%TO.N,/3V3*%
X138146100Y-96973100D02*
X135931600Y-96973100D01*
X131532100Y-99076900D02*
X131092000Y-99517000D01*
X133092000Y-103564400D02*
X135100000Y-103564400D01*
X130579500Y-101350000D02*
X130177600Y-101350000D01*
X136750000Y-103500000D02*
X136685600Y-103564400D01*
X133092000Y-103162500D02*
X133092000Y-102760600D01*
X135931600Y-96973100D02*
X135631600Y-97273100D01*
X133092000Y-103162500D02*
X133092000Y-103564400D01*
X135512600Y-103564400D02*
X137160000Y-101917000D01*
X137792200Y-98454500D02*
X138548400Y-97698300D01*
X138548400Y-97534200D02*
X138712500Y-97534200D01*
X131092000Y-99517000D02*
X128600000Y-97025000D01*
X133125000Y-97724000D02*
X133125000Y-97273100D01*
X133125000Y-99076900D02*
X131532100Y-99076900D01*
X136685600Y-103564400D02*
X135100000Y-103564400D01*
X133125000Y-97724000D02*
X133125000Y-98175000D01*
X138548400Y-97698300D02*
X138548400Y-97534200D01*
X137160000Y-101917000D02*
X137792200Y-101284800D01*
X131092000Y-99686500D02*
X131092000Y-99517000D01*
X130579500Y-101350000D02*
X130981400Y-101350000D01*
X130177600Y-101850000D02*
X130177600Y-101350000D01*
X137792200Y-101284800D02*
X137792200Y-98454500D01*
X133092000Y-102760600D02*
X131681400Y-101350000D01*
X130579500Y-101850000D02*
X130177600Y-101850000D01*
X135631600Y-97273100D02*
X133125000Y-97273100D01*
X131681400Y-101350000D02*
X130981400Y-101350000D01*
X138548400Y-97375400D02*
X138146100Y-96973100D01*
X133125000Y-98175000D02*
X133125000Y-99076900D01*
X135100000Y-103564400D02*
X135512600Y-103564400D01*
X138548400Y-97534200D02*
X138548400Y-97375400D01*
X131092000Y-100037500D02*
X131092000Y-99686500D01*
%TO.N,/EN*%
X139091100Y-105156000D02*
X139091100Y-99265300D01*
X139568000Y-105156000D02*
X139091100Y-105156000D01*
X139091100Y-99265300D02*
X138630000Y-98804200D01*
%TO.N,/GPIO_0*%
X137668000Y-106456000D02*
X137191100Y-106456000D01*
X137191100Y-110405400D02*
X137539500Y-110753800D01*
X137191100Y-106456000D02*
X137191100Y-110405400D01*
%TO.N,/CH_TX*%
X132715000Y-113981000D02*
X132715000Y-112222700D01*
X132715000Y-112222700D02*
X132948900Y-111988800D01*
%TO.N,/CH_RX*%
X133985000Y-113981000D02*
X133985000Y-112029800D01*
X133985000Y-112029800D02*
X133042000Y-111086800D01*
%TO.N,/RTS*%
X139568000Y-105806000D02*
X138794900Y-105806000D01*
X138794900Y-105806000D02*
X138144900Y-105156000D01*
X137668000Y-105156000D02*
X138144900Y-105156000D01*
X133985000Y-107182400D02*
X135711800Y-105455600D01*
X136561800Y-105156000D02*
X137668000Y-105156000D01*
X136262200Y-105455600D02*
X136561800Y-105156000D01*
X133985000Y-109031000D02*
X133985000Y-107182400D01*
X135711800Y-105455600D02*
X136262200Y-105455600D01*
%TO.N,/DTR*%
X137668000Y-105806000D02*
X137191100Y-105806000D01*
X138441100Y-105806000D02*
X137668000Y-105806000D01*
X137191100Y-106161400D02*
X137191100Y-105806000D01*
X135255000Y-108097500D02*
X137191100Y-106161400D01*
X139568000Y-106456000D02*
X139091100Y-106456000D01*
X139091100Y-106456000D02*
X138441100Y-105806000D01*
X135255000Y-109031000D02*
X135255000Y-108097500D01*
%TO.N,/SDA*%
X135104500Y-100850000D02*
X134702600Y-100850000D01*
X130433900Y-100548100D02*
X129914700Y-100028900D01*
X127921600Y-96053400D02*
X128600000Y-95375000D01*
X128694300Y-98792500D02*
X128694300Y-98338700D01*
X129914700Y-100028900D02*
X129914700Y-99679900D01*
X129914700Y-99679900D02*
X129027300Y-98792500D01*
X128694300Y-98338700D02*
X127921600Y-97566000D01*
X134400700Y-100548100D02*
X130433900Y-100548100D01*
X129027300Y-98792500D02*
X128694300Y-98792500D01*
X134702600Y-100850000D02*
X134400700Y-100548100D01*
X127921600Y-97566000D02*
X127921600Y-96053400D01*
%TO.N,Net-(U3-PROG)*%
X124272200Y-111826200D02*
X123952000Y-111506000D01*
X123455000Y-115062000D02*
X124272200Y-114244800D01*
X124272200Y-114244800D02*
X124272200Y-111826200D01*
%TO.N,Net-(D2-K)*%
X129430000Y-114895000D02*
X129430000Y-113080000D01*
X129365000Y-114960000D02*
X129430000Y-114895000D01*
%TO.N,Net-(U1-CAP)*%
X129389300Y-101624600D02*
X128142400Y-100377700D01*
X128142400Y-98117400D02*
X127000000Y-96975000D01*
X132092000Y-102760600D02*
X130364700Y-102760600D01*
X129389300Y-101785200D02*
X129389300Y-101624600D01*
X132092000Y-103162500D02*
X132092000Y-102760600D01*
X128142400Y-100377700D02*
X128142400Y-98117400D01*
X130364700Y-102760600D02*
X129389300Y-101785200D01*
%TO.N,Net-(D2-A)*%
X127688000Y-115062000D02*
X127790000Y-114960000D01*
X125730000Y-115062000D02*
X127688000Y-115062000D01*
%TO.N,Net-(U5-V3)*%
X138430000Y-115124000D02*
X138430000Y-113208500D01*
X136182600Y-112849900D02*
X135255000Y-113777500D01*
X138071400Y-112849900D02*
X136182600Y-112849900D01*
X139446000Y-116140000D02*
X138430000Y-115124000D01*
X139446000Y-116586000D02*
X139446000Y-116140000D01*
X138430000Y-113208500D02*
X138071400Y-112849900D01*
X135255000Y-113777500D02*
X135255000Y-113981000D01*
%TO.N,Net-(Q1-D)*%
X126198000Y-113162000D02*
X127870000Y-111490000D01*
X133217500Y-110383300D02*
X132965100Y-110383300D01*
X133085000Y-106868000D02*
X133217500Y-107000500D01*
X132560700Y-110787700D02*
X128572300Y-110787700D01*
X137807000Y-111305700D02*
X139629100Y-113127800D01*
X132965100Y-110383300D02*
X132560700Y-110787700D01*
X140073800Y-116204600D02*
X140073800Y-120860200D01*
X140073800Y-120860200D02*
X139448400Y-121485600D01*
X125730000Y-113162000D02*
X126198000Y-113162000D01*
X133217500Y-110383300D02*
X134139900Y-111305700D01*
X139629100Y-115759900D02*
X140073800Y-116204600D01*
X134139900Y-111305700D02*
X137807000Y-111305700D01*
X139629100Y-113127800D02*
X139629100Y-115759900D01*
X128572300Y-110787700D02*
X127870000Y-111490000D01*
X133217500Y-107000500D02*
X133217500Y-110383300D01*
%TO.N,Net-(C5-Pad1)*%
X126980000Y-110572000D02*
X125730000Y-109322000D01*
X128635500Y-101936800D02*
X127781900Y-102790400D01*
X125730000Y-103022000D02*
X127781900Y-103022000D01*
X130000000Y-109550000D02*
X128978000Y-110572000D01*
X128978000Y-110572000D02*
X126980000Y-110572000D01*
X125730000Y-109322000D02*
X126631900Y-109322000D01*
X127781900Y-103022000D02*
X127781900Y-105146000D01*
X136125000Y-100159900D02*
X136042100Y-100242800D01*
X127781900Y-102790400D02*
X127781900Y-103022000D01*
X127781900Y-105146000D02*
X126631900Y-106296000D01*
X126631900Y-106296000D02*
X126631900Y-109322000D01*
X136125000Y-98175000D02*
X136125000Y-100159900D01*
%TO.N,Net-(J2-CC1)*%
X124756100Y-119337900D02*
X124756100Y-117385500D01*
X125634000Y-116507600D02*
X130032300Y-116507600D01*
X123698000Y-120396000D02*
X124756100Y-119337900D01*
X130352000Y-116827300D02*
X130352000Y-117281000D01*
X124756100Y-117385500D02*
X125634000Y-116507600D01*
X130032300Y-116507600D02*
X130352000Y-116827300D01*
%TO.N,Net-(J2-CC2)*%
X133352000Y-117281000D02*
X133352000Y-116834000D01*
X132781400Y-116263400D02*
X124148600Y-116263400D01*
X133352000Y-116834000D02*
X132781400Y-116263400D01*
X124148600Y-116263400D02*
X123698000Y-116714000D01*
%TO.N,Net-(U5-UD+)*%
X136525000Y-113981000D02*
X136525000Y-115834300D01*
X133624400Y-119014300D02*
X132352000Y-117741900D01*
X131734800Y-116482000D02*
X131971200Y-116482000D01*
X131352000Y-116864800D02*
X131734800Y-116482000D01*
X131971200Y-116482000D02*
X132352000Y-116862800D01*
X132352000Y-117741900D02*
X132352000Y-117281000D01*
X135291000Y-117068300D02*
X135291000Y-118488600D01*
X134765300Y-119014300D02*
X133624400Y-119014300D01*
X136525000Y-115834300D02*
X135291000Y-117068300D01*
X131352000Y-117281000D02*
X131352000Y-116864800D01*
X135291000Y-118488600D02*
X134765300Y-119014300D01*
X132352000Y-116862800D02*
X132352000Y-117281000D01*
%TO.N,Net-(U5-UD-)*%
X131552400Y-118039200D02*
X131852000Y-117739600D01*
X131159100Y-118039200D02*
X131552400Y-118039200D01*
X137990800Y-116517700D02*
X137990800Y-122725600D01*
X137776900Y-122939500D02*
X135690600Y-122939500D01*
X137990800Y-122725600D02*
X137776900Y-122939500D01*
X130852000Y-117732100D02*
X131159100Y-118039200D01*
X137442700Y-115969600D02*
X137990800Y-116517700D01*
X131852000Y-117739600D02*
X131852000Y-117281000D01*
X137795000Y-113981000D02*
X137442700Y-114333300D01*
X137442700Y-114333300D02*
X137442700Y-115969600D01*
X135690600Y-122939500D02*
X131552400Y-118801300D01*
X131552400Y-118801300D02*
X131552400Y-118039200D01*
X130852000Y-117281000D02*
X130852000Y-117732100D01*
%TD*%
%TA.AperFunction,Conductor*%
%TO.N,VCC*%
G36*
X122537479Y-94517813D02*
G01*
X122562789Y-94561650D01*
X122553999Y-94611500D01*
X122518231Y-94642867D01*
X122466876Y-94664138D01*
X122351879Y-94752379D01*
X122263638Y-94867376D01*
X122208169Y-95001291D01*
X122189250Y-95145000D01*
X122208169Y-95288708D01*
X122229928Y-95341239D01*
X122263639Y-95422625D01*
X122351879Y-95537621D01*
X122466875Y-95625861D01*
X122600791Y-95681330D01*
X122744500Y-95700250D01*
X122888209Y-95681330D01*
X123022125Y-95625861D01*
X123137121Y-95537621D01*
X123147294Y-95524362D01*
X123189983Y-95497167D01*
X123240169Y-95503774D01*
X123274367Y-95541094D01*
X123280000Y-95569413D01*
X123280000Y-95997500D01*
X125479999Y-95997500D01*
X125479999Y-95043306D01*
X125479998Y-95043294D01*
X125477149Y-95012897D01*
X125477147Y-95012888D01*
X125432347Y-94884856D01*
X125351792Y-94775708D01*
X125351791Y-94775707D01*
X125242643Y-94695152D01*
X125242644Y-94695152D01*
X125114614Y-94650353D01*
X125114606Y-94650351D01*
X125091417Y-94648177D01*
X125045675Y-94626498D01*
X125024569Y-94580489D01*
X125037975Y-94531678D01*
X125079620Y-94502903D01*
X125098326Y-94500500D01*
X141675500Y-94500500D01*
X141723066Y-94517813D01*
X141748376Y-94561650D01*
X141749500Y-94574500D01*
X141749500Y-123175500D01*
X141732187Y-123223066D01*
X141688350Y-123248376D01*
X141675500Y-123249500D01*
X137921229Y-123249500D01*
X137873663Y-123232187D01*
X137848353Y-123188350D01*
X137857143Y-123138500D01*
X137875088Y-123117647D01*
X137879901Y-123113808D01*
X137891488Y-123104567D01*
X137894860Y-123102174D01*
X137902701Y-123097248D01*
X137909247Y-123090701D01*
X137912324Y-123087950D01*
X137937688Y-123067724D01*
X137939327Y-123065668D01*
X137951651Y-123048296D01*
X138099598Y-122900350D01*
X138116962Y-122888031D01*
X138119018Y-122886390D01*
X138119024Y-122886388D01*
X138139239Y-122861038D01*
X138142005Y-122857944D01*
X138148548Y-122851402D01*
X138153472Y-122843562D01*
X138155875Y-122840177D01*
X138176089Y-122814832D01*
X138176088Y-122814832D01*
X138176090Y-122814831D01*
X138176090Y-122814828D01*
X138177240Y-122812441D01*
X138184040Y-122796025D01*
X138184914Y-122793527D01*
X138184914Y-122793525D01*
X138184915Y-122793524D01*
X138188545Y-122761297D01*
X138189235Y-122757233D01*
X138191300Y-122748190D01*
X138191300Y-122738933D01*
X138191533Y-122734788D01*
X138192875Y-122722864D01*
X138195162Y-122702574D01*
X138195160Y-122702568D01*
X138194868Y-122699972D01*
X138191300Y-122678964D01*
X138191300Y-116564335D01*
X138194865Y-116543357D01*
X138195160Y-116540731D01*
X138195162Y-116540726D01*
X138193078Y-116522230D01*
X138191533Y-116508510D01*
X138191300Y-116504365D01*
X138191300Y-116495112D01*
X138191300Y-116495110D01*
X138189235Y-116486066D01*
X138188545Y-116482004D01*
X138184915Y-116449776D01*
X138184914Y-116449774D01*
X138184914Y-116449773D01*
X138184046Y-116447292D01*
X138177233Y-116430843D01*
X138176090Y-116428471D01*
X138176090Y-116428469D01*
X138155865Y-116403110D01*
X138153472Y-116399737D01*
X138148548Y-116391898D01*
X138141994Y-116385344D01*
X138139236Y-116382257D01*
X138131652Y-116372747D01*
X138119024Y-116356912D01*
X138119021Y-116356910D01*
X138116967Y-116355271D01*
X138099597Y-116342947D01*
X137968162Y-116211512D01*
X137946770Y-116165636D01*
X137959871Y-116116741D01*
X138001335Y-116087707D01*
X138030143Y-116085819D01*
X138060000Y-116089750D01*
X138203709Y-116070830D01*
X138337625Y-116015361D01*
X138452621Y-115927121D01*
X138540861Y-115812125D01*
X138584506Y-115706752D01*
X138618702Y-115669435D01*
X138668888Y-115662827D01*
X138705198Y-115682747D01*
X138971881Y-115949430D01*
X138993273Y-115995306D01*
X138980172Y-116044201D01*
X138971881Y-116054082D01*
X138886173Y-116139789D01*
X138831134Y-116252373D01*
X138831134Y-116252374D01*
X138820500Y-116325359D01*
X138820500Y-116846640D01*
X138831134Y-116919625D01*
X138831134Y-116919626D01*
X138886173Y-117032210D01*
X138886174Y-117032211D01*
X138974789Y-117120826D01*
X139087375Y-117175866D01*
X139160364Y-117186500D01*
X139160370Y-117186500D01*
X139731630Y-117186500D01*
X139731636Y-117186500D01*
X139788633Y-117178195D01*
X139838196Y-117188469D01*
X139869561Y-117228198D01*
X139873300Y-117251422D01*
X139873300Y-117470577D01*
X139855987Y-117518143D01*
X139812150Y-117543453D01*
X139788632Y-117543803D01*
X139775558Y-117541899D01*
X139731641Y-117535500D01*
X139731636Y-117535500D01*
X139160364Y-117535500D01*
X139160359Y-117535500D01*
X139087374Y-117546134D01*
X139087373Y-117546134D01*
X138974789Y-117601173D01*
X138886173Y-117689789D01*
X138831134Y-117802373D01*
X138831134Y-117802374D01*
X138820500Y-117875359D01*
X138820500Y-118396640D01*
X138831134Y-118469625D01*
X138831134Y-118469626D01*
X138886173Y-118582210D01*
X138886174Y-118582211D01*
X138974789Y-118670826D01*
X139052107Y-118708624D01*
X139087237Y-118745068D01*
X139090722Y-118795567D01*
X139078316Y-118820153D01*
X139031338Y-118881376D01*
X138975869Y-119015291D01*
X138956950Y-119159000D01*
X138975869Y-119302708D01*
X139027407Y-119427132D01*
X139031339Y-119436625D01*
X139119579Y-119551621D01*
X139234575Y-119639861D01*
X139368491Y-119695330D01*
X139512200Y-119714250D01*
X139655909Y-119695330D01*
X139770984Y-119647664D01*
X139821552Y-119645457D01*
X139861711Y-119676272D01*
X139873300Y-119716032D01*
X139873300Y-120746498D01*
X139855987Y-120794064D01*
X139851626Y-120798824D01*
X139704196Y-120946253D01*
X139658319Y-120967645D01*
X139623552Y-120962294D01*
X139592108Y-120949269D01*
X139448400Y-120930350D01*
X139304691Y-120949269D01*
X139170776Y-121004738D01*
X139055779Y-121092979D01*
X138967538Y-121207976D01*
X138912069Y-121341891D01*
X138893150Y-121485600D01*
X138912069Y-121629308D01*
X138913221Y-121632089D01*
X138967539Y-121763225D01*
X139055779Y-121878221D01*
X139170775Y-121966461D01*
X139304691Y-122021930D01*
X139448400Y-122040850D01*
X139592109Y-122021930D01*
X139726025Y-121966461D01*
X139841021Y-121878221D01*
X139929261Y-121763225D01*
X139984730Y-121629309D01*
X140003650Y-121485600D01*
X139984730Y-121341891D01*
X139971705Y-121310446D01*
X139969497Y-121259875D01*
X139987744Y-121229803D01*
X140182596Y-121034951D01*
X140199968Y-121022627D01*
X140202024Y-121020988D01*
X140222250Y-120995624D01*
X140225001Y-120992547D01*
X140231548Y-120986001D01*
X140236474Y-120978160D01*
X140238867Y-120974788D01*
X140259090Y-120949431D01*
X140259090Y-120949428D01*
X140260233Y-120947055D01*
X140267039Y-120930626D01*
X140267912Y-120928129D01*
X140267916Y-120928124D01*
X140271547Y-120895886D01*
X140272238Y-120891820D01*
X140274300Y-120882790D01*
X140274300Y-120873535D01*
X140274533Y-120869390D01*
X140275690Y-120859112D01*
X140278162Y-120837174D01*
X140278160Y-120837168D01*
X140277868Y-120834572D01*
X140274300Y-120813564D01*
X140274300Y-116251239D01*
X140277868Y-116230234D01*
X140278161Y-116227630D01*
X140278163Y-116227626D01*
X140275960Y-116208079D01*
X140274533Y-116195401D01*
X140274300Y-116191256D01*
X140274300Y-116182011D01*
X140272241Y-116172990D01*
X140271546Y-116168897D01*
X140270773Y-116162034D01*
X140267916Y-116136676D01*
X140267914Y-116136673D01*
X140267054Y-116134215D01*
X140260234Y-116117746D01*
X140259090Y-116115371D01*
X140259090Y-116115369D01*
X140259088Y-116115366D01*
X140238872Y-116090015D01*
X140236475Y-116086639D01*
X140231549Y-116078799D01*
X140225002Y-116072252D01*
X140222235Y-116069156D01*
X140219256Y-116065421D01*
X140202024Y-116043812D01*
X140202023Y-116043811D01*
X140199967Y-116042171D01*
X140182597Y-116029847D01*
X139851274Y-115698524D01*
X139829882Y-115652648D01*
X139829600Y-115646198D01*
X139829600Y-115054223D01*
X139846913Y-115006657D01*
X139890750Y-114981347D01*
X139940600Y-114990137D01*
X139955926Y-115001897D01*
X140012235Y-115058206D01*
X140115009Y-115103585D01*
X140140135Y-115106500D01*
X140529864Y-115106499D01*
X140554991Y-115103585D01*
X140657765Y-115058206D01*
X140737206Y-114978765D01*
X140782585Y-114875991D01*
X140785500Y-114850865D01*
X140785499Y-113111136D01*
X140782585Y-113086009D01*
X140737206Y-112983235D01*
X140657765Y-112903794D01*
X140554991Y-112858415D01*
X140554990Y-112858414D01*
X140554988Y-112858414D01*
X140533659Y-112855940D01*
X140529865Y-112855500D01*
X140529864Y-112855500D01*
X140140136Y-112855500D01*
X140115013Y-112858414D01*
X140115007Y-112858415D01*
X140012234Y-112903794D01*
X139932793Y-112983235D01*
X139924232Y-113002624D01*
X139889181Y-113039144D01*
X139838856Y-113044589D01*
X139798687Y-113018876D01*
X139794174Y-113013219D01*
X139791773Y-113009835D01*
X139786849Y-113001999D01*
X139780302Y-112995452D01*
X139777535Y-112992356D01*
X139770261Y-112983235D01*
X139757324Y-112967012D01*
X139755265Y-112965371D01*
X139737895Y-112953046D01*
X137981753Y-111196904D01*
X137967406Y-111176683D01*
X137964603Y-111170862D01*
X137959565Y-111120494D01*
X137972565Y-111093712D01*
X138020361Y-111031425D01*
X138075830Y-110897509D01*
X138094750Y-110753800D01*
X138075830Y-110610091D01*
X138020361Y-110476175D01*
X137932121Y-110361179D01*
X137838324Y-110289205D01*
X137811128Y-110246515D01*
X137817735Y-110196329D01*
X137855056Y-110162132D01*
X137883372Y-110156499D01*
X137989864Y-110156499D01*
X138014991Y-110153585D01*
X138117765Y-110108206D01*
X138197206Y-110028765D01*
X138242585Y-109925991D01*
X138245500Y-109900865D01*
X138245500Y-109900863D01*
X138614500Y-109900863D01*
X138617414Y-109925986D01*
X138617415Y-109925992D01*
X138652892Y-110006339D01*
X138662794Y-110028765D01*
X138742235Y-110108206D01*
X138845009Y-110153585D01*
X138870135Y-110156500D01*
X139259864Y-110156499D01*
X139284991Y-110153585D01*
X139387765Y-110108206D01*
X139467206Y-110028765D01*
X139512585Y-109925991D01*
X139515500Y-109900865D01*
X139515500Y-109900863D01*
X139884500Y-109900863D01*
X139887414Y-109925986D01*
X139887415Y-109925992D01*
X139922892Y-110006339D01*
X139932794Y-110028765D01*
X140012235Y-110108206D01*
X140115009Y-110153585D01*
X140140135Y-110156500D01*
X140529864Y-110156499D01*
X140554991Y-110153585D01*
X140657765Y-110108206D01*
X140737206Y-110028765D01*
X140782585Y-109925991D01*
X140785500Y-109900865D01*
X140785499Y-108161136D01*
X140782585Y-108136009D01*
X140737206Y-108033235D01*
X140657765Y-107953794D01*
X140554991Y-107908415D01*
X140554990Y-107908414D01*
X140554988Y-107908414D01*
X140533659Y-107905940D01*
X140529865Y-107905500D01*
X140529864Y-107905500D01*
X140140136Y-107905500D01*
X140115013Y-107908414D01*
X140115007Y-107908415D01*
X140012234Y-107953794D01*
X139932794Y-108033234D01*
X139887414Y-108136011D01*
X139884500Y-108161135D01*
X139884500Y-109900863D01*
X139515500Y-109900863D01*
X139515499Y-108161136D01*
X139512585Y-108136009D01*
X139467206Y-108033235D01*
X139387765Y-107953794D01*
X139284991Y-107908415D01*
X139284990Y-107908414D01*
X139284988Y-107908414D01*
X139263659Y-107905940D01*
X139259865Y-107905500D01*
X139259864Y-107905500D01*
X138870136Y-107905500D01*
X138845013Y-107908414D01*
X138845007Y-107908415D01*
X138742234Y-107953794D01*
X138662794Y-108033234D01*
X138617414Y-108136011D01*
X138614500Y-108161135D01*
X138614500Y-109900863D01*
X138245500Y-109900863D01*
X138245499Y-108161136D01*
X138242585Y-108136009D01*
X138197206Y-108033235D01*
X138117765Y-107953794D01*
X138014991Y-107908415D01*
X138014990Y-107908414D01*
X138014988Y-107908414D01*
X137993659Y-107905940D01*
X137989865Y-107905500D01*
X137989864Y-107905500D01*
X137600136Y-107905500D01*
X137575013Y-107908414D01*
X137575007Y-107908415D01*
X137495490Y-107943526D01*
X137444984Y-107946901D01*
X137404124Y-107917022D01*
X137391600Y-107875831D01*
X137391600Y-106880500D01*
X137408913Y-106832934D01*
X137452750Y-106807624D01*
X137465600Y-106806500D01*
X138007819Y-106806500D01*
X138007820Y-106806500D01*
X138051722Y-106797767D01*
X138101504Y-106764504D01*
X138134767Y-106714722D01*
X138143500Y-106670820D01*
X138143500Y-106241180D01*
X138134767Y-106197278D01*
X138117951Y-106172112D01*
X138105920Y-106122945D01*
X138117952Y-106089887D01*
X138125661Y-106078350D01*
X138134767Y-106064722D01*
X138134767Y-106064720D01*
X138137556Y-106057989D01*
X138139029Y-106058599D01*
X138160759Y-106022789D01*
X138207078Y-106006500D01*
X138327399Y-106006500D01*
X138374965Y-106023813D01*
X138379725Y-106028174D01*
X138916347Y-106564797D01*
X138928671Y-106582167D01*
X138930311Y-106584223D01*
X138930312Y-106584224D01*
X138955661Y-106604439D01*
X138958752Y-106607202D01*
X138965299Y-106613749D01*
X138973139Y-106618675D01*
X138976515Y-106621072D01*
X139001866Y-106641288D01*
X139001869Y-106641290D01*
X139001871Y-106641290D01*
X139004246Y-106642434D01*
X139020723Y-106649258D01*
X139023175Y-106650116D01*
X139028773Y-106650746D01*
X139036130Y-106651575D01*
X139081460Y-106674101D01*
X139100426Y-106710668D01*
X139101232Y-106714721D01*
X139128615Y-106755702D01*
X139134496Y-106764504D01*
X139184278Y-106797767D01*
X139228180Y-106806500D01*
X139228181Y-106806500D01*
X139907819Y-106806500D01*
X139907820Y-106806500D01*
X139951722Y-106797767D01*
X140001504Y-106764504D01*
X140034767Y-106714722D01*
X140043500Y-106670820D01*
X140043500Y-106241180D01*
X140034767Y-106197278D01*
X140017951Y-106172112D01*
X140005920Y-106122945D01*
X140017952Y-106089887D01*
X140034767Y-106064722D01*
X140043500Y-106020820D01*
X140043500Y-105591180D01*
X140034767Y-105547278D01*
X140017951Y-105522112D01*
X140005920Y-105472945D01*
X140017952Y-105439887D01*
X140034767Y-105414722D01*
X140043500Y-105370820D01*
X140043500Y-104941180D01*
X140034767Y-104897278D01*
X140001504Y-104847496D01*
X139951722Y-104814233D01*
X139907820Y-104805500D01*
X139907819Y-104805500D01*
X139365600Y-104805500D01*
X139318034Y-104788187D01*
X139292724Y-104744350D01*
X139291600Y-104731500D01*
X139291600Y-99311935D01*
X139295165Y-99290956D01*
X139295460Y-99288331D01*
X139295462Y-99288326D01*
X139291833Y-99256108D01*
X139291600Y-99251963D01*
X139291600Y-99242710D01*
X139291477Y-99242172D01*
X139289538Y-99233679D01*
X139288847Y-99229615D01*
X139285795Y-99202516D01*
X139285216Y-99197374D01*
X139284358Y-99194923D01*
X139277534Y-99178446D01*
X139276390Y-99176071D01*
X139276390Y-99176069D01*
X139276388Y-99176066D01*
X139256172Y-99150715D01*
X139253775Y-99147339D01*
X139248849Y-99139499D01*
X139242302Y-99132952D01*
X139239535Y-99129856D01*
X139237262Y-99127006D01*
X139219324Y-99104512D01*
X139219323Y-99104511D01*
X139217267Y-99102871D01*
X139199897Y-99090547D01*
X139169346Y-99059996D01*
X139147954Y-99014120D01*
X139153303Y-98979356D01*
X139166330Y-98947909D01*
X139185250Y-98804200D01*
X139166330Y-98660491D01*
X139110861Y-98526575D01*
X139022621Y-98411579D01*
X138907625Y-98323339D01*
X138901225Y-98320688D01*
X138773708Y-98267869D01*
X138630000Y-98248950D01*
X138486293Y-98267869D01*
X138447752Y-98283833D01*
X138397181Y-98286040D01*
X138357023Y-98255224D01*
X138346068Y-98205805D01*
X138367108Y-98163140D01*
X138456703Y-98073545D01*
X138502578Y-98052154D01*
X138537344Y-98057504D01*
X138568791Y-98070530D01*
X138712500Y-98089450D01*
X138856209Y-98070530D01*
X138990125Y-98015061D01*
X139105121Y-97926821D01*
X139193361Y-97811825D01*
X139248830Y-97677909D01*
X139267750Y-97534200D01*
X139248830Y-97390491D01*
X139193361Y-97256575D01*
X139105121Y-97141579D01*
X138990125Y-97053339D01*
X138990123Y-97053338D01*
X138856208Y-96997869D01*
X138712500Y-96978950D01*
X138568791Y-96997869D01*
X138533596Y-97012447D01*
X138483025Y-97014653D01*
X138452954Y-96996405D01*
X138320853Y-96864304D01*
X138308532Y-96846938D01*
X138306886Y-96844874D01*
X138281537Y-96824658D01*
X138278441Y-96821892D01*
X138271901Y-96815352D01*
X138264066Y-96810428D01*
X138260684Y-96808028D01*
X138235329Y-96787808D01*
X138232994Y-96786684D01*
X138216480Y-96779843D01*
X138214023Y-96778983D01*
X138181798Y-96775352D01*
X138177708Y-96774657D01*
X138168691Y-96772600D01*
X138168690Y-96772600D01*
X138159436Y-96772600D01*
X138155291Y-96772367D01*
X138123075Y-96768738D01*
X138123074Y-96768738D01*
X138123073Y-96768738D01*
X138120462Y-96769032D01*
X138099464Y-96772600D01*
X135987603Y-96772600D01*
X135940037Y-96755287D01*
X135914727Y-96711450D01*
X135919236Y-96670281D01*
X135960044Y-96571761D01*
X135960044Y-96571760D01*
X135960102Y-96571322D01*
X135980682Y-96415000D01*
X135960044Y-96258238D01*
X135899536Y-96112159D01*
X135867451Y-96070345D01*
X135803284Y-95986720D01*
X135803279Y-95986715D01*
X135677841Y-95890464D01*
X135531761Y-95829955D01*
X135439473Y-95817806D01*
X135414361Y-95814500D01*
X135335639Y-95814500D01*
X135311171Y-95817721D01*
X135218238Y-95829955D01*
X135072158Y-95890464D01*
X134946720Y-95986715D01*
X134946715Y-95986720D01*
X134850464Y-96112158D01*
X134789955Y-96258238D01*
X134789955Y-96258239D01*
X134769318Y-96415000D01*
X134789955Y-96571760D01*
X134789955Y-96571761D01*
X134850464Y-96717841D01*
X134946715Y-96843279D01*
X134946720Y-96843284D01*
X135072623Y-96939892D01*
X135099821Y-96982583D01*
X135093214Y-97032769D01*
X135055894Y-97066967D01*
X135027575Y-97072600D01*
X133079237Y-97072600D01*
X133065869Y-97079037D01*
X133050232Y-97084508D01*
X133035769Y-97087809D01*
X133024166Y-97097062D01*
X133010143Y-97105874D01*
X132996776Y-97112312D01*
X132987525Y-97123912D01*
X132975812Y-97135625D01*
X132964212Y-97144876D01*
X132957774Y-97158243D01*
X132948962Y-97172266D01*
X132939709Y-97183869D01*
X132936408Y-97198332D01*
X132930937Y-97213967D01*
X132924500Y-97227337D01*
X132921963Y-97232606D01*
X132885727Y-97267951D01*
X132855290Y-97274500D01*
X132760180Y-97274500D01*
X132738229Y-97278866D01*
X132716277Y-97283233D01*
X132666496Y-97316495D01*
X132666495Y-97316496D01*
X132633233Y-97366277D01*
X132624500Y-97410180D01*
X132624500Y-98802400D01*
X132607187Y-98849966D01*
X132563350Y-98875276D01*
X132550500Y-98876400D01*
X132199500Y-98876400D01*
X132151934Y-98859087D01*
X132126624Y-98815250D01*
X132125500Y-98802400D01*
X132125500Y-97410180D01*
X132116767Y-97366278D01*
X132083504Y-97316496D01*
X132083501Y-97316494D01*
X132033722Y-97283233D01*
X131989820Y-97274500D01*
X131260180Y-97274500D01*
X131238229Y-97278866D01*
X131216277Y-97283233D01*
X131166496Y-97316495D01*
X131166495Y-97316496D01*
X131133233Y-97366277D01*
X131124500Y-97410180D01*
X131124500Y-98939819D01*
X131133233Y-98983722D01*
X131160836Y-99025034D01*
X131166496Y-99033504D01*
X131166721Y-99033654D01*
X131166927Y-99033935D01*
X131171650Y-99038658D01*
X131170923Y-99039384D01*
X131196655Y-99074474D01*
X131193347Y-99124984D01*
X131177937Y-99147512D01*
X131144324Y-99181124D01*
X131098447Y-99202516D01*
X131049553Y-99189414D01*
X131039673Y-99181123D01*
X130554917Y-98696367D01*
X130060374Y-98201825D01*
X130038983Y-98155950D01*
X130052084Y-98107055D01*
X130093548Y-98078021D01*
X130112701Y-98075500D01*
X130739819Y-98075500D01*
X130739820Y-98075500D01*
X130783722Y-98066767D01*
X130833504Y-98033504D01*
X130866767Y-97983722D01*
X130875500Y-97939820D01*
X130875500Y-97110180D01*
X130866767Y-97066278D01*
X130833504Y-97016496D01*
X130832013Y-97015500D01*
X130783722Y-96983233D01*
X130780454Y-96982583D01*
X130739820Y-96974500D01*
X129710180Y-96974500D01*
X129688229Y-96978866D01*
X129666277Y-96983233D01*
X129616496Y-97016495D01*
X129616495Y-97016496D01*
X129583233Y-97066277D01*
X129574500Y-97110180D01*
X129574500Y-97537298D01*
X129557187Y-97584864D01*
X129513350Y-97610174D01*
X129463500Y-97601384D01*
X129448174Y-97589624D01*
X129237931Y-97379382D01*
X129216539Y-97333506D01*
X129217029Y-97316394D01*
X129225500Y-97258260D01*
X129225500Y-96791740D01*
X129215573Y-96723607D01*
X129164198Y-96618517D01*
X129081483Y-96535802D01*
X129081482Y-96535801D01*
X128976394Y-96484427D01*
X128908264Y-96474500D01*
X128908260Y-96474500D01*
X128291740Y-96474500D01*
X128291735Y-96474500D01*
X128223606Y-96484427D01*
X128218116Y-96486124D01*
X128217212Y-96483200D01*
X128178227Y-96487314D01*
X128136250Y-96459025D01*
X128122100Y-96415505D01*
X128122100Y-96415000D01*
X131769318Y-96415000D01*
X131789955Y-96571760D01*
X131789955Y-96571761D01*
X131850464Y-96717841D01*
X131946715Y-96843279D01*
X131946720Y-96843284D01*
X131962527Y-96855413D01*
X132072159Y-96939536D01*
X132218238Y-97000044D01*
X132335639Y-97015500D01*
X132335641Y-97015500D01*
X132414359Y-97015500D01*
X132414361Y-97015500D01*
X132531762Y-97000044D01*
X132677841Y-96939536D01*
X132803282Y-96843282D01*
X132899536Y-96717841D01*
X132960044Y-96571762D01*
X132980682Y-96415000D01*
X132960044Y-96258238D01*
X132899536Y-96112159D01*
X132867451Y-96070345D01*
X132803284Y-95986720D01*
X132803279Y-95986715D01*
X132677841Y-95890464D01*
X132531761Y-95829955D01*
X132439473Y-95817806D01*
X132414361Y-95814500D01*
X132335639Y-95814500D01*
X132311171Y-95817721D01*
X132218238Y-95829955D01*
X132072158Y-95890464D01*
X131946720Y-95986715D01*
X131946715Y-95986720D01*
X131850464Y-96112158D01*
X131789955Y-96258238D01*
X131789955Y-96258239D01*
X131769318Y-96415000D01*
X128122100Y-96415000D01*
X128122100Y-96167101D01*
X128139413Y-96119535D01*
X128143774Y-96114775D01*
X128311375Y-95947174D01*
X128357251Y-95925782D01*
X128363701Y-95925500D01*
X128908254Y-95925500D01*
X128908260Y-95925500D01*
X128976393Y-95915573D01*
X129081483Y-95864198D01*
X129164198Y-95781483D01*
X129189455Y-95729819D01*
X129574500Y-95729819D01*
X129583233Y-95773722D01*
X129613790Y-95819455D01*
X129616496Y-95823504D01*
X129666278Y-95856767D01*
X129710180Y-95865500D01*
X129710181Y-95865500D01*
X130739819Y-95865500D01*
X130739820Y-95865500D01*
X130783722Y-95856767D01*
X130833504Y-95823504D01*
X130866767Y-95773722D01*
X130875500Y-95729820D01*
X130875500Y-95729819D01*
X136874500Y-95729819D01*
X136883233Y-95773722D01*
X136913790Y-95819455D01*
X136916496Y-95823504D01*
X136966278Y-95856767D01*
X137010180Y-95865500D01*
X137010181Y-95865500D01*
X138039819Y-95865500D01*
X138039820Y-95865500D01*
X138083722Y-95856767D01*
X138133504Y-95823504D01*
X138133503Y-95823504D01*
X138139564Y-95819455D01*
X138140895Y-95821448D01*
X138176763Y-95804715D01*
X138225660Y-95817806D01*
X138254702Y-95859265D01*
X138256594Y-95868772D01*
X138269369Y-95965808D01*
X138324838Y-96099723D01*
X138324839Y-96099725D01*
X138413079Y-96214721D01*
X138528075Y-96302961D01*
X138661991Y-96358430D01*
X138805700Y-96377350D01*
X138949409Y-96358430D01*
X139083325Y-96302961D01*
X139198321Y-96214721D01*
X139286561Y-96099725D01*
X139342030Y-95965809D01*
X139360950Y-95822100D01*
X139342030Y-95678391D01*
X139286561Y-95544475D01*
X139198321Y-95429479D01*
X139083325Y-95341239D01*
X139083323Y-95341238D01*
X138949408Y-95285769D01*
X138805700Y-95266850D01*
X138661991Y-95285769D01*
X138528076Y-95341238D01*
X138413079Y-95429479D01*
X138324838Y-95544476D01*
X138317867Y-95561307D01*
X138283670Y-95598628D01*
X138233484Y-95605235D01*
X138190792Y-95578038D01*
X138175500Y-95532989D01*
X138175500Y-94900180D01*
X138166767Y-94856278D01*
X138133504Y-94806496D01*
X138083722Y-94773233D01*
X138039820Y-94764500D01*
X137010180Y-94764500D01*
X136988229Y-94768866D01*
X136966277Y-94773233D01*
X136916496Y-94806495D01*
X136916495Y-94806496D01*
X136883233Y-94856277D01*
X136874500Y-94900180D01*
X136874500Y-95729819D01*
X130875500Y-95729819D01*
X130875500Y-94900180D01*
X130866767Y-94856278D01*
X130833504Y-94806496D01*
X130783722Y-94773233D01*
X130739820Y-94764500D01*
X129710180Y-94764500D01*
X129688229Y-94768866D01*
X129666277Y-94773233D01*
X129616496Y-94806495D01*
X129616495Y-94806496D01*
X129583233Y-94856277D01*
X129574500Y-94900180D01*
X129574500Y-95729819D01*
X129189455Y-95729819D01*
X129215573Y-95676393D01*
X129225500Y-95608260D01*
X129225500Y-95141740D01*
X129215573Y-95073607D01*
X129164198Y-94968517D01*
X129081483Y-94885802D01*
X129081482Y-94885801D01*
X128976394Y-94834427D01*
X128908264Y-94824500D01*
X128908260Y-94824500D01*
X128291740Y-94824500D01*
X128291735Y-94824500D01*
X128223606Y-94834427D01*
X128223605Y-94834427D01*
X128118517Y-94885801D01*
X128035801Y-94968517D01*
X127984427Y-95073605D01*
X127984427Y-95073606D01*
X127974500Y-95141735D01*
X127974500Y-95608264D01*
X127982969Y-95666386D01*
X127972695Y-95715951D01*
X127962068Y-95729381D01*
X127812802Y-95878647D01*
X127795423Y-95890979D01*
X127793373Y-95892614D01*
X127773158Y-95917962D01*
X127770397Y-95921051D01*
X127763856Y-95927593D01*
X127763849Y-95927603D01*
X127758928Y-95935432D01*
X127756530Y-95938811D01*
X127736311Y-95964166D01*
X127735181Y-95966513D01*
X127728343Y-95983021D01*
X127727484Y-95985475D01*
X127723853Y-96017695D01*
X127723159Y-96021784D01*
X127721100Y-96030809D01*
X127721100Y-96040063D01*
X127720867Y-96044208D01*
X127717238Y-96076424D01*
X127717534Y-96079056D01*
X127721100Y-96100035D01*
X127721100Y-96538821D01*
X127703787Y-96586387D01*
X127659950Y-96611697D01*
X127610100Y-96602907D01*
X127580619Y-96571322D01*
X127563254Y-96535801D01*
X127559826Y-96528789D01*
X127471211Y-96440174D01*
X127471210Y-96440173D01*
X127358626Y-96385134D01*
X127285640Y-96374500D01*
X127285636Y-96374500D01*
X126714364Y-96374500D01*
X126714358Y-96374500D01*
X126714356Y-96374501D01*
X126655668Y-96383051D01*
X126606103Y-96372776D01*
X126574738Y-96333046D01*
X126571000Y-96309824D01*
X126571000Y-96168200D01*
X126588313Y-96120634D01*
X126592665Y-96115883D01*
X126661374Y-96047173D01*
X126707250Y-96025782D01*
X126713700Y-96025500D01*
X127285630Y-96025500D01*
X127285636Y-96025500D01*
X127358625Y-96014866D01*
X127471211Y-95959826D01*
X127559826Y-95871211D01*
X127614866Y-95758625D01*
X127625500Y-95685636D01*
X127625500Y-95164364D01*
X127614866Y-95091375D01*
X127559826Y-94978789D01*
X127471211Y-94890174D01*
X127471210Y-94890173D01*
X127358626Y-94835134D01*
X127285640Y-94824500D01*
X127285636Y-94824500D01*
X126714364Y-94824500D01*
X126714359Y-94824500D01*
X126641374Y-94835134D01*
X126641373Y-94835134D01*
X126528789Y-94890173D01*
X126440173Y-94978789D01*
X126385134Y-95091373D01*
X126385134Y-95091374D01*
X126374500Y-95164359D01*
X126374500Y-95164364D01*
X126374500Y-95685636D01*
X126374501Y-95685640D01*
X126374501Y-95685643D01*
X126379487Y-95719869D01*
X126369212Y-95769434D01*
X126358586Y-95782863D01*
X126261702Y-95879747D01*
X126244323Y-95892079D01*
X126242273Y-95893714D01*
X126222058Y-95919062D01*
X126219297Y-95922151D01*
X126212756Y-95928693D01*
X126212749Y-95928703D01*
X126207828Y-95936532D01*
X126205430Y-95939911D01*
X126185211Y-95965266D01*
X126184081Y-95967613D01*
X126177243Y-95984121D01*
X126176384Y-95986575D01*
X126172753Y-96018795D01*
X126172059Y-96022884D01*
X126170000Y-96031909D01*
X126170000Y-96041163D01*
X126169767Y-96045308D01*
X126166138Y-96077524D01*
X126166434Y-96080156D01*
X126170000Y-96101135D01*
X126170000Y-97648000D01*
X126152687Y-97695566D01*
X126108850Y-97720876D01*
X126096000Y-97722000D01*
X125739236Y-97722000D01*
X125718237Y-97718432D01*
X125715626Y-97718138D01*
X125715625Y-97718138D01*
X125715624Y-97718138D01*
X125683412Y-97721767D01*
X125679267Y-97722000D01*
X125670008Y-97722000D01*
X125660978Y-97724059D01*
X125656892Y-97724753D01*
X125621015Y-97728797D01*
X125584411Y-97723630D01*
X125552920Y-97710586D01*
X125523909Y-97698570D01*
X125523908Y-97698569D01*
X125523906Y-97698569D01*
X125380200Y-97679650D01*
X125236491Y-97698569D01*
X125102576Y-97754038D01*
X124987579Y-97842279D01*
X124899338Y-97957276D01*
X124843869Y-98091191D01*
X124824950Y-98234900D01*
X124843869Y-98378608D01*
X124891670Y-98494011D01*
X124899339Y-98512525D01*
X124949543Y-98577952D01*
X124964765Y-98626228D01*
X124945394Y-98672993D01*
X124900494Y-98696367D01*
X124890835Y-98697000D01*
X123698480Y-98697000D01*
X123604695Y-98711853D01*
X123604693Y-98711854D01*
X123491657Y-98769450D01*
X123401951Y-98859156D01*
X123344353Y-98972198D01*
X123329500Y-99065980D01*
X123329500Y-101129019D01*
X123344353Y-101222804D01*
X123344354Y-101222806D01*
X123379035Y-101290869D01*
X123401950Y-101335842D01*
X123491658Y-101425550D01*
X123604696Y-101483146D01*
X123698481Y-101498000D01*
X125061518Y-101497999D01*
X125061519Y-101497999D01*
X125155304Y-101483146D01*
X125155306Y-101483145D01*
X125157419Y-101482068D01*
X125268342Y-101425550D01*
X125358050Y-101335842D01*
X125380202Y-101292365D01*
X125417222Y-101257845D01*
X125467771Y-101255195D01*
X125491180Y-101267251D01*
X125556875Y-101317661D01*
X125690791Y-101373130D01*
X125834500Y-101392050D01*
X125978209Y-101373130D01*
X126112125Y-101317661D01*
X126227121Y-101229421D01*
X126315361Y-101114425D01*
X126370830Y-100980509D01*
X126389750Y-100836800D01*
X126370830Y-100693091D01*
X126315361Y-100559175D01*
X126227121Y-100444179D01*
X126209562Y-100430705D01*
X126182367Y-100388016D01*
X126188974Y-100337830D01*
X126226295Y-100303633D01*
X126254613Y-100298000D01*
X126554500Y-100298000D01*
X126602066Y-100315313D01*
X126627376Y-100359150D01*
X126628500Y-100372000D01*
X126628500Y-100616640D01*
X126639134Y-100689625D01*
X126639134Y-100689626D01*
X126694173Y-100802210D01*
X126694174Y-100802211D01*
X126782789Y-100890826D01*
X126895375Y-100945866D01*
X126968364Y-100956500D01*
X126968370Y-100956500D01*
X127539630Y-100956500D01*
X127539636Y-100956500D01*
X127612625Y-100945866D01*
X127725211Y-100890826D01*
X127813826Y-100802211D01*
X127828734Y-100771715D01*
X127865178Y-100736586D01*
X127915677Y-100733101D01*
X127947541Y-100751890D01*
X128487251Y-101291601D01*
X128508643Y-101337478D01*
X128495542Y-101386372D01*
X128463244Y-101412294D01*
X128357875Y-101455939D01*
X128242879Y-101544179D01*
X128154638Y-101659176D01*
X128099169Y-101793091D01*
X128080250Y-101936800D01*
X128099169Y-102080506D01*
X128112194Y-102111953D01*
X128114400Y-102162524D01*
X128096152Y-102192596D01*
X127776826Y-102511923D01*
X127730950Y-102533315D01*
X127682055Y-102520214D01*
X127653022Y-102478750D01*
X127650500Y-102459597D01*
X127650500Y-101835180D01*
X127648954Y-101827410D01*
X127641767Y-101791278D01*
X127608504Y-101741496D01*
X127558722Y-101708233D01*
X127514820Y-101699500D01*
X123685180Y-101699500D01*
X123671858Y-101702150D01*
X123641277Y-101708233D01*
X123591496Y-101741495D01*
X123591495Y-101741496D01*
X123558233Y-101791277D01*
X123558233Y-101791278D01*
X123549500Y-101835180D01*
X123549500Y-104064820D01*
X123555322Y-104094089D01*
X123558233Y-104108722D01*
X123586627Y-104151218D01*
X123591496Y-104158504D01*
X123641278Y-104191767D01*
X123685180Y-104200500D01*
X123685181Y-104200500D01*
X127507400Y-104200500D01*
X127554966Y-104217813D01*
X127580276Y-104261650D01*
X127581400Y-104274500D01*
X127581400Y-105032298D01*
X127564087Y-105079864D01*
X127559726Y-105084624D01*
X126523102Y-106121247D01*
X126505723Y-106133579D01*
X126503673Y-106135214D01*
X126483458Y-106160562D01*
X126480697Y-106163651D01*
X126474156Y-106170193D01*
X126474149Y-106170203D01*
X126469228Y-106178032D01*
X126466830Y-106181411D01*
X126446611Y-106206766D01*
X126445481Y-106209113D01*
X126438643Y-106225621D01*
X126437784Y-106228075D01*
X126434153Y-106260295D01*
X126433459Y-106264384D01*
X126431400Y-106273409D01*
X126431400Y-106282663D01*
X126431167Y-106286808D01*
X126427538Y-106319024D01*
X126427834Y-106321656D01*
X126431400Y-106342635D01*
X126431400Y-107925500D01*
X126414087Y-107973066D01*
X126370250Y-107998376D01*
X126357400Y-107999500D01*
X124835180Y-107999500D01*
X124833617Y-107999811D01*
X124791277Y-108008233D01*
X124741496Y-108041495D01*
X124741495Y-108041496D01*
X124708233Y-108091277D01*
X124699500Y-108135180D01*
X124699500Y-110129298D01*
X124682187Y-110176864D01*
X124638350Y-110202174D01*
X124588500Y-110193384D01*
X124573174Y-110181624D01*
X124554074Y-110162524D01*
X124532682Y-110116648D01*
X124532400Y-110110198D01*
X124532400Y-109276236D01*
X124529466Y-109270145D01*
X124525963Y-109262871D01*
X124520492Y-109247236D01*
X124517190Y-109232769D01*
X124507936Y-109221165D01*
X124499123Y-109207138D01*
X124492688Y-109193777D01*
X124492688Y-109193776D01*
X124481089Y-109184526D01*
X124469372Y-109172809D01*
X124460123Y-109161211D01*
X124460122Y-109161210D01*
X124446758Y-109154774D01*
X124432729Y-109145959D01*
X124421131Y-109136710D01*
X124406661Y-109133407D01*
X124391028Y-109127936D01*
X124377663Y-109121500D01*
X124274500Y-109121500D01*
X124226934Y-109104187D01*
X124201624Y-109060350D01*
X124200500Y-109047500D01*
X124200500Y-108135180D01*
X124195251Y-108108793D01*
X124191767Y-108091278D01*
X124158504Y-108041496D01*
X124150187Y-108035939D01*
X124108722Y-108008233D01*
X124097692Y-108006039D01*
X124064820Y-107999500D01*
X122535180Y-107999500D01*
X122533617Y-107999811D01*
X122491277Y-108008233D01*
X122441496Y-108041495D01*
X122441495Y-108041496D01*
X122408233Y-108091277D01*
X122408233Y-108091278D01*
X122399500Y-108135180D01*
X122399500Y-110364820D01*
X122405744Y-110396210D01*
X122408233Y-110408722D01*
X122438655Y-110454253D01*
X122441496Y-110458504D01*
X122491278Y-110491767D01*
X122535180Y-110500500D01*
X122535181Y-110500500D01*
X124064819Y-110500500D01*
X124064820Y-110500500D01*
X124108722Y-110491767D01*
X124158504Y-110458504D01*
X124158506Y-110458500D01*
X124163658Y-110453350D01*
X124164561Y-110454253D01*
X124199070Y-110428945D01*
X124249581Y-110432250D01*
X124272111Y-110447660D01*
X124651026Y-110826575D01*
X124672418Y-110872451D01*
X124672700Y-110878901D01*
X124672700Y-113360364D01*
X124669131Y-113381372D01*
X124668838Y-113383976D01*
X124672467Y-113416190D01*
X124672700Y-113420335D01*
X124672700Y-113429591D01*
X124674757Y-113438608D01*
X124675452Y-113442698D01*
X124679083Y-113474923D01*
X124679943Y-113477380D01*
X124686784Y-113493894D01*
X124687908Y-113496229D01*
X124708128Y-113521584D01*
X124710528Y-113524966D01*
X124715452Y-113532801D01*
X124721992Y-113539341D01*
X124724758Y-113542437D01*
X124742119Y-113564206D01*
X124744976Y-113567788D01*
X124744977Y-113567788D01*
X124747038Y-113569432D01*
X124764403Y-113581752D01*
X124931469Y-113748819D01*
X124952861Y-113794694D01*
X124946838Y-113831034D01*
X124919914Y-113892011D01*
X124917000Y-113917135D01*
X124917000Y-114306863D01*
X124919914Y-114331986D01*
X124919915Y-114331992D01*
X124965294Y-114434765D01*
X125044735Y-114514206D01*
X125056284Y-114519306D01*
X125092804Y-114554357D01*
X125098249Y-114604682D01*
X125070073Y-114646734D01*
X125056284Y-114654694D01*
X125044735Y-114659793D01*
X124965294Y-114739234D01*
X124919914Y-114842011D01*
X124917000Y-114867135D01*
X124917000Y-115256863D01*
X124919914Y-115281986D01*
X124919915Y-115281992D01*
X124938052Y-115323068D01*
X124965294Y-115384765D01*
X125044735Y-115464206D01*
X125147509Y-115509585D01*
X125172635Y-115512500D01*
X126287364Y-115512499D01*
X126312491Y-115509585D01*
X126415265Y-115464206D01*
X126494706Y-115384765D01*
X126529215Y-115306608D01*
X126564264Y-115270090D01*
X126596909Y-115262500D01*
X127139632Y-115262500D01*
X127187198Y-115279813D01*
X127209265Y-115318033D01*
X127210759Y-115317572D01*
X127212457Y-115323068D01*
X127266580Y-115433779D01*
X127266581Y-115433780D01*
X127353720Y-115520919D01*
X127464433Y-115575043D01*
X127536205Y-115585500D01*
X128043794Y-115585499D01*
X128115561Y-115575044D01*
X128115561Y-115575043D01*
X128115567Y-115575043D01*
X128226280Y-115520919D01*
X128313419Y-115433780D01*
X128367543Y-115323067D01*
X128378000Y-115251295D01*
X128378000Y-115251294D01*
X128777000Y-115251294D01*
X128787455Y-115323061D01*
X128787457Y-115323068D01*
X128841580Y-115433779D01*
X128841581Y-115433780D01*
X128928720Y-115520919D01*
X129039433Y-115575043D01*
X129111205Y-115585500D01*
X129618794Y-115585499D01*
X129690561Y-115575044D01*
X129690561Y-115575043D01*
X129690567Y-115575043D01*
X129801280Y-115520919D01*
X129888419Y-115433780D01*
X129942543Y-115323067D01*
X129953000Y-115251295D01*
X129952999Y-114668706D01*
X129952676Y-114666489D01*
X129942544Y-114596938D01*
X129942542Y-114596932D01*
X129888419Y-114486220D01*
X129801280Y-114399081D01*
X129756407Y-114377144D01*
X129690564Y-114344955D01*
X129685079Y-114343261D01*
X129685749Y-114341090D01*
X129649238Y-114321420D01*
X129630532Y-114274385D01*
X129630500Y-114272205D01*
X129630500Y-113774272D01*
X129647813Y-113726706D01*
X129691650Y-113701396D01*
X129693778Y-113701053D01*
X129731393Y-113695573D01*
X129836483Y-113644198D01*
X129919198Y-113561483D01*
X129970573Y-113456393D01*
X129980500Y-113388260D01*
X129980500Y-112771740D01*
X129970573Y-112703607D01*
X129919198Y-112598517D01*
X129836483Y-112515802D01*
X129836482Y-112515801D01*
X129731394Y-112464427D01*
X129663264Y-112454500D01*
X129663260Y-112454500D01*
X129196740Y-112454500D01*
X129196735Y-112454500D01*
X129128606Y-112464427D01*
X129128605Y-112464427D01*
X129023517Y-112515801D01*
X128940801Y-112598517D01*
X128889427Y-112703605D01*
X128889427Y-112703606D01*
X128879500Y-112771735D01*
X128879500Y-113388264D01*
X128889427Y-113456393D01*
X128889427Y-113456394D01*
X128940801Y-113561482D01*
X128940802Y-113561483D01*
X129023517Y-113644198D01*
X129128607Y-113695573D01*
X129166171Y-113701046D01*
X129210742Y-113725035D01*
X129229467Y-113772063D01*
X129229500Y-113774272D01*
X129229500Y-114260500D01*
X129212187Y-114308066D01*
X129168350Y-114333376D01*
X129155502Y-114334500D01*
X129111205Y-114334500D01*
X129039438Y-114344955D01*
X129039431Y-114344957D01*
X128928720Y-114399080D01*
X128841580Y-114486220D01*
X128787457Y-114596931D01*
X128787457Y-114596932D01*
X128777000Y-114668700D01*
X128777000Y-115251294D01*
X128378000Y-115251294D01*
X128377999Y-114668706D01*
X128377676Y-114666489D01*
X128367544Y-114596938D01*
X128367542Y-114596932D01*
X128313419Y-114486220D01*
X128226280Y-114399081D01*
X128226279Y-114399080D01*
X128115568Y-114344957D01*
X128055497Y-114336205D01*
X128043795Y-114334500D01*
X128043794Y-114334500D01*
X127536205Y-114334500D01*
X127464438Y-114344955D01*
X127464431Y-114344957D01*
X127353720Y-114399080D01*
X127266580Y-114486220D01*
X127212457Y-114596931D01*
X127212457Y-114596932D01*
X127202000Y-114668700D01*
X127202000Y-114787500D01*
X127184687Y-114835066D01*
X127140850Y-114860376D01*
X127128000Y-114861500D01*
X126596909Y-114861500D01*
X126549343Y-114844187D01*
X126529215Y-114817392D01*
X126494706Y-114739235D01*
X126415265Y-114659794D01*
X126403715Y-114654694D01*
X126367196Y-114619645D01*
X126361749Y-114569320D01*
X126389925Y-114527267D01*
X126403713Y-114519306D01*
X126415265Y-114514206D01*
X126494706Y-114434765D01*
X126540085Y-114331991D01*
X126543000Y-114306865D01*
X126542999Y-113917136D01*
X126540085Y-113892009D01*
X126494706Y-113789235D01*
X126415265Y-113709794D01*
X126403715Y-113704694D01*
X126367196Y-113669645D01*
X126361749Y-113619320D01*
X126389925Y-113577267D01*
X126403713Y-113569306D01*
X126415265Y-113564206D01*
X126494706Y-113484765D01*
X126540085Y-113381991D01*
X126543000Y-113356865D01*
X126542999Y-113180000D01*
X127180001Y-113180000D01*
X127180001Y-113386482D01*
X127194834Y-113480148D01*
X127194835Y-113480149D01*
X127252360Y-113593046D01*
X127341953Y-113682639D01*
X127454850Y-113740164D01*
X127548518Y-113754999D01*
X127680000Y-113754999D01*
X127680000Y-113180000D01*
X127880000Y-113180000D01*
X127880000Y-113754999D01*
X128011481Y-113754999D01*
X128105148Y-113740165D01*
X128105149Y-113740164D01*
X128218046Y-113682639D01*
X128307639Y-113593046D01*
X128365164Y-113480149D01*
X128365164Y-113480148D01*
X128380000Y-113386481D01*
X128380000Y-113180000D01*
X127880000Y-113180000D01*
X127680000Y-113180000D01*
X127180001Y-113180000D01*
X126542999Y-113180000D01*
X126542999Y-113131199D01*
X126560312Y-113083634D01*
X126564662Y-113078885D01*
X127104580Y-112538967D01*
X127150455Y-112517576D01*
X127199350Y-112530677D01*
X127228384Y-112572141D01*
X127223972Y-112622568D01*
X127222839Y-112624889D01*
X127194836Y-112679847D01*
X127194835Y-112679851D01*
X127180000Y-112773518D01*
X127180000Y-112980000D01*
X127680000Y-112980000D01*
X127680000Y-112405000D01*
X127880000Y-112405000D01*
X127880000Y-112980000D01*
X128379999Y-112980000D01*
X128379999Y-112773517D01*
X128365165Y-112679851D01*
X128365164Y-112679850D01*
X128307639Y-112566953D01*
X128218046Y-112477360D01*
X128105149Y-112419835D01*
X128011482Y-112405000D01*
X127880000Y-112405000D01*
X127680000Y-112405000D01*
X127548518Y-112405000D01*
X127548517Y-112405001D01*
X127454851Y-112419834D01*
X127454847Y-112419836D01*
X127399889Y-112447839D01*
X127349648Y-112454008D01*
X127307195Y-112426439D01*
X127292395Y-112378032D01*
X127312174Y-112331437D01*
X127313939Y-112329608D01*
X127512135Y-112131412D01*
X127558010Y-112110021D01*
X127575129Y-112110512D01*
X127609364Y-112115500D01*
X127609370Y-112115500D01*
X128130630Y-112115500D01*
X128130636Y-112115500D01*
X128203625Y-112104866D01*
X128316211Y-112049826D01*
X128404826Y-111961211D01*
X128459866Y-111848625D01*
X128470500Y-111775636D01*
X128470500Y-111204364D01*
X128470500Y-111203700D01*
X128487813Y-111156134D01*
X128492174Y-111151374D01*
X128633675Y-111009874D01*
X128679552Y-110988482D01*
X128686001Y-110988200D01*
X128781582Y-110988200D01*
X128829148Y-111005513D01*
X128854458Y-111049350D01*
X128848063Y-111094700D01*
X128830134Y-111131373D01*
X128830134Y-111131374D01*
X128819500Y-111204359D01*
X128819500Y-111775640D01*
X128830134Y-111848625D01*
X128830134Y-111848626D01*
X128885173Y-111961210D01*
X128885174Y-111961211D01*
X128973789Y-112049826D01*
X129086375Y-112104866D01*
X129159364Y-112115500D01*
X129159370Y-112115500D01*
X129680630Y-112115500D01*
X129680636Y-112115500D01*
X129753625Y-112104866D01*
X129866211Y-112049826D01*
X129954826Y-111961211D01*
X129967212Y-111935873D01*
X130003655Y-111900745D01*
X130054154Y-111897259D01*
X130078741Y-111909666D01*
X130119015Y-111940569D01*
X130123175Y-111943761D01*
X130257091Y-111999230D01*
X130400800Y-112018150D01*
X130544509Y-111999230D01*
X130678425Y-111943761D01*
X130793421Y-111855521D01*
X130881661Y-111740525D01*
X130937130Y-111606609D01*
X130956050Y-111462900D01*
X130937130Y-111319191D01*
X130881661Y-111185275D01*
X130821787Y-111107246D01*
X130806566Y-111058973D01*
X130825937Y-111012207D01*
X130870836Y-110988833D01*
X130880496Y-110988200D01*
X132415350Y-110988200D01*
X132462916Y-111005513D01*
X132488226Y-111049350D01*
X132488717Y-111071858D01*
X132486750Y-111086800D01*
X132487790Y-111094700D01*
X132505669Y-111230508D01*
X132561138Y-111364423D01*
X132561139Y-111364425D01*
X132626218Y-111449237D01*
X132641440Y-111497512D01*
X132622069Y-111544278D01*
X132612560Y-111552992D01*
X132556280Y-111596178D01*
X132468038Y-111711176D01*
X132412569Y-111845091D01*
X132393650Y-111988800D01*
X132412569Y-112132508D01*
X132468038Y-112266423D01*
X132468043Y-112266431D01*
X132499207Y-112307044D01*
X132514500Y-112352093D01*
X132514500Y-112801590D01*
X132497187Y-112849156D01*
X132470390Y-112869285D01*
X132392234Y-112903794D01*
X132312794Y-112983234D01*
X132267414Y-113086011D01*
X132264500Y-113111135D01*
X132264500Y-114850863D01*
X132267414Y-114875986D01*
X132267415Y-114875992D01*
X132312794Y-114978765D01*
X132392235Y-115058206D01*
X132495009Y-115103585D01*
X132520135Y-115106500D01*
X132909864Y-115106499D01*
X132934991Y-115103585D01*
X133037765Y-115058206D01*
X133117206Y-114978765D01*
X133162585Y-114875991D01*
X133165500Y-114850865D01*
X133165499Y-113111136D01*
X133162585Y-113086009D01*
X133117206Y-112983235D01*
X133037765Y-112903794D01*
X132959610Y-112869285D01*
X132923089Y-112834234D01*
X132915500Y-112801590D01*
X132915500Y-112613343D01*
X132932813Y-112565777D01*
X132976650Y-112540467D01*
X132979820Y-112539979D01*
X133092609Y-112525130D01*
X133226525Y-112469661D01*
X133341521Y-112381421D01*
X133429761Y-112266425D01*
X133485230Y-112132509D01*
X133502747Y-111999454D01*
X133526119Y-111954557D01*
X133572885Y-111935185D01*
X133621161Y-111950407D01*
X133628439Y-111956789D01*
X133762826Y-112091175D01*
X133784218Y-112137051D01*
X133784500Y-112143501D01*
X133784500Y-112801590D01*
X133767187Y-112849156D01*
X133740390Y-112869285D01*
X133662234Y-112903794D01*
X133582794Y-112983234D01*
X133537414Y-113086011D01*
X133534500Y-113111135D01*
X133534500Y-114850863D01*
X133537414Y-114875986D01*
X133537415Y-114875992D01*
X133582794Y-114978765D01*
X133605472Y-115001443D01*
X133626864Y-115047319D01*
X133613763Y-115096214D01*
X133598196Y-115112476D01*
X133559879Y-115141878D01*
X133559876Y-115141881D01*
X133471640Y-115256872D01*
X133471638Y-115256876D01*
X133416169Y-115390791D01*
X133397250Y-115534500D01*
X133416169Y-115678208D01*
X133466713Y-115800232D01*
X133471639Y-115812125D01*
X133559879Y-115927121D01*
X133674875Y-116015361D01*
X133808791Y-116070830D01*
X133952500Y-116089750D01*
X134096209Y-116070830D01*
X134127654Y-116057804D01*
X134178221Y-116055597D01*
X134208296Y-116073846D01*
X134579826Y-116445375D01*
X134601218Y-116491251D01*
X134601500Y-116497701D01*
X134601500Y-116501590D01*
X134584187Y-116549156D01*
X134557390Y-116569285D01*
X134535218Y-116579075D01*
X134486132Y-116600749D01*
X134472962Y-116606564D01*
X134472407Y-116605307D01*
X134430769Y-116616003D01*
X134385656Y-116594681D01*
X134358189Y-116567214D01*
X134253249Y-116515912D01*
X134185218Y-116506000D01*
X133818788Y-116506000D01*
X133818776Y-116506001D01*
X133750749Y-116515912D01*
X133645811Y-116567213D01*
X133635529Y-116577495D01*
X133589652Y-116598886D01*
X133542092Y-116586695D01*
X133514986Y-116568583D01*
X133449211Y-116555500D01*
X133387702Y-116555500D01*
X133340136Y-116538187D01*
X133335376Y-116533826D01*
X132956153Y-116154604D01*
X132943832Y-116137238D01*
X132942186Y-116135174D01*
X132916837Y-116114958D01*
X132913741Y-116112192D01*
X132907201Y-116105652D01*
X132899366Y-116100728D01*
X132895984Y-116098328D01*
X132870629Y-116078108D01*
X132868294Y-116076984D01*
X132851780Y-116070143D01*
X132849323Y-116069283D01*
X132817098Y-116065652D01*
X132813008Y-116064957D01*
X132803991Y-116062900D01*
X132803990Y-116062900D01*
X132794736Y-116062900D01*
X132790591Y-116062667D01*
X132758375Y-116059038D01*
X132758374Y-116059038D01*
X132758373Y-116059038D01*
X132755762Y-116059332D01*
X132734764Y-116062900D01*
X131756209Y-116062900D01*
X131708643Y-116045587D01*
X131683333Y-116001750D01*
X131687842Y-115960582D01*
X131688041Y-115960102D01*
X131731530Y-115855109D01*
X131750450Y-115711400D01*
X131731530Y-115567691D01*
X131676061Y-115433775D01*
X131660790Y-115413874D01*
X131645500Y-115368827D01*
X131645500Y-115160409D01*
X131662813Y-115112843D01*
X131689607Y-115092715D01*
X131767765Y-115058206D01*
X131847206Y-114978765D01*
X131892585Y-114875991D01*
X131895500Y-114850865D01*
X131895499Y-113111136D01*
X131892585Y-113086009D01*
X131847206Y-112983235D01*
X131767765Y-112903794D01*
X131664991Y-112858415D01*
X131664990Y-112858414D01*
X131664988Y-112858414D01*
X131643659Y-112855940D01*
X131639865Y-112855500D01*
X131639864Y-112855500D01*
X131250136Y-112855500D01*
X131225013Y-112858414D01*
X131225007Y-112858415D01*
X131122234Y-112903794D01*
X131042794Y-112983234D01*
X130997414Y-113086011D01*
X130994500Y-113111135D01*
X130994500Y-114850863D01*
X130997414Y-114875986D01*
X130997415Y-114875992D01*
X131042794Y-114978765D01*
X131111166Y-115047137D01*
X131132558Y-115093013D01*
X131119457Y-115141908D01*
X131077993Y-115170942D01*
X131068501Y-115172830D01*
X131051491Y-115175069D01*
X130917576Y-115230538D01*
X130802579Y-115318779D01*
X130714338Y-115433776D01*
X130658869Y-115567691D01*
X130639950Y-115711400D01*
X130658869Y-115855108D01*
X130678385Y-115902224D01*
X130702358Y-115960101D01*
X130702558Y-115960582D01*
X130704766Y-116011152D01*
X130673951Y-116051311D01*
X130634191Y-116062900D01*
X124195238Y-116062900D01*
X124174233Y-116059331D01*
X124171626Y-116059037D01*
X124171624Y-116059037D01*
X124139403Y-116062667D01*
X124135258Y-116062900D01*
X124126007Y-116062900D01*
X124116990Y-116064957D01*
X124112903Y-116065651D01*
X124080675Y-116069283D01*
X124078233Y-116070138D01*
X124061713Y-116076981D01*
X124059366Y-116078111D01*
X124034013Y-116098327D01*
X124030634Y-116100725D01*
X124022803Y-116105647D01*
X124022795Y-116105653D01*
X124016249Y-116112199D01*
X124013157Y-116114962D01*
X123987809Y-116135177D01*
X123987439Y-116135642D01*
X123986532Y-116136195D01*
X123981295Y-116140373D01*
X123980771Y-116139716D01*
X123944244Y-116162034D01*
X123929587Y-116163500D01*
X123389735Y-116163500D01*
X123321606Y-116173427D01*
X123321605Y-116173427D01*
X123216517Y-116224801D01*
X123133801Y-116307517D01*
X123082427Y-116412605D01*
X123082427Y-116412606D01*
X123072500Y-116480735D01*
X123072500Y-116947264D01*
X123082427Y-117015393D01*
X123082427Y-117015394D01*
X123133801Y-117120482D01*
X123133802Y-117120483D01*
X123216517Y-117203198D01*
X123321607Y-117254573D01*
X123389740Y-117264500D01*
X123389746Y-117264500D01*
X124006254Y-117264500D01*
X124006260Y-117264500D01*
X124074393Y-117254573D01*
X124179483Y-117203198D01*
X124262198Y-117120483D01*
X124313573Y-117015393D01*
X124323500Y-116947260D01*
X124323500Y-116537900D01*
X124340813Y-116490334D01*
X124384650Y-116465024D01*
X124397500Y-116463900D01*
X125215499Y-116463900D01*
X125263065Y-116481213D01*
X125288375Y-116525050D01*
X125279585Y-116574900D01*
X125267825Y-116590226D01*
X124647302Y-117210747D01*
X124629923Y-117223079D01*
X124627873Y-117224714D01*
X124607658Y-117250062D01*
X124604897Y-117253151D01*
X124598356Y-117259693D01*
X124598349Y-117259703D01*
X124593428Y-117267532D01*
X124591030Y-117270911D01*
X124570811Y-117296266D01*
X124569681Y-117298613D01*
X124562843Y-117315121D01*
X124561984Y-117317575D01*
X124558353Y-117349795D01*
X124557659Y-117353884D01*
X124555600Y-117362909D01*
X124555600Y-117372163D01*
X124555367Y-117376308D01*
X124551738Y-117408524D01*
X124552034Y-117411156D01*
X124555600Y-117432135D01*
X124555600Y-119224198D01*
X124538287Y-119271764D01*
X124533926Y-119276524D01*
X123986625Y-119823826D01*
X123940749Y-119845218D01*
X123934299Y-119845500D01*
X123389735Y-119845500D01*
X123321606Y-119855427D01*
X123321605Y-119855427D01*
X123216517Y-119906801D01*
X123133801Y-119989517D01*
X123082427Y-120094605D01*
X123082427Y-120094606D01*
X123072500Y-120162735D01*
X123072500Y-120629264D01*
X123082427Y-120697393D01*
X123082427Y-120697394D01*
X123133801Y-120802482D01*
X123133802Y-120802483D01*
X123216517Y-120885198D01*
X123321607Y-120936573D01*
X123389740Y-120946500D01*
X123389746Y-120946500D01*
X124006254Y-120946500D01*
X124006260Y-120946500D01*
X124074393Y-120936573D01*
X124179483Y-120885198D01*
X124262198Y-120802483D01*
X124313573Y-120697393D01*
X124323500Y-120629260D01*
X124323500Y-120162740D01*
X124315030Y-120104609D01*
X124325304Y-120055046D01*
X124335927Y-120041620D01*
X124864897Y-119512650D01*
X124882258Y-119500334D01*
X124884319Y-119498690D01*
X124884324Y-119498688D01*
X124904539Y-119473338D01*
X124907287Y-119470261D01*
X124913848Y-119463702D01*
X124918772Y-119455862D01*
X124921175Y-119452477D01*
X124933820Y-119436623D01*
X124941390Y-119427131D01*
X124941390Y-119427128D01*
X124942540Y-119424741D01*
X124949340Y-119408325D01*
X124950214Y-119405827D01*
X124950214Y-119405825D01*
X124950215Y-119405824D01*
X124953845Y-119373597D01*
X124954535Y-119369533D01*
X124956600Y-119360490D01*
X124956600Y-119351233D01*
X124956833Y-119347088D01*
X124958175Y-119335164D01*
X124960462Y-119314874D01*
X124960460Y-119314868D01*
X124960168Y-119312272D01*
X124956600Y-119291264D01*
X124956600Y-117499200D01*
X124973913Y-117451634D01*
X124978263Y-117446885D01*
X125125174Y-117299973D01*
X125171050Y-117278582D01*
X125219945Y-117291683D01*
X125248979Y-117333147D01*
X125251500Y-117352300D01*
X125251500Y-118637519D01*
X125266353Y-118731304D01*
X125266354Y-118731306D01*
X125317406Y-118831499D01*
X125323950Y-118844342D01*
X125413658Y-118934050D01*
X125526696Y-118991646D01*
X125620481Y-119006500D01*
X126783900Y-119006499D01*
X126831466Y-119023812D01*
X126856776Y-119067649D01*
X126857900Y-119080499D01*
X126857900Y-119695847D01*
X126840587Y-119743413D01*
X126812219Y-119764214D01*
X126780776Y-119777238D01*
X126665779Y-119865479D01*
X126577538Y-119980476D01*
X126522069Y-120114391D01*
X126503150Y-120258100D01*
X126522069Y-120401808D01*
X126535094Y-120433252D01*
X126537302Y-120483823D01*
X126519053Y-120513896D01*
X126419123Y-120613826D01*
X126373247Y-120635218D01*
X126366797Y-120635500D01*
X125620480Y-120635500D01*
X125526695Y-120650353D01*
X125526693Y-120650354D01*
X125413657Y-120707950D01*
X125323951Y-120797656D01*
X125303814Y-120837176D01*
X125275980Y-120891805D01*
X125266353Y-120910698D01*
X125251500Y-121004480D01*
X125251500Y-121565560D01*
X125234187Y-121613126D01*
X125190350Y-121638436D01*
X125140500Y-121629646D01*
X125132457Y-121624272D01*
X125019425Y-121537539D01*
X125019423Y-121537538D01*
X124885508Y-121482069D01*
X124741800Y-121463150D01*
X124598091Y-121482069D01*
X124464176Y-121537538D01*
X124464172Y-121537540D01*
X124345331Y-121628731D01*
X124344087Y-121627109D01*
X124305243Y-121645207D01*
X124256354Y-121632089D01*
X124246493Y-121623812D01*
X124179482Y-121556801D01*
X124074394Y-121505427D01*
X124006264Y-121495500D01*
X124006260Y-121495500D01*
X123389740Y-121495500D01*
X123389735Y-121495500D01*
X123321606Y-121505427D01*
X123321605Y-121505427D01*
X123216517Y-121556801D01*
X123133801Y-121639517D01*
X123082427Y-121744605D01*
X123082427Y-121744606D01*
X123072500Y-121812735D01*
X123072500Y-122279264D01*
X123082427Y-122347393D01*
X123082427Y-122347394D01*
X123133801Y-122452482D01*
X123133802Y-122452483D01*
X123216517Y-122535198D01*
X123321607Y-122586573D01*
X123389740Y-122596500D01*
X123389746Y-122596500D01*
X124006254Y-122596500D01*
X124006260Y-122596500D01*
X124074393Y-122586573D01*
X124179483Y-122535198D01*
X124262198Y-122452483D01*
X124262199Y-122452479D01*
X124265760Y-122447494D01*
X124267510Y-122448743D01*
X124297356Y-122419964D01*
X124347854Y-122416470D01*
X124372451Y-122428878D01*
X124464175Y-122499261D01*
X124598091Y-122554730D01*
X124741800Y-122573650D01*
X124885509Y-122554730D01*
X125019425Y-122499261D01*
X125132454Y-122412529D01*
X125180727Y-122397309D01*
X125227493Y-122416680D01*
X125250867Y-122461579D01*
X125251500Y-122471238D01*
X125251500Y-122567519D01*
X125266353Y-122661304D01*
X125266354Y-122661306D01*
X125305908Y-122738933D01*
X125323950Y-122774342D01*
X125413658Y-122864050D01*
X125526696Y-122921646D01*
X125620481Y-122936500D01*
X127363518Y-122936499D01*
X127363519Y-122936499D01*
X127457304Y-122921646D01*
X127457306Y-122921645D01*
X127459419Y-122920568D01*
X127570342Y-122864050D01*
X127660050Y-122774342D01*
X127717646Y-122661304D01*
X127732500Y-122567519D01*
X127732499Y-121004482D01*
X127728814Y-120981216D01*
X127717646Y-120910695D01*
X127717645Y-120910693D01*
X127687770Y-120852061D01*
X127660050Y-120797658D01*
X127570342Y-120707950D01*
X127532266Y-120688549D01*
X127497744Y-120651529D01*
X127495096Y-120600979D01*
X127507155Y-120577565D01*
X127511071Y-120572462D01*
X127539261Y-120535725D01*
X127594730Y-120401809D01*
X127613650Y-120258100D01*
X127594730Y-120114391D01*
X127539261Y-119980475D01*
X127451021Y-119865479D01*
X127336025Y-119777239D01*
X127336023Y-119777238D01*
X127304581Y-119764214D01*
X127267261Y-119730016D01*
X127258900Y-119695847D01*
X127258900Y-119080499D01*
X127276213Y-119032933D01*
X127320050Y-119007623D01*
X127332900Y-119006499D01*
X127363519Y-119006499D01*
X127457304Y-118991646D01*
X127457306Y-118991645D01*
X127483597Y-118978249D01*
X127570342Y-118934050D01*
X127660050Y-118844342D01*
X127717646Y-118731304D01*
X127732500Y-118637519D01*
X127732499Y-117555499D01*
X127749812Y-117507934D01*
X127793649Y-117482624D01*
X127806499Y-117481500D01*
X127877501Y-117481500D01*
X127925067Y-117498813D01*
X127950377Y-117542650D01*
X127951501Y-117555500D01*
X127951501Y-117750863D01*
X127954414Y-117775986D01*
X127954415Y-117775992D01*
X127970977Y-117813500D01*
X127999794Y-117878765D01*
X128079235Y-117958206D01*
X128182009Y-118003585D01*
X128207135Y-118006500D01*
X128235860Y-118006499D01*
X128283424Y-118023810D01*
X128308735Y-118067647D01*
X128299947Y-118117497D01*
X128298114Y-118120504D01*
X128275024Y-118156435D01*
X128275021Y-118156439D01*
X128236500Y-118287630D01*
X128236500Y-118424369D01*
X128275021Y-118555560D01*
X128275022Y-118555561D01*
X128301820Y-118597260D01*
X128348662Y-118670150D01*
X128348945Y-118670589D01*
X128452282Y-118760130D01*
X128576658Y-118816931D01*
X128677989Y-118831500D01*
X128677995Y-118831500D01*
X128746005Y-118831500D01*
X128746011Y-118831500D01*
X128847342Y-118816931D01*
X128971718Y-118760130D01*
X129075055Y-118670589D01*
X129148978Y-118555561D01*
X129174211Y-118469625D01*
X129187500Y-118424369D01*
X129187500Y-118287630D01*
X129147487Y-118151362D01*
X129150139Y-118150582D01*
X129146921Y-118110310D01*
X129176266Y-118069065D01*
X129218254Y-118055999D01*
X129385211Y-118055999D01*
X129385224Y-118055998D01*
X129453250Y-118046087D01*
X129558186Y-117994787D01*
X129568465Y-117984508D01*
X129614341Y-117963114D01*
X129661904Y-117975302D01*
X129689014Y-117993417D01*
X129754789Y-118006500D01*
X129949210Y-118006499D01*
X130014986Y-117993417D01*
X130060889Y-117962745D01*
X130110055Y-117950714D01*
X130143109Y-117962744D01*
X130189014Y-117993417D01*
X130254789Y-118006500D01*
X130449210Y-118006499D01*
X130514986Y-117993417D01*
X130560889Y-117962745D01*
X130610055Y-117950714D01*
X130643109Y-117962744D01*
X130689014Y-117993417D01*
X130754789Y-118006500D01*
X130812197Y-118006499D01*
X130859763Y-118023811D01*
X130864524Y-118028173D01*
X130984347Y-118147996D01*
X130996673Y-118165369D01*
X130998312Y-118167425D01*
X131008086Y-118175219D01*
X131023666Y-118187643D01*
X131026757Y-118190406D01*
X131033299Y-118196948D01*
X131041128Y-118201868D01*
X131044513Y-118204270D01*
X131069865Y-118224488D01*
X131072246Y-118225634D01*
X131088723Y-118232458D01*
X131091174Y-118233316D01*
X131096370Y-118233901D01*
X131123415Y-118236947D01*
X131127479Y-118237638D01*
X131136510Y-118239700D01*
X131145764Y-118239700D01*
X131149909Y-118239933D01*
X131160317Y-118241105D01*
X131182126Y-118243562D01*
X131182131Y-118243560D01*
X131184737Y-118243267D01*
X131205736Y-118239700D01*
X131277900Y-118239700D01*
X131325466Y-118257013D01*
X131350776Y-118300850D01*
X131351900Y-118313700D01*
X131351900Y-118754664D01*
X131348331Y-118775672D01*
X131348038Y-118778276D01*
X131351667Y-118810490D01*
X131351900Y-118814635D01*
X131351900Y-118823891D01*
X131353957Y-118832908D01*
X131354652Y-118836998D01*
X131358283Y-118869223D01*
X131359143Y-118871680D01*
X131365984Y-118888194D01*
X131367108Y-118890529D01*
X131387328Y-118915884D01*
X131389728Y-118919266D01*
X131394652Y-118927101D01*
X131401192Y-118933641D01*
X131403958Y-118936737D01*
X131424174Y-118962086D01*
X131424176Y-118962088D01*
X131424177Y-118962088D01*
X131426238Y-118963732D01*
X131443604Y-118976053D01*
X135515847Y-123048297D01*
X135528173Y-123065669D01*
X135529812Y-123067725D01*
X135546821Y-123081289D01*
X135555161Y-123087939D01*
X135558252Y-123090702D01*
X135564799Y-123097249D01*
X135572639Y-123102175D01*
X135576015Y-123104572D01*
X135592409Y-123117645D01*
X135618803Y-123160838D01*
X135611258Y-123210891D01*
X135573305Y-123244385D01*
X135546270Y-123249500D01*
X122074500Y-123249500D01*
X122026934Y-123232187D01*
X122001624Y-123188350D01*
X122000500Y-123175500D01*
X122000500Y-118743026D01*
X122017813Y-118695460D01*
X122061650Y-118670150D01*
X122111500Y-118678940D01*
X122133208Y-118697977D01*
X122135237Y-118700622D01*
X122135239Y-118700625D01*
X122223479Y-118815621D01*
X122338475Y-118903861D01*
X122472391Y-118959330D01*
X122616100Y-118978250D01*
X122759809Y-118959330D01*
X122893725Y-118903861D01*
X123008721Y-118815621D01*
X123031258Y-118786249D01*
X123073947Y-118759052D01*
X123124133Y-118765659D01*
X123142291Y-118778972D01*
X123216517Y-118853198D01*
X123321607Y-118904573D01*
X123389740Y-118914500D01*
X123389746Y-118914500D01*
X124006254Y-118914500D01*
X124006260Y-118914500D01*
X124074393Y-118904573D01*
X124179483Y-118853198D01*
X124262198Y-118770483D01*
X124313573Y-118665393D01*
X124323500Y-118597260D01*
X124323500Y-118130740D01*
X124313573Y-118062607D01*
X124262198Y-117957517D01*
X124179483Y-117874802D01*
X124179482Y-117874801D01*
X124074394Y-117823427D01*
X124006264Y-117813500D01*
X124006260Y-117813500D01*
X123389740Y-117813500D01*
X123389735Y-117813500D01*
X123321606Y-117823427D01*
X123321605Y-117823427D01*
X123216517Y-117874801D01*
X123133801Y-117957517D01*
X123133801Y-117957518D01*
X123113517Y-117999008D01*
X123077072Y-118034137D01*
X123026573Y-118037620D01*
X123001993Y-118025216D01*
X122893725Y-117942139D01*
X122852309Y-117924984D01*
X122759808Y-117886669D01*
X122616100Y-117867750D01*
X122472391Y-117886669D01*
X122338476Y-117942138D01*
X122254490Y-118006583D01*
X122223479Y-118030379D01*
X122162146Y-118110310D01*
X122133208Y-118148022D01*
X122090516Y-118175219D01*
X122040330Y-118168612D01*
X122006133Y-118131291D01*
X122000500Y-118102973D01*
X122000500Y-115256863D01*
X122642000Y-115256863D01*
X122644914Y-115281986D01*
X122644915Y-115281992D01*
X122663052Y-115323068D01*
X122690294Y-115384765D01*
X122769735Y-115464206D01*
X122872509Y-115509585D01*
X122897635Y-115512500D01*
X124012364Y-115512499D01*
X124037491Y-115509585D01*
X124140265Y-115464206D01*
X124219706Y-115384765D01*
X124265085Y-115281991D01*
X124268000Y-115256865D01*
X124267999Y-114867136D01*
X124265085Y-114842009D01*
X124219706Y-114739235D01*
X124192836Y-114712365D01*
X124171444Y-114666489D01*
X124184545Y-114617594D01*
X124192836Y-114607713D01*
X124286344Y-114514205D01*
X124380998Y-114419550D01*
X124398362Y-114407231D01*
X124400418Y-114405590D01*
X124400424Y-114405588D01*
X124420639Y-114380238D01*
X124423405Y-114377144D01*
X124429948Y-114370602D01*
X124434872Y-114362762D01*
X124437275Y-114359377D01*
X124439709Y-114356326D01*
X124457490Y-114334031D01*
X124457490Y-114334028D01*
X124458640Y-114331641D01*
X124465440Y-114315225D01*
X124466314Y-114312727D01*
X124466314Y-114312725D01*
X124466315Y-114312724D01*
X124469945Y-114280497D01*
X124470635Y-114276433D01*
X124472700Y-114267390D01*
X124472700Y-114258133D01*
X124472933Y-114253988D01*
X124474275Y-114242064D01*
X124476562Y-114221774D01*
X124476560Y-114221768D01*
X124476268Y-114219172D01*
X124472700Y-114198164D01*
X124472700Y-111940163D01*
X124480220Y-111907661D01*
X124492572Y-111882395D01*
X124492571Y-111882395D01*
X124492573Y-111882393D01*
X124502500Y-111814260D01*
X124502500Y-111197740D01*
X124492573Y-111129607D01*
X124441198Y-111024517D01*
X124358483Y-110941802D01*
X124358482Y-110941801D01*
X124253394Y-110890427D01*
X124185264Y-110880500D01*
X124185260Y-110880500D01*
X123718740Y-110880500D01*
X123718735Y-110880500D01*
X123650606Y-110890427D01*
X123650605Y-110890427D01*
X123545517Y-110941801D01*
X123462801Y-111024517D01*
X123411427Y-111129605D01*
X123411427Y-111129606D01*
X123401500Y-111197735D01*
X123401500Y-111814264D01*
X123411427Y-111882393D01*
X123411427Y-111882394D01*
X123462801Y-111987482D01*
X123462802Y-111987483D01*
X123545517Y-112070198D01*
X123650607Y-112121573D01*
X123718740Y-112131500D01*
X123997700Y-112131500D01*
X124045266Y-112148813D01*
X124070576Y-112192650D01*
X124071700Y-112205500D01*
X124071700Y-112588000D01*
X124054387Y-112635566D01*
X124010550Y-112660876D01*
X123997700Y-112662000D01*
X123555000Y-112662000D01*
X123555000Y-113661999D01*
X123997700Y-113661999D01*
X124045266Y-113679312D01*
X124070576Y-113723149D01*
X124071700Y-113735999D01*
X124071700Y-114131098D01*
X124054387Y-114178664D01*
X124050026Y-114183424D01*
X123643623Y-114589826D01*
X123597746Y-114611218D01*
X123591297Y-114611500D01*
X122897636Y-114611500D01*
X122872513Y-114614414D01*
X122872507Y-114614415D01*
X122769734Y-114659794D01*
X122690294Y-114739234D01*
X122644914Y-114842011D01*
X122642000Y-114867135D01*
X122642000Y-115256863D01*
X122000500Y-115256863D01*
X122000500Y-113262000D01*
X122592501Y-113262000D01*
X122592501Y-113345224D01*
X122602412Y-113413250D01*
X122653713Y-113518188D01*
X122736310Y-113600785D01*
X122841250Y-113652087D01*
X122909281Y-113661999D01*
X123355000Y-113661999D01*
X123355000Y-113262000D01*
X122592501Y-113262000D01*
X122000500Y-113262000D01*
X122000500Y-113062000D01*
X122592500Y-113062000D01*
X123355000Y-113062000D01*
X123355000Y-112662000D01*
X122909282Y-112662000D01*
X122841249Y-112671912D01*
X122736311Y-112723213D01*
X122653714Y-112805810D01*
X122602412Y-112910750D01*
X122592500Y-112978776D01*
X122592500Y-113062000D01*
X122000500Y-113062000D01*
X122000500Y-96197500D01*
X123280001Y-96197500D01*
X123280001Y-97151705D01*
X123282850Y-97182102D01*
X123282852Y-97182111D01*
X123327652Y-97310143D01*
X123408207Y-97419291D01*
X123408208Y-97419292D01*
X123517356Y-97499847D01*
X123517355Y-97499847D01*
X123645385Y-97544646D01*
X123645393Y-97544648D01*
X123675802Y-97547499D01*
X124280000Y-97547499D01*
X124280000Y-96197500D01*
X124480000Y-96197500D01*
X124480000Y-97547499D01*
X125084194Y-97547499D01*
X125084205Y-97547498D01*
X125114602Y-97544649D01*
X125114611Y-97544647D01*
X125242643Y-97499847D01*
X125351791Y-97419292D01*
X125351792Y-97419291D01*
X125432347Y-97310143D01*
X125477146Y-97182114D01*
X125477148Y-97182106D01*
X125479999Y-97151698D01*
X125480000Y-97151697D01*
X125480000Y-96197500D01*
X124480000Y-96197500D01*
X124280000Y-96197500D01*
X123280001Y-96197500D01*
X122000500Y-96197500D01*
X122000500Y-94574500D01*
X122017813Y-94526934D01*
X122061650Y-94501624D01*
X122074500Y-94500500D01*
X122249901Y-94500500D01*
X122489913Y-94500500D01*
X122537479Y-94517813D01*
G37*
%TD.AperFunction*%
%TA.AperFunction,Conductor*%
G36*
X133763499Y-116904644D02*
G01*
X133778825Y-116916404D01*
X134091094Y-117228673D01*
X134112486Y-117274549D01*
X134099385Y-117323444D01*
X134091094Y-117333325D01*
X133778825Y-117645595D01*
X133732949Y-117666987D01*
X133684054Y-117653886D01*
X133655021Y-117612422D01*
X133652499Y-117593275D01*
X133652499Y-117519728D01*
X133669812Y-117472165D01*
X133674173Y-117467405D01*
X133860578Y-117280999D01*
X133674173Y-117094594D01*
X133652781Y-117048718D01*
X133652499Y-117042268D01*
X133652499Y-116968730D01*
X133669812Y-116921164D01*
X133713649Y-116895854D01*
X133763499Y-116904644D01*
G37*
%TD.AperFunction*%
%TA.AperFunction,Conductor*%
G36*
X128963499Y-116904644D02*
G01*
X128978825Y-116916404D01*
X129291094Y-117228673D01*
X129312486Y-117274549D01*
X129299385Y-117323444D01*
X129291094Y-117333325D01*
X128978825Y-117645594D01*
X128932949Y-117666986D01*
X128884054Y-117653885D01*
X128855020Y-117612421D01*
X128852499Y-117593274D01*
X128852499Y-117519727D01*
X128869812Y-117472164D01*
X128874173Y-117467404D01*
X129060578Y-117280999D01*
X128874173Y-117094594D01*
X128852781Y-117048718D01*
X128852499Y-117042268D01*
X128852499Y-116968730D01*
X128869812Y-116921164D01*
X128913649Y-116895854D01*
X128963499Y-116904644D01*
G37*
%TD.AperFunction*%
%TA.AperFunction,Conductor*%
G36*
X130710394Y-103816033D02*
G01*
X130720274Y-103824323D01*
X131044929Y-104148979D01*
X131356747Y-104460797D01*
X131369071Y-104478167D01*
X131370711Y-104480223D01*
X131370712Y-104480224D01*
X131396061Y-104500439D01*
X131399152Y-104503202D01*
X131405699Y-104509749D01*
X131413539Y-104514675D01*
X131416915Y-104517072D01*
X131442266Y-104537288D01*
X131442269Y-104537290D01*
X131442271Y-104537290D01*
X131444646Y-104538434D01*
X131461115Y-104545254D01*
X131463573Y-104546114D01*
X131463576Y-104546116D01*
X131495779Y-104549744D01*
X131495797Y-104549746D01*
X131499886Y-104550440D01*
X131508910Y-104552500D01*
X131518158Y-104552500D01*
X131522303Y-104552733D01*
X131534243Y-104554077D01*
X131554526Y-104556363D01*
X131554531Y-104556361D01*
X131557133Y-104556068D01*
X131578138Y-104552500D01*
X132194163Y-104552500D01*
X132241729Y-104569813D01*
X132267039Y-104613650D01*
X132260644Y-104659000D01*
X132232412Y-104716748D01*
X132222500Y-104784776D01*
X132222500Y-104868000D01*
X133947499Y-104868000D01*
X133947499Y-104784789D01*
X133947498Y-104784775D01*
X133937587Y-104716751D01*
X133909355Y-104659001D01*
X133904018Y-104608664D01*
X133932285Y-104566673D01*
X133975836Y-104552500D01*
X134893049Y-104552500D01*
X134940615Y-104569813D01*
X134965925Y-104613650D01*
X134966138Y-104638075D01*
X134961000Y-104670517D01*
X134961000Y-104802000D01*
X136310999Y-104802000D01*
X136310999Y-104670517D01*
X136305861Y-104638075D01*
X136315520Y-104588386D01*
X136354859Y-104556531D01*
X136378950Y-104552500D01*
X137401364Y-104552500D01*
X137422362Y-104556067D01*
X137424969Y-104556360D01*
X137424974Y-104556362D01*
X137447715Y-104553800D01*
X137457191Y-104552733D01*
X137461336Y-104552500D01*
X137470589Y-104552500D01*
X137470590Y-104552500D01*
X137479620Y-104550438D01*
X137483686Y-104549747D01*
X137515924Y-104546116D01*
X137515929Y-104546112D01*
X137518426Y-104545239D01*
X137534855Y-104538433D01*
X137537228Y-104537290D01*
X137537231Y-104537290D01*
X137562588Y-104517067D01*
X137565960Y-104514674D01*
X137573801Y-104509748D01*
X137580347Y-104503201D01*
X137583424Y-104500450D01*
X137608788Y-104480224D01*
X137610427Y-104478168D01*
X137622751Y-104460796D01*
X137942135Y-104141412D01*
X137988010Y-104120021D01*
X138005129Y-104120512D01*
X138039364Y-104125500D01*
X138039370Y-104125500D01*
X138560630Y-104125500D01*
X138560636Y-104125500D01*
X138633625Y-104114866D01*
X138746211Y-104059826D01*
X138764274Y-104041763D01*
X138810150Y-104020371D01*
X138859045Y-104033472D01*
X138888079Y-104074936D01*
X138890600Y-104094089D01*
X138890600Y-105110237D01*
X138890600Y-105201763D01*
X138896456Y-105213924D01*
X138897035Y-105215125D01*
X138902507Y-105230761D01*
X138905810Y-105245231D01*
X138915059Y-105256829D01*
X138923874Y-105270858D01*
X138930310Y-105284222D01*
X138930311Y-105284223D01*
X138941909Y-105293472D01*
X138953626Y-105305189D01*
X138962876Y-105316788D01*
X138976238Y-105323223D01*
X138990265Y-105332036D01*
X139001869Y-105341290D01*
X139016336Y-105344592D01*
X139031971Y-105350063D01*
X139045337Y-105356500D01*
X139052851Y-105360119D01*
X139052346Y-105361167D01*
X139087523Y-105383884D01*
X139098369Y-105408019D01*
X139098444Y-105407989D01*
X139099479Y-105410488D01*
X139101114Y-105414126D01*
X139101232Y-105414721D01*
X139101233Y-105414723D01*
X139118048Y-105439889D01*
X139130079Y-105489057D01*
X139118048Y-105522111D01*
X139101233Y-105547276D01*
X139098444Y-105554011D01*
X139096970Y-105553400D01*
X139075241Y-105589211D01*
X139028922Y-105605500D01*
X138908602Y-105605500D01*
X138861036Y-105588187D01*
X138856276Y-105583826D01*
X138319653Y-105047204D01*
X138307332Y-105029838D01*
X138305686Y-105027774D01*
X138280337Y-105007558D01*
X138277241Y-105004792D01*
X138270701Y-104998252D01*
X138262866Y-104993328D01*
X138259484Y-104990928D01*
X138234129Y-104970708D01*
X138231794Y-104969584D01*
X138215280Y-104962743D01*
X138212827Y-104961884D01*
X138205642Y-104961074D01*
X138199862Y-104960423D01*
X138154535Y-104937893D01*
X138135572Y-104901326D01*
X138134767Y-104897278D01*
X138101504Y-104847496D01*
X138051722Y-104814233D01*
X138007820Y-104805500D01*
X137328180Y-104805500D01*
X137306229Y-104809866D01*
X137284277Y-104814233D01*
X137234496Y-104847495D01*
X137234495Y-104847496D01*
X137201232Y-104897279D01*
X137198444Y-104904011D01*
X137196970Y-104903400D01*
X137175241Y-104939211D01*
X137128922Y-104955500D01*
X136608436Y-104955500D01*
X136587437Y-104951932D01*
X136584826Y-104951638D01*
X136584825Y-104951638D01*
X136584824Y-104951638D01*
X136552612Y-104955267D01*
X136548467Y-104955500D01*
X136539208Y-104955500D01*
X136530179Y-104957559D01*
X136526093Y-104958253D01*
X136493877Y-104961884D01*
X136491418Y-104962744D01*
X136474911Y-104969582D01*
X136472569Y-104970709D01*
X136447217Y-104990928D01*
X136443831Y-104993330D01*
X136435999Y-104998251D01*
X136435987Y-104998260D01*
X136429447Y-105004800D01*
X136426356Y-105007563D01*
X136416980Y-105015040D01*
X136368998Y-105031164D01*
X136321877Y-105012673D01*
X136318513Y-105009513D01*
X136311000Y-105002000D01*
X134961001Y-105002000D01*
X134961001Y-105133482D01*
X134975834Y-105227148D01*
X134975835Y-105227149D01*
X135033360Y-105340046D01*
X135122953Y-105429639D01*
X135235850Y-105487164D01*
X135241389Y-105488964D01*
X135240534Y-105491594D01*
X135275486Y-105510936D01*
X135293660Y-105558181D01*
X135277213Y-105606053D01*
X135271998Y-105611850D01*
X134024325Y-106859524D01*
X133978449Y-106880916D01*
X133929554Y-106867815D01*
X133900520Y-106826351D01*
X133897999Y-106807198D01*
X133897999Y-106673136D01*
X133896235Y-106657925D01*
X133895085Y-106648009D01*
X133849706Y-106545235D01*
X133770265Y-106465794D01*
X133667491Y-106420415D01*
X133667490Y-106420414D01*
X133667488Y-106420414D01*
X133646159Y-106417940D01*
X133642365Y-106417500D01*
X133642364Y-106417500D01*
X132527636Y-106417500D01*
X132502513Y-106420414D01*
X132502507Y-106420415D01*
X132399734Y-106465794D01*
X132320294Y-106545234D01*
X132274914Y-106648011D01*
X132272000Y-106673135D01*
X132272000Y-107062863D01*
X132274914Y-107087986D01*
X132274915Y-107087992D01*
X132313401Y-107175153D01*
X132320294Y-107190765D01*
X132399735Y-107270206D01*
X132502509Y-107315585D01*
X132527635Y-107318500D01*
X132943000Y-107318499D01*
X132990566Y-107335812D01*
X133015876Y-107379649D01*
X133017000Y-107392499D01*
X133017000Y-107834847D01*
X132999687Y-107882413D01*
X132955850Y-107907723D01*
X132934475Y-107908354D01*
X132909866Y-107905500D01*
X132520136Y-107905500D01*
X132495013Y-107908414D01*
X132495007Y-107908415D01*
X132392234Y-107953794D01*
X132312794Y-108033234D01*
X132267414Y-108136011D01*
X132264500Y-108161135D01*
X132264500Y-109900863D01*
X132267414Y-109925986D01*
X132267415Y-109925992D01*
X132302892Y-110006339D01*
X132312794Y-110028765D01*
X132392235Y-110108206D01*
X132495009Y-110153585D01*
X132520135Y-110156500D01*
X132729699Y-110156499D01*
X132777264Y-110173811D01*
X132802574Y-110217649D01*
X132793784Y-110267499D01*
X132782024Y-110282825D01*
X132499325Y-110565526D01*
X132453449Y-110586918D01*
X132446999Y-110587200D01*
X130447489Y-110587200D01*
X130399923Y-110569887D01*
X130374613Y-110526050D01*
X130383403Y-110476200D01*
X130395163Y-110460874D01*
X130427092Y-110428945D01*
X130459826Y-110396211D01*
X130514866Y-110283625D01*
X130525500Y-110210636D01*
X130525500Y-109689364D01*
X130514866Y-109616375D01*
X130459826Y-109503789D01*
X130371211Y-109415174D01*
X130371210Y-109415173D01*
X130258626Y-109360134D01*
X130185640Y-109349500D01*
X130185636Y-109349500D01*
X130046636Y-109349500D01*
X130025637Y-109345932D01*
X130023026Y-109345638D01*
X130023025Y-109345638D01*
X130023024Y-109345638D01*
X129990812Y-109349267D01*
X129986667Y-109349500D01*
X129614359Y-109349500D01*
X129541374Y-109360134D01*
X129541373Y-109360134D01*
X129428789Y-109415173D01*
X129340173Y-109503789D01*
X129285134Y-109616373D01*
X129285134Y-109616374D01*
X129274500Y-109689359D01*
X129274500Y-109961298D01*
X129257187Y-110008864D01*
X129252826Y-110013624D01*
X128926826Y-110339624D01*
X128880950Y-110361016D01*
X128832055Y-110347915D01*
X128803021Y-110306451D01*
X128800500Y-110287298D01*
X128800500Y-109131000D01*
X130945001Y-109131000D01*
X130945001Y-109889224D01*
X130954912Y-109957250D01*
X131006213Y-110062188D01*
X131088810Y-110144785D01*
X131193750Y-110196087D01*
X131261781Y-110205999D01*
X131345000Y-110205999D01*
X131345000Y-109131000D01*
X131545000Y-109131000D01*
X131545000Y-110205999D01*
X131628211Y-110205999D01*
X131628224Y-110205998D01*
X131696250Y-110196087D01*
X131801188Y-110144786D01*
X131883785Y-110062189D01*
X131935087Y-109957249D01*
X131944999Y-109889223D01*
X131945000Y-109889212D01*
X131945000Y-109131000D01*
X131545000Y-109131000D01*
X131345000Y-109131000D01*
X130945001Y-109131000D01*
X128800500Y-109131000D01*
X128800500Y-108135180D01*
X128795251Y-108108793D01*
X128791767Y-108091278D01*
X128758504Y-108041496D01*
X128750187Y-108035939D01*
X128708722Y-108008233D01*
X128697692Y-108006039D01*
X128664820Y-107999500D01*
X128664819Y-107999500D01*
X128562801Y-107999500D01*
X128515235Y-107982187D01*
X128489925Y-107938350D01*
X128498715Y-107888500D01*
X128510475Y-107873174D01*
X128669331Y-107714318D01*
X129223497Y-107160150D01*
X129240858Y-107147834D01*
X129242919Y-107146190D01*
X129242924Y-107146188D01*
X129263139Y-107120838D01*
X129265887Y-107117761D01*
X129272448Y-107111202D01*
X129277372Y-107103362D01*
X129279775Y-107099977D01*
X129289335Y-107087991D01*
X129299990Y-107074631D01*
X129299990Y-107074628D01*
X129301140Y-107072241D01*
X129307940Y-107055825D01*
X129308814Y-107053327D01*
X129308814Y-107053325D01*
X129308815Y-107053324D01*
X129312445Y-107021097D01*
X129313135Y-107017033D01*
X129315200Y-107007990D01*
X129315200Y-106998733D01*
X129315433Y-106994588D01*
X129316775Y-106982664D01*
X129319062Y-106962374D01*
X129319060Y-106962368D01*
X129318768Y-106959772D01*
X129315200Y-106938764D01*
X129315200Y-106192500D01*
X129332513Y-106144934D01*
X129376350Y-106119624D01*
X129389200Y-106118500D01*
X129943091Y-106118500D01*
X129990657Y-106135813D01*
X130010784Y-106162607D01*
X130045294Y-106240765D01*
X130124735Y-106320206D01*
X130227509Y-106365585D01*
X130252635Y-106368500D01*
X131214029Y-106368499D01*
X131261595Y-106385812D01*
X131286905Y-106429649D01*
X131278115Y-106479499D01*
X131242348Y-106510866D01*
X131222375Y-106519139D01*
X131107379Y-106607379D01*
X131019138Y-106722376D01*
X130963669Y-106856291D01*
X130944750Y-107000000D01*
X130963669Y-107143706D01*
X130976694Y-107175153D01*
X130978900Y-107225724D01*
X130960652Y-107255796D01*
X130438625Y-107777826D01*
X130392749Y-107799218D01*
X130386299Y-107799500D01*
X129614359Y-107799500D01*
X129541374Y-107810134D01*
X129541373Y-107810134D01*
X129428789Y-107865173D01*
X129340173Y-107953789D01*
X129285134Y-108066373D01*
X129285134Y-108066374D01*
X129274500Y-108139359D01*
X129274500Y-108660640D01*
X129285134Y-108733625D01*
X129285134Y-108733626D01*
X129340173Y-108846210D01*
X129340174Y-108846211D01*
X129428789Y-108934826D01*
X129541375Y-108989866D01*
X129614364Y-109000500D01*
X129614370Y-109000500D01*
X130185630Y-109000500D01*
X130185636Y-109000500D01*
X130258625Y-108989866D01*
X130371211Y-108934826D01*
X130375037Y-108931000D01*
X130945000Y-108931000D01*
X131345000Y-108931000D01*
X131345000Y-107856000D01*
X131545000Y-107856000D01*
X131545000Y-108931000D01*
X131944999Y-108931000D01*
X131944999Y-108172789D01*
X131944998Y-108172775D01*
X131935087Y-108104749D01*
X131883786Y-107999811D01*
X131801189Y-107917214D01*
X131696249Y-107865912D01*
X131628223Y-107856000D01*
X131545000Y-107856000D01*
X131345000Y-107856000D01*
X131261788Y-107856000D01*
X131261776Y-107856001D01*
X131193749Y-107865912D01*
X131088811Y-107917213D01*
X131006214Y-107999810D01*
X130954912Y-108104750D01*
X130945000Y-108172776D01*
X130945000Y-108931000D01*
X130375037Y-108931000D01*
X130459826Y-108846211D01*
X130514866Y-108733625D01*
X130525500Y-108660636D01*
X130525500Y-108261465D01*
X130542813Y-108213899D01*
X130562121Y-108200572D01*
X130560855Y-108198558D01*
X130567169Y-108194589D01*
X130586855Y-108186433D01*
X130589228Y-108185290D01*
X130589231Y-108185290D01*
X130614588Y-108165067D01*
X130617960Y-108162674D01*
X130625801Y-108157748D01*
X130632347Y-108151201D01*
X130635424Y-108148450D01*
X130660788Y-108128224D01*
X130662427Y-108126168D01*
X130674751Y-108108796D01*
X131244203Y-107539345D01*
X131290079Y-107517954D01*
X131324844Y-107523304D01*
X131356291Y-107536330D01*
X131500000Y-107555250D01*
X131643709Y-107536330D01*
X131777625Y-107480861D01*
X131892621Y-107392621D01*
X131980861Y-107277625D01*
X132036330Y-107143709D01*
X132055250Y-107000000D01*
X132036330Y-106856291D01*
X131980861Y-106722375D01*
X131892621Y-106607379D01*
X131777625Y-106519139D01*
X131643709Y-106463670D01*
X131643708Y-106463669D01*
X131643710Y-106463669D01*
X131534534Y-106449296D01*
X131489634Y-106425922D01*
X131470263Y-106379156D01*
X131485485Y-106330880D01*
X131491867Y-106323603D01*
X131495263Y-106320206D01*
X131495265Y-106320206D01*
X131574706Y-106240765D01*
X131620085Y-106137991D01*
X131623000Y-106112865D01*
X131622999Y-105723136D01*
X131620085Y-105698009D01*
X131574706Y-105595235D01*
X131495265Y-105515794D01*
X131392491Y-105470415D01*
X131392490Y-105470414D01*
X131392488Y-105470414D01*
X131371159Y-105467940D01*
X131367365Y-105467500D01*
X131367364Y-105467500D01*
X130252636Y-105467500D01*
X130227513Y-105470414D01*
X130227507Y-105470415D01*
X130124734Y-105515794D01*
X130045294Y-105595234D01*
X130034046Y-105620709D01*
X130010784Y-105673391D01*
X129975736Y-105709910D01*
X129943091Y-105717500D01*
X129245000Y-105717500D01*
X129197434Y-105700187D01*
X129172124Y-105656350D01*
X129171000Y-105643500D01*
X129171000Y-105068000D01*
X132222501Y-105068000D01*
X132222501Y-105151224D01*
X132232412Y-105219250D01*
X132283713Y-105324188D01*
X132366310Y-105406785D01*
X132471250Y-105458087D01*
X132539281Y-105467999D01*
X132985000Y-105467999D01*
X132985000Y-105068000D01*
X133185000Y-105068000D01*
X133185000Y-105467999D01*
X133630711Y-105467999D01*
X133630724Y-105467998D01*
X133698750Y-105458087D01*
X133803688Y-105406786D01*
X133886285Y-105324189D01*
X133937587Y-105219249D01*
X133947499Y-105151223D01*
X133947500Y-105151212D01*
X133947500Y-105068000D01*
X133185000Y-105068000D01*
X132985000Y-105068000D01*
X132222501Y-105068000D01*
X129171000Y-105068000D01*
X129171000Y-104362350D01*
X129188313Y-104314784D01*
X129232150Y-104289474D01*
X129273315Y-104293982D01*
X129378691Y-104337630D01*
X129522400Y-104356550D01*
X129666109Y-104337630D01*
X129800025Y-104282161D01*
X129915021Y-104193921D01*
X130003261Y-104078925D01*
X130016285Y-104047479D01*
X130050482Y-104010162D01*
X130084652Y-104001800D01*
X130308464Y-104001800D01*
X130329462Y-104005367D01*
X130332069Y-104005660D01*
X130332074Y-104005662D01*
X130354815Y-104003100D01*
X130364291Y-104002033D01*
X130368436Y-104001800D01*
X130377689Y-104001800D01*
X130377690Y-104001800D01*
X130386720Y-103999738D01*
X130390786Y-103999047D01*
X130423024Y-103995416D01*
X130423029Y-103995412D01*
X130425526Y-103994539D01*
X130441955Y-103987733D01*
X130444328Y-103986590D01*
X130444331Y-103986590D01*
X130469688Y-103966367D01*
X130473060Y-103963974D01*
X130480901Y-103959048D01*
X130487447Y-103952501D01*
X130490524Y-103949750D01*
X130515888Y-103929524D01*
X130517527Y-103927468D01*
X130529851Y-103910096D01*
X130615626Y-103824322D01*
X130661499Y-103802932D01*
X130710394Y-103816033D01*
G37*
%TD.AperFunction*%
%TD*%
M02*
