%TF.GenerationSoftware,KiCad,Pcbnew,7.0.9-7.0.9~ubuntu22.04.1*%
%TF.CreationDate,2023-12-12T12:02:25+02:00*%
%TF.ProjectId,Haply_EE,4861706c-795f-4454-952e-6b696361645f,rev?*%
%TF.SameCoordinates,Original*%
%TF.FileFunction,Legend,Bot*%
%TF.FilePolarity,Positive*%
%FSLAX46Y46*%
G04 Gerber Fmt 4.6, Leading zero omitted, Abs format (unit mm)*
G04 Created by KiCad (PCBNEW 7.0.9-7.0.9~ubuntu22.04.1) date 2023-12-12 12:02:25*
%MOMM*%
%LPD*%
G01*
G04 APERTURE LIST*
%ADD10C,0.150000*%
%ADD11C,0.100000*%
G04 APERTURE END LIST*
D10*
X127901819Y-119367541D02*
X127901819Y-120034207D01*
X127901819Y-120034207D02*
X128901819Y-119605636D01*
X125409438Y-119732588D02*
X125361819Y-119637350D01*
X125361819Y-119637350D02*
X125361819Y-119494493D01*
X125361819Y-119494493D02*
X125409438Y-119351636D01*
X125409438Y-119351636D02*
X125504676Y-119256398D01*
X125504676Y-119256398D02*
X125599914Y-119208779D01*
X125599914Y-119208779D02*
X125790390Y-119161160D01*
X125790390Y-119161160D02*
X125933247Y-119161160D01*
X125933247Y-119161160D02*
X126123723Y-119208779D01*
X126123723Y-119208779D02*
X126218961Y-119256398D01*
X126218961Y-119256398D02*
X126314200Y-119351636D01*
X126314200Y-119351636D02*
X126361819Y-119494493D01*
X126361819Y-119494493D02*
X126361819Y-119589731D01*
X126361819Y-119589731D02*
X126314200Y-119732588D01*
X126314200Y-119732588D02*
X126266580Y-119780207D01*
X126266580Y-119780207D02*
X125933247Y-119780207D01*
X125933247Y-119780207D02*
X125933247Y-119589731D01*
X135363057Y-119669160D02*
X135315438Y-119716779D01*
X135315438Y-119716779D02*
X135267819Y-119812017D01*
X135267819Y-119812017D02*
X135267819Y-120050112D01*
X135267819Y-120050112D02*
X135315438Y-120145350D01*
X135315438Y-120145350D02*
X135363057Y-120192969D01*
X135363057Y-120192969D02*
X135458295Y-120240588D01*
X135458295Y-120240588D02*
X135553533Y-120240588D01*
X135553533Y-120240588D02*
X135696390Y-120192969D01*
X135696390Y-120192969D02*
X136267819Y-119621541D01*
X136267819Y-119621541D02*
X136267819Y-120240588D01*
X130616390Y-119605636D02*
X130568771Y-119510398D01*
X130568771Y-119510398D02*
X130521152Y-119462779D01*
X130521152Y-119462779D02*
X130425914Y-119415160D01*
X130425914Y-119415160D02*
X130378295Y-119415160D01*
X130378295Y-119415160D02*
X130283057Y-119462779D01*
X130283057Y-119462779D02*
X130235438Y-119510398D01*
X130235438Y-119510398D02*
X130187819Y-119605636D01*
X130187819Y-119605636D02*
X130187819Y-119796112D01*
X130187819Y-119796112D02*
X130235438Y-119891350D01*
X130235438Y-119891350D02*
X130283057Y-119938969D01*
X130283057Y-119938969D02*
X130378295Y-119986588D01*
X130378295Y-119986588D02*
X130425914Y-119986588D01*
X130425914Y-119986588D02*
X130521152Y-119938969D01*
X130521152Y-119938969D02*
X130568771Y-119891350D01*
X130568771Y-119891350D02*
X130616390Y-119796112D01*
X130616390Y-119796112D02*
X130616390Y-119605636D01*
X130616390Y-119605636D02*
X130664009Y-119510398D01*
X130664009Y-119510398D02*
X130711628Y-119462779D01*
X130711628Y-119462779D02*
X130806866Y-119415160D01*
X130806866Y-119415160D02*
X130997342Y-119415160D01*
X130997342Y-119415160D02*
X131092580Y-119462779D01*
X131092580Y-119462779D02*
X131140200Y-119510398D01*
X131140200Y-119510398D02*
X131187819Y-119605636D01*
X131187819Y-119605636D02*
X131187819Y-119796112D01*
X131187819Y-119796112D02*
X131140200Y-119891350D01*
X131140200Y-119891350D02*
X131092580Y-119938969D01*
X131092580Y-119938969D02*
X130997342Y-119986588D01*
X130997342Y-119986588D02*
X130806866Y-119986588D01*
X130806866Y-119986588D02*
X130711628Y-119938969D01*
X130711628Y-119938969D02*
X130664009Y-119891350D01*
X130664009Y-119891350D02*
X130616390Y-119796112D01*
X138061819Y-117589541D02*
X138061819Y-118208588D01*
X138061819Y-118208588D02*
X138442771Y-117875255D01*
X138442771Y-117875255D02*
X138442771Y-118018112D01*
X138442771Y-118018112D02*
X138490390Y-118113350D01*
X138490390Y-118113350D02*
X138538009Y-118160969D01*
X138538009Y-118160969D02*
X138633247Y-118208588D01*
X138633247Y-118208588D02*
X138871342Y-118208588D01*
X138871342Y-118208588D02*
X138966580Y-118160969D01*
X138966580Y-118160969D02*
X139014200Y-118113350D01*
X139014200Y-118113350D02*
X139061819Y-118018112D01*
X139061819Y-118018112D02*
X139061819Y-117732398D01*
X139061819Y-117732398D02*
X139014200Y-117637160D01*
X139014200Y-117637160D02*
X138966580Y-117589541D01*
X138061819Y-118494303D02*
X139061819Y-118827636D01*
X139061819Y-118827636D02*
X138061819Y-119160969D01*
X138061819Y-119399065D02*
X138061819Y-120018112D01*
X138061819Y-120018112D02*
X138442771Y-119684779D01*
X138442771Y-119684779D02*
X138442771Y-119827636D01*
X138442771Y-119827636D02*
X138490390Y-119922874D01*
X138490390Y-119922874D02*
X138538009Y-119970493D01*
X138538009Y-119970493D02*
X138633247Y-120018112D01*
X138633247Y-120018112D02*
X138871342Y-120018112D01*
X138871342Y-120018112D02*
X138966580Y-119970493D01*
X138966580Y-119970493D02*
X139014200Y-119922874D01*
X139014200Y-119922874D02*
X139061819Y-119827636D01*
X139061819Y-119827636D02*
X139061819Y-119541922D01*
X139061819Y-119541922D02*
X139014200Y-119446684D01*
X139014200Y-119446684D02*
X138966580Y-119399065D01*
X133727819Y-119224588D02*
X133727819Y-118653160D01*
X133727819Y-118938874D02*
X132727819Y-118938874D01*
X132727819Y-118938874D02*
X132870676Y-118843636D01*
X132870676Y-118843636D02*
X132965914Y-118748398D01*
X132965914Y-118748398D02*
X133013533Y-118653160D01*
X132727819Y-120129350D02*
X132727819Y-119653160D01*
X132727819Y-119653160D02*
X133204009Y-119605541D01*
X133204009Y-119605541D02*
X133156390Y-119653160D01*
X133156390Y-119653160D02*
X133108771Y-119748398D01*
X133108771Y-119748398D02*
X133108771Y-119986493D01*
X133108771Y-119986493D02*
X133156390Y-120081731D01*
X133156390Y-120081731D02*
X133204009Y-120129350D01*
X133204009Y-120129350D02*
X133299247Y-120176969D01*
X133299247Y-120176969D02*
X133537342Y-120176969D01*
X133537342Y-120176969D02*
X133632580Y-120129350D01*
X133632580Y-120129350D02*
X133680200Y-120081731D01*
X133680200Y-120081731D02*
X133727819Y-119986493D01*
X133727819Y-119986493D02*
X133727819Y-119748398D01*
X133727819Y-119748398D02*
X133680200Y-119653160D01*
X133680200Y-119653160D02*
X133632580Y-119605541D01*
X133723332Y-88249819D02*
X133723332Y-87249819D01*
X133723332Y-87249819D02*
X133389999Y-87964104D01*
X133389999Y-87964104D02*
X133056666Y-87249819D01*
X133056666Y-87249819D02*
X133056666Y-88249819D01*
X132389999Y-87249819D02*
X132199523Y-87249819D01*
X132199523Y-87249819D02*
X132104285Y-87297438D01*
X132104285Y-87297438D02*
X132009047Y-87392676D01*
X132009047Y-87392676D02*
X131961428Y-87583152D01*
X131961428Y-87583152D02*
X131961428Y-87916485D01*
X131961428Y-87916485D02*
X132009047Y-88106961D01*
X132009047Y-88106961D02*
X132104285Y-88202200D01*
X132104285Y-88202200D02*
X132199523Y-88249819D01*
X132199523Y-88249819D02*
X132389999Y-88249819D01*
X132389999Y-88249819D02*
X132485237Y-88202200D01*
X132485237Y-88202200D02*
X132580475Y-88106961D01*
X132580475Y-88106961D02*
X132628094Y-87916485D01*
X132628094Y-87916485D02*
X132628094Y-87583152D01*
X132628094Y-87583152D02*
X132580475Y-87392676D01*
X132580475Y-87392676D02*
X132485237Y-87297438D01*
X132485237Y-87297438D02*
X132389999Y-87249819D01*
X131532856Y-88249819D02*
X131532856Y-87249819D01*
X131532856Y-87249819D02*
X131294761Y-87249819D01*
X131294761Y-87249819D02*
X131151904Y-87297438D01*
X131151904Y-87297438D02*
X131056666Y-87392676D01*
X131056666Y-87392676D02*
X131009047Y-87487914D01*
X131009047Y-87487914D02*
X130961428Y-87678390D01*
X130961428Y-87678390D02*
X130961428Y-87821247D01*
X130961428Y-87821247D02*
X131009047Y-88011723D01*
X131009047Y-88011723D02*
X131056666Y-88106961D01*
X131056666Y-88106961D02*
X131151904Y-88202200D01*
X131151904Y-88202200D02*
X131294761Y-88249819D01*
X131294761Y-88249819D02*
X131532856Y-88249819D01*
X130009047Y-88249819D02*
X130580475Y-88249819D01*
X130294761Y-88249819D02*
X130294761Y-87249819D01*
X130294761Y-87249819D02*
X130389999Y-87392676D01*
X130389999Y-87392676D02*
X130485237Y-87487914D01*
X130485237Y-87487914D02*
X130580475Y-87535533D01*
X132714285Y-127931009D02*
X132571428Y-127978628D01*
X132571428Y-127978628D02*
X132523809Y-128026247D01*
X132523809Y-128026247D02*
X132476190Y-128121485D01*
X132476190Y-128121485D02*
X132476190Y-128264342D01*
X132476190Y-128264342D02*
X132523809Y-128359580D01*
X132523809Y-128359580D02*
X132571428Y-128407200D01*
X132571428Y-128407200D02*
X132666666Y-128454819D01*
X132666666Y-128454819D02*
X133047618Y-128454819D01*
X133047618Y-128454819D02*
X133047618Y-127454819D01*
X133047618Y-127454819D02*
X132714285Y-127454819D01*
X132714285Y-127454819D02*
X132619047Y-127502438D01*
X132619047Y-127502438D02*
X132571428Y-127550057D01*
X132571428Y-127550057D02*
X132523809Y-127645295D01*
X132523809Y-127645295D02*
X132523809Y-127740533D01*
X132523809Y-127740533D02*
X132571428Y-127835771D01*
X132571428Y-127835771D02*
X132619047Y-127883390D01*
X132619047Y-127883390D02*
X132714285Y-127931009D01*
X132714285Y-127931009D02*
X133047618Y-127931009D01*
X132095237Y-128169104D02*
X131619047Y-128169104D01*
X132190475Y-128454819D02*
X131857142Y-127454819D01*
X131857142Y-127454819D02*
X131523809Y-128454819D01*
X131333332Y-127454819D02*
X130761904Y-127454819D01*
X131047618Y-128454819D02*
X131047618Y-127454819D01*
X129904761Y-128454819D02*
X130476189Y-128454819D01*
X130190475Y-128454819D02*
X130190475Y-127454819D01*
X130190475Y-127454819D02*
X130285713Y-127597676D01*
X130285713Y-127597676D02*
X130380951Y-127692914D01*
X130380951Y-127692914D02*
X130476189Y-127740533D01*
X122796009Y-119170112D02*
X122843628Y-119312969D01*
X122843628Y-119312969D02*
X122891247Y-119360588D01*
X122891247Y-119360588D02*
X122986485Y-119408207D01*
X122986485Y-119408207D02*
X123129342Y-119408207D01*
X123129342Y-119408207D02*
X123224580Y-119360588D01*
X123224580Y-119360588D02*
X123272200Y-119312969D01*
X123272200Y-119312969D02*
X123319819Y-119217731D01*
X123319819Y-119217731D02*
X123319819Y-118836779D01*
X123319819Y-118836779D02*
X122319819Y-118836779D01*
X122319819Y-118836779D02*
X122319819Y-119170112D01*
X122319819Y-119170112D02*
X122367438Y-119265350D01*
X122367438Y-119265350D02*
X122415057Y-119312969D01*
X122415057Y-119312969D02*
X122510295Y-119360588D01*
X122510295Y-119360588D02*
X122605533Y-119360588D01*
X122605533Y-119360588D02*
X122700771Y-119312969D01*
X122700771Y-119312969D02*
X122748390Y-119265350D01*
X122748390Y-119265350D02*
X122796009Y-119170112D01*
X122796009Y-119170112D02*
X122796009Y-118836779D01*
X122938866Y-119836779D02*
X122938866Y-120598684D01*
X140846009Y-119170112D02*
X140893628Y-119312969D01*
X140893628Y-119312969D02*
X140941247Y-119360588D01*
X140941247Y-119360588D02*
X141036485Y-119408207D01*
X141036485Y-119408207D02*
X141179342Y-119408207D01*
X141179342Y-119408207D02*
X141274580Y-119360588D01*
X141274580Y-119360588D02*
X141322200Y-119312969D01*
X141322200Y-119312969D02*
X141369819Y-119217731D01*
X141369819Y-119217731D02*
X141369819Y-118836779D01*
X141369819Y-118836779D02*
X140369819Y-118836779D01*
X140369819Y-118836779D02*
X140369819Y-119170112D01*
X140369819Y-119170112D02*
X140417438Y-119265350D01*
X140417438Y-119265350D02*
X140465057Y-119312969D01*
X140465057Y-119312969D02*
X140560295Y-119360588D01*
X140560295Y-119360588D02*
X140655533Y-119360588D01*
X140655533Y-119360588D02*
X140750771Y-119312969D01*
X140750771Y-119312969D02*
X140798390Y-119265350D01*
X140798390Y-119265350D02*
X140846009Y-119170112D01*
X140846009Y-119170112D02*
X140846009Y-118836779D01*
X140988866Y-119836779D02*
X140988866Y-120598684D01*
X141369819Y-120217731D02*
X140607914Y-120217731D01*
X132048189Y-125772152D02*
X132048189Y-126629295D01*
X132048189Y-126629295D02*
X132095808Y-126724533D01*
X132095808Y-126724533D02*
X132191046Y-126772152D01*
X132191046Y-126772152D02*
X132238665Y-126772152D01*
X132048189Y-125438819D02*
X132095808Y-125486438D01*
X132095808Y-125486438D02*
X132048189Y-125534057D01*
X132048189Y-125534057D02*
X132000570Y-125486438D01*
X132000570Y-125486438D02*
X132048189Y-125438819D01*
X132048189Y-125438819D02*
X132048189Y-125534057D01*
X131667237Y-125438819D02*
X131048190Y-125438819D01*
X131048190Y-125438819D02*
X131381523Y-125819771D01*
X131381523Y-125819771D02*
X131238666Y-125819771D01*
X131238666Y-125819771D02*
X131143428Y-125867390D01*
X131143428Y-125867390D02*
X131095809Y-125915009D01*
X131095809Y-125915009D02*
X131048190Y-126010247D01*
X131048190Y-126010247D02*
X131048190Y-126248342D01*
X131048190Y-126248342D02*
X131095809Y-126343580D01*
X131095809Y-126343580D02*
X131143428Y-126391200D01*
X131143428Y-126391200D02*
X131238666Y-126438819D01*
X131238666Y-126438819D02*
X131524380Y-126438819D01*
X131524380Y-126438819D02*
X131619618Y-126391200D01*
X131619618Y-126391200D02*
X131667237Y-126343580D01*
D11*
%TO.C,MOD1*%
X140970000Y-114315000D02*
X138320000Y-114315000D01*
X140970000Y-113265000D02*
X140970000Y-114315000D01*
X140940000Y-90325000D02*
X140940000Y-88695000D01*
X140940000Y-88695000D02*
X139310000Y-88695000D01*
X122870000Y-90315000D02*
X122870000Y-88695000D01*
X122870000Y-88695000D02*
X124510000Y-88695000D01*
X122820000Y-114335000D02*
X125520000Y-114335000D01*
X122820000Y-113295000D02*
X122820000Y-114335000D01*
%TD*%
M02*
