%TF.GenerationSoftware,KiCad,Pcbnew,7.0.9-7.0.9~ubuntu22.04.1*%
%TF.CreationDate,2023-12-12T12:02:25+02:00*%
%TF.ProjectId,Haply_EE,4861706c-795f-4454-952e-6b696361645f,rev?*%
%TF.SameCoordinates,Original*%
%TF.FileFunction,Legend,Top*%
%TF.FilePolarity,Positive*%
%FSLAX46Y46*%
G04 Gerber Fmt 4.6, Leading zero omitted, Abs format (unit mm)*
G04 Created by KiCad (PCBNEW 7.0.9-7.0.9~ubuntu22.04.1) date 2023-12-12 12:02:25*
%MOMM*%
%LPD*%
G01*
G04 APERTURE LIST*
%ADD10C,0.150000*%
%ADD11C,0.125000*%
%ADD12C,0.120000*%
%ADD13C,0.100000*%
%ADD14C,0.152400*%
G04 APERTURE END LIST*
D10*
X132166666Y-115400819D02*
X132166666Y-116115104D01*
X132166666Y-116115104D02*
X132119047Y-116257961D01*
X132119047Y-116257961D02*
X132023809Y-116353200D01*
X132023809Y-116353200D02*
X131880952Y-116400819D01*
X131880952Y-116400819D02*
X131785714Y-116400819D01*
X132595238Y-115496057D02*
X132642857Y-115448438D01*
X132642857Y-115448438D02*
X132738095Y-115400819D01*
X132738095Y-115400819D02*
X132976190Y-115400819D01*
X132976190Y-115400819D02*
X133071428Y-115448438D01*
X133071428Y-115448438D02*
X133119047Y-115496057D01*
X133119047Y-115496057D02*
X133166666Y-115591295D01*
X133166666Y-115591295D02*
X133166666Y-115686533D01*
X133166666Y-115686533D02*
X133119047Y-115829390D01*
X133119047Y-115829390D02*
X132547619Y-116400819D01*
X132547619Y-116400819D02*
X133166666Y-116400819D01*
X139044819Y-100666666D02*
X138568628Y-100999999D01*
X139044819Y-101238094D02*
X138044819Y-101238094D01*
X138044819Y-101238094D02*
X138044819Y-100857142D01*
X138044819Y-100857142D02*
X138092438Y-100761904D01*
X138092438Y-100761904D02*
X138140057Y-100714285D01*
X138140057Y-100714285D02*
X138235295Y-100666666D01*
X138235295Y-100666666D02*
X138378152Y-100666666D01*
X138378152Y-100666666D02*
X138473390Y-100714285D01*
X138473390Y-100714285D02*
X138521009Y-100761904D01*
X138521009Y-100761904D02*
X138568628Y-100857142D01*
X138568628Y-100857142D02*
X138568628Y-101238094D01*
X138044819Y-100333332D02*
X138044819Y-99714285D01*
X138044819Y-99714285D02*
X138425771Y-100047618D01*
X138425771Y-100047618D02*
X138425771Y-99904761D01*
X138425771Y-99904761D02*
X138473390Y-99809523D01*
X138473390Y-99809523D02*
X138521009Y-99761904D01*
X138521009Y-99761904D02*
X138616247Y-99714285D01*
X138616247Y-99714285D02*
X138854342Y-99714285D01*
X138854342Y-99714285D02*
X138949580Y-99761904D01*
X138949580Y-99761904D02*
X138997200Y-99809523D01*
X138997200Y-99809523D02*
X139044819Y-99904761D01*
X139044819Y-99904761D02*
X139044819Y-100190475D01*
X139044819Y-100190475D02*
X138997200Y-100285713D01*
X138997200Y-100285713D02*
X138949580Y-100333332D01*
X129084580Y-99891666D02*
X129132200Y-99939285D01*
X129132200Y-99939285D02*
X129179819Y-100082142D01*
X129179819Y-100082142D02*
X129179819Y-100177380D01*
X129179819Y-100177380D02*
X129132200Y-100320237D01*
X129132200Y-100320237D02*
X129036961Y-100415475D01*
X129036961Y-100415475D02*
X128941723Y-100463094D01*
X128941723Y-100463094D02*
X128751247Y-100510713D01*
X128751247Y-100510713D02*
X128608390Y-100510713D01*
X128608390Y-100510713D02*
X128417914Y-100463094D01*
X128417914Y-100463094D02*
X128322676Y-100415475D01*
X128322676Y-100415475D02*
X128227438Y-100320237D01*
X128227438Y-100320237D02*
X128179819Y-100177380D01*
X128179819Y-100177380D02*
X128179819Y-100082142D01*
X128179819Y-100082142D02*
X128227438Y-99939285D01*
X128227438Y-99939285D02*
X128275057Y-99891666D01*
X128179819Y-99558332D02*
X128179819Y-98939285D01*
X128179819Y-98939285D02*
X128560771Y-99272618D01*
X128560771Y-99272618D02*
X128560771Y-99129761D01*
X128560771Y-99129761D02*
X128608390Y-99034523D01*
X128608390Y-99034523D02*
X128656009Y-98986904D01*
X128656009Y-98986904D02*
X128751247Y-98939285D01*
X128751247Y-98939285D02*
X128989342Y-98939285D01*
X128989342Y-98939285D02*
X129084580Y-98986904D01*
X129084580Y-98986904D02*
X129132200Y-99034523D01*
X129132200Y-99034523D02*
X129179819Y-99129761D01*
X129179819Y-99129761D02*
X129179819Y-99415475D01*
X129179819Y-99415475D02*
X129132200Y-99510713D01*
X129132200Y-99510713D02*
X129084580Y-99558332D01*
X141359580Y-117366666D02*
X141407200Y-117414285D01*
X141407200Y-117414285D02*
X141454819Y-117557142D01*
X141454819Y-117557142D02*
X141454819Y-117652380D01*
X141454819Y-117652380D02*
X141407200Y-117795237D01*
X141407200Y-117795237D02*
X141311961Y-117890475D01*
X141311961Y-117890475D02*
X141216723Y-117938094D01*
X141216723Y-117938094D02*
X141026247Y-117985713D01*
X141026247Y-117985713D02*
X140883390Y-117985713D01*
X140883390Y-117985713D02*
X140692914Y-117938094D01*
X140692914Y-117938094D02*
X140597676Y-117890475D01*
X140597676Y-117890475D02*
X140502438Y-117795237D01*
X140502438Y-117795237D02*
X140454819Y-117652380D01*
X140454819Y-117652380D02*
X140454819Y-117557142D01*
X140454819Y-117557142D02*
X140502438Y-117414285D01*
X140502438Y-117414285D02*
X140550057Y-117366666D01*
X141454819Y-116414285D02*
X141454819Y-116985713D01*
X141454819Y-116699999D02*
X140454819Y-116699999D01*
X140454819Y-116699999D02*
X140597676Y-116795237D01*
X140597676Y-116795237D02*
X140692914Y-116890475D01*
X140692914Y-116890475D02*
X140740533Y-116985713D01*
X140882700Y-106066666D02*
X140849366Y-106133333D01*
X140849366Y-106133333D02*
X140782700Y-106200000D01*
X140782700Y-106200000D02*
X140682700Y-106300000D01*
X140682700Y-106300000D02*
X140649366Y-106366666D01*
X140649366Y-106366666D02*
X140649366Y-106433333D01*
X140816033Y-106400000D02*
X140782700Y-106466666D01*
X140782700Y-106466666D02*
X140716033Y-106533333D01*
X140716033Y-106533333D02*
X140582700Y-106566666D01*
X140582700Y-106566666D02*
X140349366Y-106566666D01*
X140349366Y-106566666D02*
X140216033Y-106533333D01*
X140216033Y-106533333D02*
X140149366Y-106466666D01*
X140149366Y-106466666D02*
X140116033Y-106400000D01*
X140116033Y-106400000D02*
X140116033Y-106266666D01*
X140116033Y-106266666D02*
X140149366Y-106200000D01*
X140149366Y-106200000D02*
X140216033Y-106133333D01*
X140216033Y-106133333D02*
X140349366Y-106100000D01*
X140349366Y-106100000D02*
X140582700Y-106100000D01*
X140582700Y-106100000D02*
X140716033Y-106133333D01*
X140716033Y-106133333D02*
X140782700Y-106200000D01*
X140782700Y-106200000D02*
X140816033Y-106266666D01*
X140816033Y-106266666D02*
X140816033Y-106400000D01*
X140182700Y-105833333D02*
X140149366Y-105800000D01*
X140149366Y-105800000D02*
X140116033Y-105733333D01*
X140116033Y-105733333D02*
X140116033Y-105566667D01*
X140116033Y-105566667D02*
X140149366Y-105500000D01*
X140149366Y-105500000D02*
X140182700Y-105466667D01*
X140182700Y-105466667D02*
X140249366Y-105433333D01*
X140249366Y-105433333D02*
X140316033Y-105433333D01*
X140316033Y-105433333D02*
X140416033Y-105466667D01*
X140416033Y-105466667D02*
X140816033Y-105866667D01*
X140816033Y-105866667D02*
X140816033Y-105433333D01*
D11*
X124160464Y-114601428D02*
X124767607Y-114601428D01*
X124767607Y-114601428D02*
X124839035Y-114565714D01*
X124839035Y-114565714D02*
X124874750Y-114530000D01*
X124874750Y-114530000D02*
X124910464Y-114458571D01*
X124910464Y-114458571D02*
X124910464Y-114315714D01*
X124910464Y-114315714D02*
X124874750Y-114244285D01*
X124874750Y-114244285D02*
X124839035Y-114208571D01*
X124839035Y-114208571D02*
X124767607Y-114172857D01*
X124767607Y-114172857D02*
X124160464Y-114172857D01*
X124160464Y-113887143D02*
X124160464Y-113422857D01*
X124160464Y-113422857D02*
X124446178Y-113672857D01*
X124446178Y-113672857D02*
X124446178Y-113565714D01*
X124446178Y-113565714D02*
X124481892Y-113494286D01*
X124481892Y-113494286D02*
X124517607Y-113458571D01*
X124517607Y-113458571D02*
X124589035Y-113422857D01*
X124589035Y-113422857D02*
X124767607Y-113422857D01*
X124767607Y-113422857D02*
X124839035Y-113458571D01*
X124839035Y-113458571D02*
X124874750Y-113494286D01*
X124874750Y-113494286D02*
X124910464Y-113565714D01*
X124910464Y-113565714D02*
X124910464Y-113780000D01*
X124910464Y-113780000D02*
X124874750Y-113851428D01*
X124874750Y-113851428D02*
X124839035Y-113887143D01*
D10*
X134454819Y-112261904D02*
X135264342Y-112261904D01*
X135264342Y-112261904D02*
X135359580Y-112214285D01*
X135359580Y-112214285D02*
X135407200Y-112166666D01*
X135407200Y-112166666D02*
X135454819Y-112071428D01*
X135454819Y-112071428D02*
X135454819Y-111880952D01*
X135454819Y-111880952D02*
X135407200Y-111785714D01*
X135407200Y-111785714D02*
X135359580Y-111738095D01*
X135359580Y-111738095D02*
X135264342Y-111690476D01*
X135264342Y-111690476D02*
X134454819Y-111690476D01*
X134454819Y-110738095D02*
X134454819Y-111214285D01*
X134454819Y-111214285D02*
X134931009Y-111261904D01*
X134931009Y-111261904D02*
X134883390Y-111214285D01*
X134883390Y-111214285D02*
X134835771Y-111119047D01*
X134835771Y-111119047D02*
X134835771Y-110880952D01*
X134835771Y-110880952D02*
X134883390Y-110785714D01*
X134883390Y-110785714D02*
X134931009Y-110738095D01*
X134931009Y-110738095D02*
X135026247Y-110690476D01*
X135026247Y-110690476D02*
X135264342Y-110690476D01*
X135264342Y-110690476D02*
X135359580Y-110738095D01*
X135359580Y-110738095D02*
X135407200Y-110785714D01*
X135407200Y-110785714D02*
X135454819Y-110880952D01*
X135454819Y-110880952D02*
X135454819Y-111119047D01*
X135454819Y-111119047D02*
X135407200Y-111214285D01*
X135407200Y-111214285D02*
X135359580Y-111261904D01*
X132666667Y-96407200D02*
X132809524Y-96454819D01*
X132809524Y-96454819D02*
X133047619Y-96454819D01*
X133047619Y-96454819D02*
X133142857Y-96407200D01*
X133142857Y-96407200D02*
X133190476Y-96359580D01*
X133190476Y-96359580D02*
X133238095Y-96264342D01*
X133238095Y-96264342D02*
X133238095Y-96169104D01*
X133238095Y-96169104D02*
X133190476Y-96073866D01*
X133190476Y-96073866D02*
X133142857Y-96026247D01*
X133142857Y-96026247D02*
X133047619Y-95978628D01*
X133047619Y-95978628D02*
X132857143Y-95931009D01*
X132857143Y-95931009D02*
X132761905Y-95883390D01*
X132761905Y-95883390D02*
X132714286Y-95835771D01*
X132714286Y-95835771D02*
X132666667Y-95740533D01*
X132666667Y-95740533D02*
X132666667Y-95645295D01*
X132666667Y-95645295D02*
X132714286Y-95550057D01*
X132714286Y-95550057D02*
X132761905Y-95502438D01*
X132761905Y-95502438D02*
X132857143Y-95454819D01*
X132857143Y-95454819D02*
X133095238Y-95454819D01*
X133095238Y-95454819D02*
X133238095Y-95502438D01*
X133571429Y-95454819D02*
X133809524Y-96454819D01*
X133809524Y-96454819D02*
X134000000Y-95740533D01*
X134000000Y-95740533D02*
X134190476Y-96454819D01*
X134190476Y-96454819D02*
X134428572Y-95454819D01*
X135333333Y-96454819D02*
X134761905Y-96454819D01*
X135047619Y-96454819D02*
X135047619Y-95454819D01*
X135047619Y-95454819D02*
X134952381Y-95597676D01*
X134952381Y-95597676D02*
X134857143Y-95692914D01*
X134857143Y-95692914D02*
X134761905Y-95740533D01*
X132205095Y-100762319D02*
X132205095Y-101571842D01*
X132205095Y-101571842D02*
X132252714Y-101667080D01*
X132252714Y-101667080D02*
X132300333Y-101714700D01*
X132300333Y-101714700D02*
X132395571Y-101762319D01*
X132395571Y-101762319D02*
X132586047Y-101762319D01*
X132586047Y-101762319D02*
X132681285Y-101714700D01*
X132681285Y-101714700D02*
X132728904Y-101667080D01*
X132728904Y-101667080D02*
X132776523Y-101571842D01*
X132776523Y-101571842D02*
X132776523Y-100762319D01*
X133776523Y-101762319D02*
X133205095Y-101762319D01*
X133490809Y-101762319D02*
X133490809Y-100762319D01*
X133490809Y-100762319D02*
X133395571Y-100905176D01*
X133395571Y-100905176D02*
X133300333Y-101000414D01*
X133300333Y-101000414D02*
X133205095Y-101048033D01*
X130433333Y-105382700D02*
X130366666Y-105349366D01*
X130366666Y-105349366D02*
X130300000Y-105282700D01*
X130300000Y-105282700D02*
X130200000Y-105182700D01*
X130200000Y-105182700D02*
X130133333Y-105149366D01*
X130133333Y-105149366D02*
X130066666Y-105149366D01*
X130100000Y-105316033D02*
X130033333Y-105282700D01*
X130033333Y-105282700D02*
X129966666Y-105216033D01*
X129966666Y-105216033D02*
X129933333Y-105082700D01*
X129933333Y-105082700D02*
X129933333Y-104849366D01*
X129933333Y-104849366D02*
X129966666Y-104716033D01*
X129966666Y-104716033D02*
X130033333Y-104649366D01*
X130033333Y-104649366D02*
X130100000Y-104616033D01*
X130100000Y-104616033D02*
X130233333Y-104616033D01*
X130233333Y-104616033D02*
X130300000Y-104649366D01*
X130300000Y-104649366D02*
X130366666Y-104716033D01*
X130366666Y-104716033D02*
X130400000Y-104849366D01*
X130400000Y-104849366D02*
X130400000Y-105082700D01*
X130400000Y-105082700D02*
X130366666Y-105216033D01*
X130366666Y-105216033D02*
X130300000Y-105282700D01*
X130300000Y-105282700D02*
X130233333Y-105316033D01*
X130233333Y-105316033D02*
X130100000Y-105316033D01*
X131066666Y-105316033D02*
X130666666Y-105316033D01*
X130866666Y-105316033D02*
X130866666Y-104616033D01*
X130866666Y-104616033D02*
X130799999Y-104716033D01*
X130799999Y-104716033D02*
X130733333Y-104782700D01*
X130733333Y-104782700D02*
X130666666Y-104816033D01*
D12*
%TO.C,R6*%
X123175500Y-121458258D02*
X123175500Y-120983742D01*
X124220500Y-121458258D02*
X124220500Y-120983742D01*
%TO.C,R4*%
X124539742Y-110983500D02*
X125014258Y-110983500D01*
X124539742Y-112028500D02*
X125014258Y-112028500D01*
%TO.C,C8*%
X137665580Y-104010000D02*
X137384420Y-104010000D01*
X137665580Y-102990000D02*
X137384420Y-102990000D01*
%TO.C,J2*%
X127022000Y-120526000D02*
X127022000Y-119116000D01*
X127842000Y-116446000D02*
X127842000Y-116596000D01*
X128642000Y-116446000D02*
X127842000Y-116446000D01*
X136182000Y-120526000D02*
X136182000Y-119116000D01*
%TO.C,D2*%
X130062500Y-115695000D02*
X130062500Y-114225000D01*
X130062500Y-114225000D02*
X127777500Y-114225000D01*
X127777500Y-115695000D02*
X130062500Y-115695000D01*
%TO.C,C5*%
X129390000Y-109315580D02*
X129390000Y-109034420D01*
X130410000Y-109315580D02*
X130410000Y-109034420D01*
%TO.C,R5*%
X128842258Y-113602500D02*
X128367742Y-113602500D01*
X128842258Y-112557500D02*
X128367742Y-112557500D01*
%TO.C,R7*%
X123175500Y-117776258D02*
X123175500Y-117301742D01*
X124220500Y-117776258D02*
X124220500Y-117301742D01*
%TO.C,R2*%
X128077500Y-96437258D02*
X128077500Y-95962742D01*
X129122500Y-96437258D02*
X129122500Y-95962742D01*
%TO.C,R1*%
X136158500Y-105489742D02*
X136158500Y-105964258D01*
X135113500Y-105489742D02*
X135113500Y-105964258D01*
%TO.C,R3*%
X137682500Y-100854742D02*
X137682500Y-101329258D01*
X136637500Y-100854742D02*
X136637500Y-101329258D01*
D13*
%TO.C,U2*%
X122325000Y-104325000D02*
X122325000Y-104725000D01*
X122325000Y-107075000D02*
X122325000Y-107550000D01*
X122325000Y-107550000D02*
X122625000Y-107875000D01*
X122625000Y-107875000D02*
X122625000Y-108070000D01*
X122825000Y-104325000D02*
X122325000Y-104325000D01*
X128500000Y-104325000D02*
X128875000Y-104325000D01*
X128875000Y-104325000D02*
X128875000Y-104625000D01*
X128875000Y-107400000D02*
X128875000Y-107875000D01*
X128875000Y-107875000D02*
X128425000Y-107875000D01*
D12*
%TO.C,C3*%
X126744000Y-99721580D02*
X126744000Y-99440420D01*
X127764000Y-99721580D02*
X127764000Y-99440420D01*
%TO.C,C2*%
X128504420Y-110980000D02*
X128785580Y-110980000D01*
X128504420Y-112000000D02*
X128785580Y-112000000D01*
%TO.C,C1*%
X138936000Y-117501580D02*
X138936000Y-117220420D01*
X139956000Y-117501580D02*
X139956000Y-117220420D01*
%TO.C,Q2*%
X137918000Y-106966000D02*
X139318000Y-106966000D01*
X139318000Y-104646000D02*
X137418000Y-104646000D01*
%TO.C,U3*%
X124592500Y-115672000D02*
X126392500Y-115672000D01*
X124592500Y-115672000D02*
X123792500Y-115672000D01*
X124592500Y-112552000D02*
X125392500Y-112552000D01*
X124592500Y-112552000D02*
X123792500Y-112552000D01*
%TO.C,U5*%
X130830000Y-111506000D02*
X130830000Y-114956000D01*
X130830000Y-111506000D02*
X130830000Y-109556000D01*
X140950000Y-111506000D02*
X140950000Y-113456000D01*
X140950000Y-111506000D02*
X140950000Y-109556000D01*
%TO.C,SW1*%
X137325000Y-96815000D02*
X137325000Y-96025000D01*
X136725000Y-95015000D02*
X131025000Y-95015000D01*
X135475000Y-97865000D02*
X133775000Y-97865000D01*
X135275000Y-95015000D02*
X135275000Y-93725000D01*
X135275000Y-93725000D02*
X135075000Y-93515000D01*
X135075000Y-93515000D02*
X134175000Y-93515000D01*
X133975000Y-93725000D02*
X134175000Y-93515000D01*
X133975000Y-93725000D02*
X133975000Y-95015000D01*
X132475000Y-97865000D02*
X132275000Y-97865000D01*
X130425000Y-96025000D02*
X130425000Y-96815000D01*
D14*
%TO.C,U1*%
X130142000Y-99600000D02*
X130142000Y-100200000D01*
X130142000Y-103000000D02*
X130142000Y-103600000D01*
X130142000Y-103600000D02*
X130742000Y-103600000D01*
X130742000Y-99600000D02*
X130142000Y-99600000D01*
X130742000Y-99600000D02*
X130742000Y-99400000D01*
X134942000Y-103600000D02*
X135542000Y-103600000D01*
X135542000Y-99600000D02*
X134942000Y-99600000D01*
X135542000Y-100200000D02*
X135542000Y-99600000D01*
X135542000Y-103600000D02*
X135542000Y-103000000D01*
D12*
%TO.C,C4*%
X126490000Y-96340580D02*
X126490000Y-96059420D01*
X127510000Y-96340580D02*
X127510000Y-96059420D01*
%TO.C,D1*%
X122730000Y-101607500D02*
X126030000Y-101607500D01*
X122730000Y-101607500D02*
X122730000Y-96097500D01*
X126030000Y-101607500D02*
X126030000Y-96097500D01*
%TO.C,Q1*%
X131947500Y-107478000D02*
X133747500Y-107478000D01*
X131947500Y-107478000D02*
X131147500Y-107478000D01*
X131947500Y-104358000D02*
X132747500Y-104358000D01*
X131947500Y-104358000D02*
X131147500Y-104358000D01*
%TD*%
M02*
